<?xml version="1.0" standalone="no"?>
<!DOCTYPE svg PUBLIC "-//W3C//DTD SVG 1.1//EN" "http://www.w3.org/Graphics/SVG/1.1/DTD/svg11.dtd" >
<svg xmlns="http://www.w3.org/2000/svg" xmlns:xlink="http://www.w3.org/1999/xlink" version="1.1">
<metadata>
Created by FontForge 20170731 at Tue Feb 21 03:44:23 2023
 By Aleksey,,,
SIL Open Font License (OFL)
</metadata>
<defs>
<font id="Arbata_Compact" horiz-adv-x="768" >
  <font-face 
    font-family="Arbata Compact"
    font-weight="400"
    font-stretch="normal"
    units-per-em="2048"
    panose-1="0 0 0 0 0 0 0 0 0 0"
    ascent="1638"
    descent="-410"
    x-height="640"
    cap-height="896"
    bbox="-128 -384 1920 1408"
    underline-thickness="102"
    underline-position="-307"
    unicode-range="U+000D-1FA78"
  />
<missing-glyph 
d="M0 768h640v-640h-640v640zM512 640h-384v-384h384v384z" />
    <glyph glyph-name=".notdef" 
d="M0 768h640v-640h-640v640zM512 640h-384v-384h384v384z" />
    <glyph glyph-name=".null" horiz-adv-x="0" 
 />
    <glyph glyph-name="nonmarkingreturn" unicode="&#xd;" horiz-adv-x="0" 
 />
    <glyph glyph-name="null" horiz-adv-x="0" 
 />
    <glyph glyph-name=" " unicode=" " horiz-adv-x="512" 
 />
    <glyph glyph-name="!" unicode="!" horiz-adv-x="256" 
d="M0 0v128h128v-128h-128zM128 896v-640h-128v640h128z" />
    <glyph glyph-name=""" unicode="&#x22;" horiz-adv-x="512" 
d="M0 640v256h128v-256h-128zM256 640v256h128v-256h-128z" />
    <glyph glyph-name="#" unicode="#" 
d="M0 512v128h128v128h128v-128h128v128h128v-128h128v-128h-128v-128h128v-128h-128v-128h-128v128h-128v-128h-128v128h-128v128h128v128h-128zM384 512h-128v-128h128v128z" />
    <glyph glyph-name="$" unicode="$" 
d="M128 640h-128v-128h128v-128h384v-128h-384v-128h128v-128h128v128h128v128h128v128h-128v128h-384v128h384v128h-128v128h-128v-128h-128v-128zM128 640z" />
    <glyph glyph-name="%" unicode="%" horiz-adv-x="1150" 
d="M0 384v384h384v-384h128v384h128v-384h384v-384h-384v384h-128v-384h-128v384h-384zM128 640v-128h128v128h-128zM768 256v-128h128v128h-128z" />
    <glyph glyph-name="&" unicode="&#x26;" horiz-adv-x="897" 
d="M768 256h-384v128h128v-384h-384v896h256v-384h128v256h-512v-256h384v-128h-384v-256h768v-128h-128v384h128v-128z" />
    <glyph glyph-name="'" unicode="'" horiz-adv-x="256" 
d="M0 640v256h128v-256h-128z" />
    <glyph glyph-name="(" unicode="(" horiz-adv-x="385" 
d="M0 898h128v128h129v-128h-129v-898h129v-48v-80h-49h-80v48v80h-48h-80v898z" />
    <glyph glyph-name=")" unicode=")" horiz-adv-x="385" 
d="M0 1026h128v-128h129v-898h-129v-128h-48h-80v128h128v898h-128v128z" />
    <glyph glyph-name="*" unicode="*" 
d="M256 1024h128v-256h128v128h128v-128h-128v-128h128v-128h-128v128h-128v-256h-128v256h-128v-128h-128v128h128v128h-128v128h128v-128h128v256z" />
    <glyph glyph-name="+" unicode="+" horiz-adv-x="512" 
d="M0 384v128h128v128h128v-128h128v-128h-128v-128h-128v128h-128z" />
    <glyph glyph-name="," unicode="," horiz-adv-x="256" 
d="M0 -128v256h128v-256h-128z" />
    <glyph glyph-name="-" unicode="-" horiz-adv-x="512" 
d="M0 384v128h384v-128h-384z" />
    <glyph glyph-name="." unicode="." horiz-adv-x="256" 
d="M0 0v128h128v-128h-128z" />
    <glyph glyph-name="/" unicode="/" horiz-adv-x="512" 
d="M0 257h128v384h129v257h128v-257h-128v-384h-129v-257h-128v257z" />
    <glyph glyph-name="0" unicode="0" horiz-adv-x="638" 
d="M128 896v-768h-128v640h512v-640h-384v-48v-80h256v896h-256z" />
    <glyph glyph-name="1" unicode="1" horiz-adv-x="638" 
d="M0 384v128h128v128h128v256h128v-768h128v-128h-512v128h256v384h-128v-128h-128z" />
    <glyph glyph-name="2" unicode="2" horiz-adv-x="638" 
d="M0 640v128h128v128h256v-128h128v-256h-128v-128h-128v-128h-128v-128h384v-128h-512v256h128v128h128v128h128v256h-256v-128h-128z" />
    <glyph glyph-name="3" unicode="3" horiz-adv-x="638" 
d="M128 640h-128v128h128v128h256v-80v-48h128v-256h-128v-128h128v-256h-128v-80v-48h-256v128h-128v128h128v-80v-48h256v256h-128v128h128v256h-256v-128z" />
    <glyph glyph-name="4" unicode="4" horiz-adv-x="638" 
d="M0 512h128v128h128v128h128v128h128v-896h-128v256h-384v96v160zM256 512h-128v-80v-48h256v256h-128v-128z" />
    <glyph glyph-name="5" unicode="5" horiz-adv-x="638" 
d="M0 896h512v-128h-384v-256h256v-128h128v-256h-128v-128h-384v128h384v256h-384v512z" />
    <glyph glyph-name="6" unicode="6" horiz-adv-x="638" 
d="M0 768h128v128h256v-128h128v-128h-128v128h-256v-256h256v-128h128v-256h-128v-128h-96h-160v128h-128v640zM384 384h-256v-160v-96h160h96v256z" />
    <glyph glyph-name="7" unicode="7" horiz-adv-x="638" 
d="M0 640v256h320h192v-384h-128v-128h-128v-384h-128v384h128v128h128v256h-256v-128h-128z" />
    <glyph glyph-name="8" unicode="8" horiz-adv-x="638" 
d="M384 896h-256v-896h256v128h-384v256h512v-256h-128v640h128v-256h-512v256h384v128z" />
    <glyph glyph-name="9" unicode="9" horiz-adv-x="638" 
d="M128 768v128h256v-128h128v-640h-128v-128h-256v128h-128v128h128v-128h256v256h-256v128h-128v256h128zM384 768h-256v-256h256v256z" />
    <glyph glyph-name=":" unicode=":" horiz-adv-x="256" 
d="M0 128v128h128v-128h-128zM0 512v128h128v-128h-128z" />
    <glyph glyph-name=";" unicode=";" horiz-adv-x="256" 
d="M0 512v128h128v-128h-128zM0 -128v256h128v-256h-128z" />
    <glyph glyph-name="<" unicode="&#x3c;" horiz-adv-x="512" 
d="M128 384h-128v128h128v128h128v128h128v-128h-128v-128h-128v-128h128v-128h128v-128h-128v128h-128v128z" />
    <glyph glyph-name="=" unicode="=" horiz-adv-x="512" 
d="M0 512v128h384v-128h-384zM384 384v-128h-384v128h384z" />
    <glyph glyph-name=">" unicode="&#x3e;" horiz-adv-x="512" 
d="M0 640v128h128v-128h128v-128h128v-128h-128v-128h-128v-128h-128v128h128v128h128v128h-128v128h-128z" />
    <glyph glyph-name="?" unicode="?" horiz-adv-x="638" 
d="M128 640h-128v128h128v128h256v-128h128v-256h-128v-128h-128v-128h-128v128h128v128h128v256h-256v-128zM128 0v128h128v-128h-128z" />
    <glyph glyph-name="@" unicode="@" horiz-adv-x="1024" 
d="M0 640h128v128h128v128h384v-128h128v-128h128v-384h-128v-128h-48h-80v128h-256v128h-128v128h128v128h128v-128h128v-256h128v384h-128v128h-384v-128h-128v-384h128v-128h256v-128h-256v128h-128v128h-128v384zM512 512h-128v-128h128v128z" />
    <glyph glyph-name="A" unicode="A" 
d="M128 0h-128v768h128v128h384v-128h128v-768h-128v256h-384v-256zM512 768h-384v-384h384v384z" />
    <glyph glyph-name="B" unicode="B" 
d="M0 0v896h384v-128h128v-384h128v-256h-128v-128h-512zM128 768v-256h256v256h-256zM128 384v-256h384v256h-144h-240z" />
    <glyph glyph-name="C" unicode="C" 
d="M0 768h128v128h384v-128h128v-128h-128v128h-384v-640h384v128h128v-128h-128v-128h-384v128h-128v640z" />
    <glyph glyph-name="D" unicode="D" 
d="M0 896h384v-128h128v-128h128v-512h-128v-128h-512v896zM384 768h-256v-640h384v512h-128v128z" />
    <glyph glyph-name="E" unicode="E" 
d="M0 0v896h640v-128h-512v-256h256v-128h-256v-256h512v-128h-640z" />
    <glyph glyph-name="F" unicode="F" 
d="M0 0v896h640v-128h-512v-256h256v-128h-256v-384h-128z" />
    <glyph glyph-name="G" unicode="G" 
d="M0 768h128v128h384v-128h128v-128h-128v128h-384v-640h384v256h-128v128h256v-384h-128v-128h-384v128h-128v640z" />
    <glyph glyph-name="H" unicode="H" 
d="M0 0v896h128v-384h384v384h128v-896h-128v384h-384v-384h-128z" />
    <glyph glyph-name="I" unicode="I" horiz-adv-x="512" 
d="M0 768v128h384v-128h-128v-640h128v-128h-384v128h128v640h-128z" />
    <glyph glyph-name="J" unicode="J" horiz-adv-x="638" 
d="M0 848v48h192h320v-128h-128v-640h-128v-128h-256v128h256v640h-256v80z" />
    <glyph glyph-name="K" unicode="K" 
d="M0 896h128v-384h256v128h128v256h128v-256h-128v-256h128v-384h-128v384h-384v-384h-128v336v560z" />
    <glyph glyph-name="L" unicode="L" horiz-adv-x="638" 
d="M0 0v896h128v-768h384v-128h-512z" />
    <glyph glyph-name="M" unicode="M" 
d="M0 0v896h128v-128h128v-256h128v256h128v128h128v-896h-128v640h-384v-640h-128z" />
    <glyph glyph-name="N" unicode="N" 
d="M0 0v896h128v-128h128v-256h256v384h128v-896h-128v384h-128v256h-256v-640h-128z" />
    <glyph glyph-name="O" unicode="O" 
d="M0 128v640h640v-640h-512v-128h384v896h-384v-768h-128z" />
    <glyph glyph-name="P" unicode="P" 
d="M128 0h-128v896h512v-128h128v-384h-128v-128h-384v-256zM512 768h-384v-384h384v384z" />
    <glyph glyph-name="Q" unicode="Q" 
d="M0 768h128v128h384v-128h128v-512h-128v-128h128v-128h-128v128h-128v-128h-256v128h-128v640zM512 768h-384v-640h256v128h-128v128h128v-128h128v512z" />
    <glyph glyph-name="R" unicode="R" 
d="M0 896h512v-128h128v-256h-128v-48v-80h-128v-128h128v-128h128v-128h-128v128h-128v128h-128v128h-128v-384h-128v896zM512 768h-384v-256h384v256z" />
    <glyph glyph-name="S" unicode="S" 
d="M0 768h128v128h384v-128h128v-128h-128v128h-384v-256h384v-128h128v-256h-128v-128h-384v128h-128v128h128v-128h384v256h-384v128h-128v256z" />
    <glyph glyph-name="T" unicode="T" 
d="M0 896h640v-128h-256v-768h-128v768h-256v128z" />
    <glyph glyph-name="U" unicode="U" 
d="M0 898h128v-770h385v770h128v-770h-48h-80v-128h-385v48v80h-128v289v481z" />
    <glyph glyph-name="V" unicode="V" 
d="M0 896h128v-640h128v-128h128v128h128v640h128v-640h-128v-128h-128v-128h-128v128h-128v128h-128v640z" />
    <glyph glyph-name="W" unicode="W" 
d="M0 128v768h128v-896h128v384h128v-384h128v896h128v-768h-640z" />
    <glyph glyph-name="X" unicode="X" 
d="M0 898h128v-257h129v-128h128v128h128v257h128v-257h-128v-128h-128v-128h128v-128h128v-257h-128v257h-128v128h-128v-128h-129v-257h-128v257h128v128h129v128h-129v128h-128v257z" />
    <glyph glyph-name="Y" unicode="Y" 
d="M0 896h128v-384h128v-128h128v128h128v384h128v-384h-128v-128h-128v-384h-128v384h-128v128h-128v384z" />
    <glyph glyph-name="Z" unicode="Z" 
d="M0 768v128h640v-256h-128v-128h-128v-128h-128v-128h-128v-128h512v-128h-640v256h128v128h128v128h80h48v128h128v128h-512z" />
    <glyph glyph-name="[" unicode="[" horiz-adv-x="385" 
d="M0 -128v1152h256v-80v-48h-128v-896h128v-128h-256z" />
    <glyph glyph-name="\" unicode="\" horiz-adv-x="512" 
d="M0 640v256h128v-256h-128zM128 256v384h128v-384h-128zM256 0v256h128v-256h-128z" />
    <glyph glyph-name="]" unicode="]" horiz-adv-x="385" 
d="M0 896v128h256v-1152h-256v128h128v896h-128z" />
    <glyph glyph-name="^" unicode="^" horiz-adv-x="512" 
d="M0 768h128v128h128v-128h128v-128h-128v128h-128v-128h-128v128z" />
    <glyph glyph-name="_" unicode="_" horiz-adv-x="638" 
d="M0 0v128h512v-128h-512z" />
    <glyph glyph-name="`" unicode="`" horiz-adv-x="385" 
d="M0 768v128h128v-128h128v-128h-128v128h-128z" />
    <glyph glyph-name="a" unicode="a" horiz-adv-x="638" 
d="M128 512v128h256v-128h128v-512h-384v128h-128v128h128v128h256v128h-256zM384 256h-256v-128h256v128z" />
    <glyph glyph-name="b" unicode="b" horiz-adv-x="638" 
d="M0 896h128v-256h256v-128h128v-384h-128v-128h-256v128h-128v768zM384 512h-256v-384h256v384z" />
    <glyph glyph-name="c" unicode="c" horiz-adv-x="638" 
d="M0 512h128v128h256v-128h128v-128h-128v128h-256v-384h256v128h128v-128h-128v-128h-256v128h-128v384z" />
    <glyph glyph-name="d" unicode="d" horiz-adv-x="638" 
d="M0 512h128v128h256v256h128v-768h-128v-128h-256v128h-128v384zM384 512h-256v-384h256v384z" />
    <glyph glyph-name="e" unicode="e" horiz-adv-x="638" 
d="M0 512h128v128h256v-128h128v-256h-384v-128h256v-128h-96h-160v48v80h-128v384zM384 512h-256v-128h256v128z" />
    <glyph glyph-name="f" unicode="f" horiz-adv-x="638" 
d="M0 512h128v256h128v128h256v-128h-256v-256h128v-128h-128v-384h-128v384h-128v128z" />
    <glyph glyph-name="g" unicode="g" horiz-adv-x="638" 
d="M0 512h128v128h384v-384h-48h-80v-128h-128v-128h-128v-128h256v128h128v-128h-128v-128h-256v128h-128v128h128v256h-128v256zM384 512h-256v-256h256v160v96z" />
    <glyph glyph-name="h" unicode="h" horiz-adv-x="638" 
d="M0 896h128v-256h256v-128h128v-512h-128v512h-256v-512h-128v896z" />
    <glyph glyph-name="i" unicode="i" horiz-adv-x="256" 
d="M0 640v128h128v-128h-128zM0 0v512h128v-512h-128z" />
    <glyph glyph-name="j" unicode="j" horiz-adv-x="385" 
d="M128 640v128h128v-128h-128zM128 -128v640h128v-640h-128v-128h-256v80v48h256z" />
    <glyph glyph-name="k" unicode="k" horiz-adv-x="638" 
d="M0 896h128v-512h128v128h128v128h128v-128h-128v-256h128v-256h-128v256h-256v-256h-128v896z" />
    <glyph glyph-name="l" unicode="l" horiz-adv-x="256" 
d="M0 0v896h128v-896h-128z" />
    <glyph glyph-name="m" unicode="m" 
d="M0 640h512v-128h128v-512h-128v512h-128v-512h-128v512h-128v-512h-48h-80v640z" />
    <glyph glyph-name="n" unicode="n" horiz-adv-x="638" 
d="M0 640h384v-128h128v-512h-128v512h-256v-512h-128v640z" />
    <glyph glyph-name="o" unicode="o" horiz-adv-x="638" 
d="M0 128v384h512v-384h-384v-128h256v640h-256v-512h-128z" />
    <glyph glyph-name="p" unicode="p" horiz-adv-x="638" 
d="M0 512h128v128h256v-128h128v-384h-128v-128h-256v-256h-128v768zM384 512h-256v-384h256v384z" />
    <glyph glyph-name="q" unicode="q" horiz-adv-x="638" 
d="M0 512h128v128h256v-128h128v-768h-48h-80v256h-256v128h-128v384zM224 512h-96v-144v-240h256v384h-160z" />
    <glyph glyph-name="r" unicode="r" horiz-adv-x="512" 
d="M128 0h-128v512h128v128h256v-128h-256v-512z" />
    <glyph glyph-name="s" unicode="s" horiz-adv-x="638" 
d="M128 640h384v-128h-384v-128h256v-128h128v-128h-128v-128h-384v128h384v128h-256v128h-128v128h128v128z" />
    <glyph glyph-name="t" unicode="t" horiz-adv-x="638" 
d="M128 896h128v-256h128v-128h-128v-384h256v-128h-256v128h-128v384h-128v128h128v256z" />
    <glyph glyph-name="u" unicode="u" horiz-adv-x="638" 
d="M0 640h128v-512h256v512h128v-640h-384v128h-128v512z" />
    <glyph glyph-name="v" unicode="v" horiz-adv-x="638" 
d="M0 640h128v-512h128v128h128v384h128v-384h-128v-128h-128v-128h-128v128h-128v512z" />
    <glyph glyph-name="w" unicode="w" 
d="M0 640h128v-512h128v256h128v-256h128v512h128v-512h-128v-128h-128v128h-128v-128h-128v128h-48h-80v512z" />
    <glyph glyph-name="x" unicode="x" horiz-adv-x="638" 
d="M0 640h128v-256h256v256h128v-256h-128v-128h128v-256h-128v256h-256v-256h-128v256h128v128h-128v256z" />
    <glyph glyph-name="y" unicode="y" horiz-adv-x="638" 
d="M0 640h128v-512h256v512h128v-768h-128v-128h-256v128h256v128h-256v128h-128v512z" />
    <glyph glyph-name="z" unicode="z" horiz-adv-x="638" 
d="M0 512v128h512v-256h-128v-128h-256v-128h384v-128h-512v256h128v128h256v128h-384z" />
    <glyph glyph-name="{" unicode="{" horiz-adv-x="512" 
d="M0 512h128v144v240h128v128h256v-128h-256v-384h-128v-128h128v-384h256v-128h-256v128h-48h-80v384h-128v128z" />
    <glyph glyph-name="|" unicode="|" horiz-adv-x="256" 
d="M0 0v896h128v-896h-128z" />
    <glyph glyph-name="}" unicode="}" horiz-adv-x="638" 
d="M0 1024h256v-128h128v-384h128v-128h-128v-384h-128v-128h-256v128h256v384h128v128h-128v384h-256v128z" />
    <glyph glyph-name="~" unicode="~" horiz-adv-x="897" 
d="M0 384v128h128v128h256v-128h256v128h128v-128h-128v-128h-256v128h-256v-128h-128z" />
    <glyph glyph-name="¡" unicode="&#xa1;" horiz-adv-x="256" 
d="M0 768v128h128v-128h-128zM0 0v640h128v-640h-128z" />
    <glyph glyph-name="¢" unicode="&#xa2;" horiz-adv-x="638" 
d="M0 512h128v128h128v128h128v-128h128v-128h-384v-256h384v-48v-80h-128v-128h-128v128h-128v48v80h-128v256z" />
    <glyph glyph-name="£" unicode="&#xa3;" 
d="M0 0v128h128v256h-128v128h128v256h128v128h256v-128h128v-48v-80h-128v128h-256v-256h128v-128h-128v-256h256v-128h-512z" />
    <glyph glyph-name="¤" unicode="&#xa4;" 
d="M128 768h-128v128h128v-896h-128v128h640v-128h-128v640h128v-384h-640v384h512v256h128v-128h-512z" />
    <glyph glyph-name="¥" unicode="&#xa5;" 
d="M0 896h128v-128h128v-128h128v128h128v128h128v-128h-128v-128h-128v-128h128v-128h-128v-128h128v-128h-128v-128h-128v128h-128v128h128v128h-128v128h128v128h-128v128h-128v128z" />
    <glyph glyph-name="¦" unicode="&#xa6;" horiz-adv-x="256" 
d="M0 896h128v-384h-128v384zM0 384h128v-384h-128v384z" />
    <glyph glyph-name="§" unicode="&#xa7;" horiz-adv-x="638" 
d="M128 512v384h256v-128h-384v-128h384v-640h-256v128h384v128h-384v256h-128v-128h512v128h-384z" />
    <glyph glyph-name="¨" unicode="&#xa8;" horiz-adv-x="512" 
d="M0 768v128h128v-128h-128zM256 768v128h128v-128h-128z" />
    <glyph glyph-name="©" unicode="&#xa9;" horiz-adv-x="1024" 
d="M0 640h128v128h128v128h384v-128h128v-128h128v-384h-128v-128h-128v-128h-384v128h-128v128h-128v384zM640 768h-384v-128h-128v-384h80h48v-128h384v128h128v384h-128v80v48zM256 640h384v-128h-256v-128h256v-128h-384v384z" />
    <glyph glyph-name="ª" unicode="&#xaa;" horiz-adv-x="638" 
d="M128 768v128h160h96v-128h80h48v-512h-384v128h-128v128h128v128h256v128h-256zM128 512v-128h256v128h-256z" />
    <glyph glyph-name="«" unicode="&#xab;" 
d="M0 384h128v128h128v-128h-128v-128h128v-128h-48h-80v128h-128v128zM384 384h128v128h128v-128h-128v-128h128v-128h-128v128h-128v128z" />
    <glyph glyph-name="¬" unicode="&#xac;" horiz-adv-x="638" 
d="M0 768v128h512v-256h-128v128h-384z" />
    <glyph glyph-name="­" unicode="&#xad;" horiz-adv-x="512" 
d="M0 384v128h384v-128h-384z" />
    <glyph glyph-name="®" unicode="&#xae;" horiz-adv-x="1024" 
d="M0 640h128v128h128v128h384v-128h128v-128h128v-384h-128v-128h-128v-128h-384v128h-128v128h-128v384zM256 640h-128v-384h128v-128h384v128h128v384h-128v128h-384v-128zM256 640h384v-128h-128v-128h128v-128h-128v128h-128v-128h-128v384z" />
    <glyph glyph-name="¯" unicode="&#xaf;" horiz-adv-x="512" 
d="M0 768v128h384v-128h-384z" />
    <glyph glyph-name="°" unicode="&#xb0;" horiz-adv-x="512" 
d="M0 768h128v128h128v-128h128v-128h-128v-128h-128v128h-128v128zM256 768h-128v-128h128v128z" />
    <glyph glyph-name="±" unicode="&#xb1;" horiz-adv-x="512" 
d="M0 128v128h384v-128h-384zM0 640h128v128h128v-128h128v-128h-128v-128h-128v128h-128v128z" />
    <glyph glyph-name="²" unicode="&#xb2;" horiz-adv-x="512" 
d="M0 1024v128h384v-384h-256v-128h256v-128h-384v384h256v80v48h-256z" />
    <glyph glyph-name="³" unicode="&#xb3;" horiz-adv-x="512" 
d="M0 1024v128h384v-640h-384v128h256v128h-256v80v48h256v128h-256z" />
    <glyph glyph-name="´" unicode="&#xb4;" horiz-adv-x="385" 
d="M0 768h128v128h128v-128h-128v-128h-128v128z" />
    <glyph glyph-name="µ" unicode="&#xb5;" 
d="M128 -256h-128v896h128v-384h128v-128h128v128h128v384h128v-640h-128v128h-128v-128h-128v128h-128v-384z" />
    <glyph glyph-name="¶" unicode="&#xb6;" horiz-adv-x="512" 
d="M0 384v384h128v128h256v-896h-128v256h-128v128h-128z" />
    <glyph glyph-name="·" unicode="&#xb7;" horiz-adv-x="385" 
d="M128 512h128v-128h-128v128z" />
    <glyph glyph-name="¸" unicode="&#xb8;" horiz-adv-x="385" 
d="M0 0v128h128v-128h128v-128h-128v-128h-128v128h128v128h-128z" />
    <glyph glyph-name="¹" unicode="&#xb9;" horiz-adv-x="512" 
d="M0 896v128h128v128h128v-512h128v-128h-384v128h128v256h-128z" />
    <glyph glyph-name="º" unicode="&#xba;" horiz-adv-x="638" 
d="M0 384v384h512v-384h-384v-128h160h96v640h-256v-512h-128z" />
    <glyph glyph-name="»" unicode="&#xbb;" 
d="M0 512h128v-128h128v-128h-128v-128h-128v128h128v128h-128v128zM384 512h128v-128h128v-128h-128v-128h-128v128h128v128h-128v128z" />
    <glyph glyph-name="¼" unicode="&#xbc;" horiz-adv-x="1280" 
d="M0 640v128h128v128h128v-640h-128v384h-128zM384 0v384h256v384h-128v-768h-128zM768 640h128v-256h128v256h128v-640h-128v256h-256v384z" />
    <glyph glyph-name="½" unicode="&#xbd;" horiz-adv-x="1280" 
d="M0 640v128h128v128h128v-640h-128v384h-128zM384 0v384h256v384h-128v-768h-128zM768 512v128h384v-384h-256v-128h256v-128h-384v384h256v128h-256z" />
    <glyph glyph-name="¾" unicode="&#xbe;" horiz-adv-x="1409" 
d="M0 768v128h384v-640h-384v128h256v128h-128v128h128v128h-256zM512 0v384h256v384h-128v-768h-128zM896 640h128v-256h128v256h128v-640h-128v256h-256v384z" />
    <glyph glyph-name="¿" unicode="&#xbf;" horiz-adv-x="638" 
d="M0 256h128v128h128v128h128v-128h-128v-128h-128v-256h256v128h128v-128h-128v-128h-96h-160v48v80h-128v256zM256 768h128v-128h-128v128z" />
    <glyph glyph-name="À" unicode="&#xc0;" 
d="M128 0h-128v640h128v128h384v-128h128v-640h-128v256h-384v-256zM512 640h-384v-256h384v256zM384 1024v-128h-128v128h-128v128h128v-128h128z" />
    <glyph glyph-name="Á" unicode="&#xc1;" 
d="M128 0h-128v640h128v128h384v-128h128v-640h-128v256h-384v-256zM128 384h384v256h-384v-256zM256 896v128h128v128h128v-128h-128v-128h-128z" />
    <glyph glyph-name="Â" unicode="&#xc2;" 
d="M128 0h-128v640h128v128h384v-128h128v-640h-128v256h-384v-256zM128 640v-256h384v256h-384zM256 896h-128v128h128v128h128v-128h128v-128h-128v128h-128v-128z" />
    <glyph glyph-name="Ã" unicode="&#xc3;" 
d="M48 0h-48v240v400h128v128h384v-128h128v-640h-128v256h-384v-256h-80zM128 384h384v256h-384v-256zM128 1024h128v128h128v-128h128v128h128v-128h-128v-128h-128v128h-128v-128h-128v128z" />
    <glyph glyph-name="Ä" unicode="&#xc4;" 
d="M128 0h-128v640h128v128h384v-128h128v-640h-128v256h-384v-256zM128 384h384v256h-384v-256zM128 1024h128v-128h-128v128zM384 896v128h128v-128h-128z" />
    <glyph glyph-name="Å" unicode="&#xc5;" 
d="M256 1152v-256h-128v128h384v-128h-256v-128h-128v-128h512v-640h-128v256h-384v-256h-128v640h128v-256h384v384h-128v384h-128z" />
    <glyph glyph-name="Æ" unicode="&#xc6;" horiz-adv-x="1024" 
d="M128 0h-128v768h128v128h256v-128h128v128h384v-128h-384v-256h256v-128h-256v-256h384v-128h-512v384h-256v-384zM384 768h-256v-256h256v256z" />
    <glyph glyph-name="Ç" unicode="&#xc7;" 
d="M0 768h128v128h384v-128h128v-128h-128v128h-384v-640h384v128h128v-128h-128v-256h-128v-128h-128v128h128v128h-256v128h-128v640z" />
    <glyph glyph-name="È" unicode="&#xc8;" 
d="M640 0h-640v768h640v-128h-512v-128h384v-128h-384v-256h512v-128zM256 896v128h-128v128h128v-128h128v-128h-128z" />
    <glyph glyph-name="É" unicode="&#xc9;" 
d="M640 0h-640v768h640v-128h-512v-80v-48h384v-128h-384v-256h512v-128zM256 1024h128v128h128v-128h-128v-128h-128v128z" />
    <glyph glyph-name="Ê" unicode="&#xca;" 
d="M640 0h-640v768h640v-128h-512v-128h384v-128h-384v-256h512v-128zM128 1024h128v128h128v-128h128v-128h-128v128h-128v-128h-128v128z" />
    <glyph glyph-name="Ë" unicode="&#xcb;" 
d="M640 0h-640v896h640v-128h-512v-256h384v-128h-384v-256h512v-128zM128 1152h128v-128h-128v128zM384 1152h128v-128h-128v128z" />
    <glyph glyph-name="Ì" unicode="&#xcc;" horiz-adv-x="512" 
d="M0 0v128h128v512h-128v128h384v-128h-128v-512h128v-128h-384zM128 1024h128v-128h-128v128h-128v128h128v-128z" />
    <glyph glyph-name="Í" unicode="&#xcd;" horiz-adv-x="512" 
d="M0 128h128v512h-128v48v80h384v-128h-128v-512h128v-128h-384v128zM128 1024h128v128h128v-128h-128v-128h-128v128z" />
    <glyph glyph-name="Î" unicode="&#xce;" horiz-adv-x="512" 
d="M0 128h128v512h-128v128h384v-128h-128v-512h128v-128h-384v128zM0 1024h128v128h128v-128h128v-128h-128v128h-128v-128h-128v128z" />
    <glyph glyph-name="Ï" unicode="&#xcf;" horiz-adv-x="512" 
d="M0 128h128v640h-128v128h384v-128h-128v-640h128v-128h-384v128zM0 1152h128v-128h-128v128zM256 1152h128v-128h-128v128z" />
    <glyph glyph-name="Ð" unicode="&#xd0;" horiz-adv-x="897" 
d="M128 896h384v-128h128v-128h128v-512h-128v-128h-512v384h-128v128h128v384zM512 768h-256v-256h128v-128h-128v-256h384v512h-128v128z" />
    <glyph glyph-name="Ñ" unicode="&#xd1;" 
d="M48 0h-48v288v480h128v-128h128v-128h128v-128h128v384h128v-768h-128v256h-128v128h-128v128h-128v-512h-80zM128 1024h128v128h128v-128h128v128h128v-128h-128v-128h-128v128h-128v-128h-128v128z" />
    <glyph glyph-name="Ò" unicode="&#xd2;" 
d="M128 1024v128h128v-128h128v-128h-128v128h-128zM0 128v512h400h240v-512h-512v-128h384v768h-384v-640h-128z" />
    <glyph glyph-name="Ó" unicode="&#xd3;" 
d="M256 896v128h128v128h128v-128h-128v-128h-128zM0 128v512h640v-512h-512v-128h384v768h-384v-640h-128z" />
    <glyph glyph-name="Ô" unicode="&#xd4;" 
d="M128 1024h128v128h128v-128h128v-128h-128v128h-128v-128h-128v128zM0 128v512h640v-512h-512v-128h384v768h-384v-640h-128z" />
    <glyph glyph-name="Õ" unicode="&#xd5;" 
d="M128 1024h128v128h128v-128h128v128h128v-128h-128v-128h-128v128h-128v-128h-128v128zM0 128v512h640v-512h-512v-128h384v768h-384v-640h-128z" />
    <glyph glyph-name="Ö" unicode="&#xd6;" 
d="M128 1152h128v-128h-128v128zM384 1152h128v-128h-128v128zM0 128v640h640v-640h-512v-128h384v896h-384v-768h-128z" />
    <glyph glyph-name="×" unicode="&#xd7;" horiz-adv-x="512" 
d="M0 640h128v-128h128v128h128v-128h-128v-128h128v-128h-128v128h-128v-128h-128v128h128v128h-128v128z" />
    <glyph glyph-name="Ø" unicode="&#xd8;" 
d="M0 768h128v128h384v-128h128v-640h-128v-128h-384v128h-128v640zM384 768h-256v-512h128v384h128v128zM384 640v-384h-128v-128h256v512h-128z" />
    <glyph glyph-name="Ù" unicode="&#xd9;" 
d="M0 896h128v-768h384v768h128v-768h-128v-128h-384v128h-128v768zM384 1024v-128h-128v128h-128v128h128v-128h128z" />
    <glyph glyph-name="Ú" unicode="&#xda;" 
d="M0 896h128v-768h384v768h48h80v-768h-128v-128h-384v128h-128v768zM384 1024v256h128v-128h-256v-128h128z" />
    <glyph glyph-name="Û" unicode="&#xdb;" 
d="M0 768h128v-640h384v640h128v-640h-128v-128h-384v128h-128v640zM128 896v128h128v128h128v-128h128v-128h-128v128h-128v-128h-128z" />
    <glyph glyph-name="Ü" unicode="&#xdc;" 
d="M0 896h128v-768h384v768h128v-768h-128v-128h-384v48v80h-128v768zM128 1152h128v-128h-128v128zM384 1152h128v-128h-128v128z" />
    <glyph glyph-name="Ý" unicode="&#xdd;" 
d="M0 896h128v-384h128v-128h128v128h128v384h48h80v-384h-128v-128h-128v-384h-48h-80v384h-48h-80v128h-128v384zM256 1024h128v128h128v-128h-128v-128h-128v128z" />
    <glyph glyph-name="Þ" unicode="&#xde;" 
d="M128 0h-128v896h128v-128h384v-128h128v-384h-128v-128h-384v-128zM512 640h-384v-384h384v384z" />
    <glyph glyph-name="ß" unicode="&#xdf;" 
d="M128 0h-128v768h128v128h256v-128h128v-128h-128v-256h80h48v-128h128v-128h-128v-128h-256v128h256v128h-128v128h-128v256h128v128h-256v-768z" />
    <glyph glyph-name="à" unicode="&#xe0;" horiz-adv-x="638" 
d="M256 896h128v-128h-128v128h-128v128h128v-128zM128 640h256v-128h128v-512h-384v128h-128v128h128v128h256v128h-256v128zM384 256h-256v-128h256v128z" />
    <glyph glyph-name="á" unicode="&#xe1;" horiz-adv-x="638" 
d="M256 768v128h128v128h128v-128h-128v-128h-128zM128 640h256v-128h128v-512h-384v128h-128v128h128v128h256v128h-256v128zM384 128v128h-256v-128h256z" />
    <glyph glyph-name="â" unicode="&#xe2;" horiz-adv-x="638" 
d="M128 768v128h128v128h128v-128h128v-128h-128v128h-128v-128h-128zM128 640h256v-128h128v-512h-384v128h-128v128h128v128h256v128h-256v128zM128 256v-128h256v128h-256z" />
    <glyph glyph-name="ã" unicode="&#xe3;" horiz-adv-x="638" 
d="M0 896h128v128h128v-128h128v128h128v-128h-128v-128h-128v128h-128v-128h-128v128zM128 640h256v-128h128v-512h-384v128h-128v128h128v128h256v128h-256v128zM384 128v128h-256v-128h256z" />
    <glyph glyph-name="ä" unicode="&#xe4;" horiz-adv-x="638" 
d="M128 896h128v-128h-128v128zM384 896h128v-128h-128v128zM128 512v128h256v-128h128v-512h-384v128h-128v128h128v128h256v128h-256zM384 256h-256v-128h256v128z" />
    <glyph glyph-name="å" unicode="&#xe5;" horiz-adv-x="638" 
d="M128 0v128h-128v128h128v128h256v128h-256v128h128v128h-128v128h128v128h128v-128h128v-128h-128v-256h128v-512h-384zM384 256h-256v-128h256v128zM304 896h-48v-48v-80h128v128h-80z" />
    <glyph glyph-name="æ" unicode="&#xe6;" horiz-adv-x="1024" 
d="M0 384h384v128h-256v128h256v-128h128v128h256v-128h128v-256h-384v-128h256v-128h-256v128h-128v-128h-256v128h-128v256zM384 256h-256v-128h256v128zM768 512h-256v-128h256v128z" />
    <glyph glyph-name="ç" unicode="&#xe7;" horiz-adv-x="638" 
d="M0 512h128v128h256v-128h128v-128h-128v128h-256v-384h256v128h128v-128h-128v-256h-128v-128h-128v128h128v128h-128v128h-128v384z" />
    <glyph glyph-name="è" unicode="&#xe8;" horiz-adv-x="638" 
d="M0 512h128v128h256v-128h128v-256h-384v-128h256v-128h-256v128h-128v384zM384 512h-256v-128h256v128zM256 896h128v-128h-128v128h-128v128h128v-128z" />
    <glyph glyph-name="é" unicode="&#xe9;" horiz-adv-x="638" 
d="M0 512h128v128h256v-128h128v-256h-384v-128h256v-128h-256v128h-128v384zM384 512h-256v-128h256v128zM128 896h128v128h128v-128h-128v-128h-128v128z" />
    <glyph glyph-name="ê" unicode="&#xea;" horiz-adv-x="638" 
d="M0 512h128v128h256v-128h128v-256h-384v-128h256v-128h-256v128h-128v384zM384 512h-256v-128h256v128zM128 896h128v128h128v-128h128v-128h-128v128h-128v-128h-128v128z" />
    <glyph glyph-name="ë" unicode="&#xeb;" horiz-adv-x="638" 
d="M0 512h128v128h256v-128h128v-256h-384v-128h256v-128h-256v128h-128v384zM384 512h-256v-80v-48h256v128zM128 896h128v-128h-128v128zM384 896h128v-128h-128v128z" />
    <glyph glyph-name="ì" unicode="&#xec;" horiz-adv-x="385" 
d="M128 512h128v-512h-128v512zM128 768h128v-128h-128v128h-128v128h128v-128z" />
    <glyph glyph-name="í" unicode="&#xed;" horiz-adv-x="385" 
d="M0 512h128v-512h-128v512zM0 768h128v128h128v-128h-128v-128h-128v128z" />
    <glyph glyph-name="î" unicode="&#xee;" horiz-adv-x="512" 
d="M128 512h128v-512h-128v512zM0 768h128v128h128v-128h128v-128h-128v128h-128v-128h-128v128z" />
    <glyph glyph-name="ï" unicode="&#xef;" horiz-adv-x="512" 
d="M128 512h128v-512h-128v512zM0 768h128v-128h-128v128zM256 768h128v-128h-128v128z" />
    <glyph glyph-name="ð" unicode="&#xf0;" horiz-adv-x="638" 
d="M0 256h128v128h256v256h-128v-128h-128v128h128v128h-128v128h128v-128h128v128h128v-128h-128v-128h128v-512h-128v-128h-256v128h-128v128zM384 256h-256v-128h256v128z" />
    <glyph glyph-name="ñ" unicode="&#xf1;" horiz-adv-x="638" 
d="M0 640h384v-128h128v-512h-128v512h-256v-512h-48h-80v640zM0 896h128v128h128v-128h128v128h128v-128h-128v-128h-128v128h-128v-128h-128v128z" />
    <glyph glyph-name="ò" unicode="&#xf2;" horiz-adv-x="638" 
d="M128 896v128h128v-256h128v128h-256zM0 128v384h512v-384h-384v-128h256v640h-256v-512h-128z" />
    <glyph glyph-name="ó" unicode="&#xf3;" horiz-adv-x="638" 
d="M128 768v128h256v128h-128v-256h-128zM0 128v384h512v-384h-384v-128h256v640h-256v-512h-128z" />
    <glyph glyph-name="ô" unicode="&#xf4;" horiz-adv-x="638" 
d="M128 768v128h384v-128h-128v256h-128v-256h-128zM0 368v144h192h320v-384h-384v-128h256v640h-256v-512h-128v240z" />
    <glyph glyph-name="õ" unicode="&#xf5;" horiz-adv-x="638" 
d="M0 768v128h512v128h-128v-256h-128v256h-128v-256h-128zM0 128v384h512v-384h-128v512h-256v-640h256v128h-384z" />
    <glyph glyph-name="ö" unicode="&#xf6;" horiz-adv-x="638" 
d="M0 128v384h512v-384h-384v-128h256v640h-256v-512h-128zM128 768v128h128v-128h-128zM384 768v128h128v-128h-128z" />
    <glyph glyph-name="÷" unicode="&#xf7;" horiz-adv-x="512" 
d="M0 384v128h384v-128h-384zM128 640v128h128v-128h-128zM128 128v128h128v-128h-128z" />
    <glyph glyph-name="ø" unicode="&#xf8;" 
d="M0 512h128v128h384v-128h128v-384h-128v-128h-384v128h-128v384zM384 512h-256v-256h128v128h128v128zM512 384h-128v-128h-128v-128h256v256z" />
    <glyph glyph-name="ù" unicode="&#xf9;" horiz-adv-x="638" 
d="M0 640h128v-512h256v512h128v-512h-128v-128h-256v128h-128v512zM384 896v-128h-128v128h-128v128h128v-128h128z" />
    <glyph glyph-name="ú" unicode="&#xfa;" horiz-adv-x="638" 
d="M0 640h128v-512h256v512h128v-512h-128v-128h-256v128h-128v512zM128 768v128h128v128h128v-128h-128v-128h-128z" />
    <glyph glyph-name="û" unicode="&#xfb;" horiz-adv-x="638" 
d="M48 640h80v-512h256v512h128v-512h-128v-128h-256v128h-128v320v192h48zM128 896h128v128h128v-128h128v-128h-128v128h-128v-128h-128v128z" />
    <glyph glyph-name="ü" unicode="&#xfc;" horiz-adv-x="638" 
d="M0 640h128v-512h256v512h128v-512h-128v-128h-256v128h-128v512zM256 768h-128v128h128v-128zM384 896h128v-128h-128v128z" />
    <glyph glyph-name="ý" unicode="&#xfd;" horiz-adv-x="638" 
d="M0 512h128v-384h256v384h128v-640h-128v-128h-256v128h256v128h-256v128h-128v384zM128 768h128v128h128v-128h-128v-128h-128v48v80z" />
    <glyph glyph-name="þ" unicode="&#xfe;" horiz-adv-x="638" 
d="M128 -256h-128v1024h128v-256h256v-128h128v-256h-128v-128h-256v-256zM384 384h-256v-256h256v256z" />
    <glyph glyph-name="ÿ" unicode="&#xff;" horiz-adv-x="638" 
d="M0 640h128v-512h256v512h128v-768h-128v-128h-256v128h256v128h-256v48v80h-128v512zM128 896h128v-128h-128v128zM384 896h128v-128h-128v128z" />
    <glyph glyph-name="Ā" unicode="&#x100;" 
d="M128 0h-128v768h128v128h384v-128h128v-768h-128v256h-384v-256zM128 768v-384h384v384h-384zM128 1152h384v-128h-384v128z" />
    <glyph glyph-name="ā" unicode="&#x101;" horiz-adv-x="638" 
d="M128 896h256v-128h-256v128zM128 640h256v-128h128v-512h-384v48v80h-128v48v80h128v128h256v128h-256v48v80zM384 256h-256v-128h256v128z" />
    <glyph glyph-name="Ă" unicode="&#x102;" 
d="M128 0h-128v640h128v128h384v-128h128v-640h-128v256h-384v-256zM512 640h-384v-256h384v256zM128 896v128h-128v128h128v-128h384v128h128v-128h-128v-128h-384z" />
    <glyph glyph-name="ă" unicode="&#x103;" horiz-adv-x="638" 
d="M128 768v128h-128v128h128v-128h256v128h128v-128h-128v-128h-256zM128 512v128h256v-80v-48h128v-512h-384v128h-128v128h128v80v48h256v128h-256zM384 256h-256v-128h256v128z" />
    <glyph glyph-name="Ą" unicode="&#x104;" 
d="M128 0h-128v768h128v128h384v-128h128v-768h-128v-128h128v-128h-128v128h-128v128h128v256h-384v-256zM512 768h-384v-384h384v384z" />
    <glyph glyph-name="ą" unicode="&#x105;" horiz-adv-x="638" 
d="M0 256h128v128h256v128h-256v48v80h256v-128h128v-512h-128v-128h128v-128h-128v128h-128v128h-128v128h-128v128zM384 256h-256v-128h256v128z" />
    <glyph glyph-name="Ć" unicode="&#x106;" 
d="M128 128h-128v512h128v128h384v-128h128v-128h-128v128h-384v-512h384v128h128v-128h-128v-128h-384v128zM256 1024h128v128h128v-128h-128v-128h-128v128z" />
    <glyph glyph-name="ć" unicode="&#x107;" horiz-adv-x="638" 
d="M0 512h128v128h256v-128h128v-128h-128v128h-256v-384h256v128h128v-128h-128v-128h-256v128h-128v384zM128 896h128v128h128v-128h-128v-128h-128v128z" />
    <glyph glyph-name="Ĉ" unicode="&#x108;" 
d="M128 128h-128v512h128v128h384v-128h128v-128h-128v128h-384v-512h384v128h128v-80v-48h-128v-128h-384v128zM128 1024h128v128h128v-128h128v-128h-128v128h-128v-128h-128v128z" />
    <glyph glyph-name="ĉ" unicode="&#x109;" horiz-adv-x="638" 
d="M0 512h128v128h256v-128h128v-128h-128v128h-256v-384h256v128h128v-128h-128v-128h-256v128h-128v384zM128 896h128v128h128v-128h128v-128h-128v128h-128v-128h-128v128z" />
    <glyph glyph-name="Ċ" unicode="&#x10a;" 
d="M128 128h-128v640h128v128h384v-128h128v-128h-128v128h-384v-640h384v128h128v-128h-128v-128h-384v128zM256 1152h128v-128h-128v128z" />
    <glyph glyph-name="ċ" unicode="&#x10b;" horiz-adv-x="638" 
d="M0 512h128v128h256v-128h128v-128h-128v128h-256v-384h256v128h128v-128h-128v-128h-256v128h-128v384zM256 896h128v-128h-128v128z" />
    <glyph glyph-name="Č" unicode="&#x10c;" 
d="M128 128h-128v512h128v80v48h384v-128h128v-128h-128v128h-384v-512h384v128h128v-128h-128v-128h-384v128zM128 1152h128v-128h128v128h128v-128h-128v-128h-128v128h-128v128z" />
    <glyph glyph-name="č" unicode="&#x10d;" horiz-adv-x="638" 
d="M0 512h128v128h256v-128h128v-128h-128v128h-256v-384h256v128h128v-128h-128v-128h-256v128h-128v384zM128 1024h128v-128h128v128h128v-128h-128v-128h-128v128h-128v128z" />
    <glyph glyph-name="Ď" unicode="&#x10e;" 
d="M0 768h384v-128h128v-128h128v-384h-128v-128h-512v768zM384 640h-256v-512h384v384h-128v128zM128 1152h128v-128h128v128h128v-128h-128v-128h-128v128h-128v128z" />
    <glyph glyph-name="ď" unicode="&#x10f;" horiz-adv-x="897" 
d="M0 512h128v128h256v256h128v-768h-128v-128h-256v128h-128v384zM384 512h-256v-384h256v384zM640 896h128v-256h-128v256z" />
    <glyph glyph-name="Đ" unicode="&#x110;" horiz-adv-x="894" 
d="M128 896h384v-128h128v-128h128v-512h-128v-128h-512v384h-128v128h128v384zM512 768h-256v-256h128v-128h-128v-256h384v512h-128v128z" />
    <glyph glyph-name="đ" unicode="&#x111;" 
d="M0 384h128v128h256v128h-128v128h128v128h128v-128h128v-128h-128v-512h-128v-128h-256v128h-128v256zM384 384h-256v-256h256v256z" />
    <glyph glyph-name="Ē" unicode="&#x112;" 
d="M0 896h640v-128h-512v-256h384v-128h-384v-256h512v-128h-640v896zM128 1152h384v-128h-384v128z" />
    <glyph glyph-name="ē" unicode="&#x113;" horiz-adv-x="638" 
d="M0 512h128v128h256v-128h128v-256h-384v-128h256v-128h-256v128h-128v384zM384 512h-256v-128h256v128zM128 896h256v-128h-256v128z" />
    <glyph glyph-name="Ĕ" unicode="&#x114;" 
d="M128 1152h128v-128h256v128h128v-128h-128v-128h-256v128h-128v128zM0 0v768h640v-128h-512v-128h384v-128h-384v-256h512v-128h-640z" />
    <glyph glyph-name="ĕ" unicode="&#x115;" horiz-adv-x="638" 
d="M0 512h128v128h256v-128h128v-256h-384v-128h256v-128h-256v128h-128v384zM384 512h-256v-128h256v128zM128 768v128h-128v128h128v-128h256v128h128v-128h-128v-128h-256z" />
    <glyph glyph-name="Ė" unicode="&#x116;" 
d="M0 896h640v-128h-512v-256h384v-128h-384v-256h512v-128h-640v336v560zM256 1152h128v-128h-128v128z" />
    <glyph glyph-name="ė" unicode="&#x117;" horiz-adv-x="638" 
d="M0 512h128v128h256v-128h128v-256h-384v-128h256v-128h-256v128h-128v384zM384 512h-256v-128h256v80v48zM256 896h128v-128h-128v128z" />
    <glyph glyph-name="Ę" unicode="&#x118;" 
d="M0 896h640v-128h-512v-96v-160h384v-128h-384v-256h512v-128h-128v-128h128v-128h-128v128h-128v128h-384v896z" />
    <glyph glyph-name="ę" unicode="&#x119;" horiz-adv-x="638" 
d="M0 512h128v128h256v-128h128v-256h-384v-128h256v-128h-128v-128h128v-128h-128v128h-128v256h-128v384zM384 512h-256v-128h256v128z" />
    <glyph glyph-name="Ě" unicode="&#x11a;" 
d="M128 1152h128v-128h128v128h128v-128h-128v-128h-128v128h-128v128zM0 0v768h640v-128h-512v-128h384v-128h-384v-256h512v-128h-640z" />
    <glyph glyph-name="ě" unicode="&#x11b;" horiz-adv-x="638" 
d="M0 512h128v128h256v-128h128v-256h-384v-128h256v-128h-256v128h-128v384zM384 512h-256v-128h256v128zM128 1024h128v-128h128v128h128v-128h-128v-128h-128v128h-128v128z" />
    <glyph glyph-name="Ĝ" unicode="&#x11c;" 
d="M128 1024h128v128h128v-128h128v-128h-128v128h-128v-128h-128v128zM128 640v128h384v-128h128v-128h-128v128h-384v-512h384v128h-128v80v48h256v-256h-128v-128h-384v128h-128v512h128z" />
    <glyph glyph-name="ĝ" unicode="&#x11d;" horiz-adv-x="638" 
d="M0 512h128v128h384v-384h-128v-128h-128v-128h-128v-128h256v128h128v-128h-128v-128h-256v128h-128v128h128v256h-128v256zM224 512h-96v-96v-160h256v256h-160zM128 896h128v128h128v-128h128v-128h-128v128h-128v-128h-128v128z" />
    <glyph glyph-name="Ğ" unicode="&#x11e;" 
d="M0 1152h128v-128h384v128h128v-128h-128v-128h-384v128h-128v128zM0 640h128v128h384v-128h128v-128h-128v128h-384v-512h384v128h-128v128h256v-256h-128v-128h-384v48v80h-128v512z" />
    <glyph glyph-name="ğ" unicode="&#x11f;" horiz-adv-x="638" 
d="M0 512h128v128h384v-384h-128v-128h-128v-128h-128v-128h256v128h128v-128h-128v-128h-256v128h-128v128h128v256h-128v256zM384 512h-256v-256h256v256zM128 768v128h-128v128h128v-128h256v128h128v-128h-128v-128h-256z" />
    <glyph glyph-name="Ġ" unicode="&#x120;" 
d="M0 768h128v128h384v-128h128v-128h-128v128h-384v-640h384v256h-128v128h256v-384h-128v-128h-384v128h-128v640zM256 1152h128v-128h-128v128z" />
    <glyph glyph-name="ġ" unicode="&#x121;" horiz-adv-x="638" 
d="M0 512h128v128h384v-384h-128v-128h-128v-128h-128v-128h256v128h128v-128h-128v-128h-256v128h-128v128h128v256h-128v256zM384 512h-256v-256h256v256zM256 896h128v-128h-128v128z" />
    <glyph glyph-name="Ģ" unicode="&#x122;" 
d="M0 768h128v128h384v-128h128v-128h-128v128h-384v-640h384v256h-128v128h256v-384h-128v-128h-384v48v80h-128v640zM256 -128h128v-256h-128v256z" />
    <glyph glyph-name="ģ" unicode="&#x123;" horiz-adv-x="638" 
d="M0 512h128v128h384v-384h-128v-128h-128v-128h-128v-128h256v128h128v-128h-128v-128h-256v128h-128v128h128v256h-128v256zM384 512h-256v-256h256v256zM256 1024h128v-256h-128v256z" />
    <glyph glyph-name="Ĥ" unicode="&#x124;" 
d="M0 768h128v-256h384v256h128v-768h-128v384h-384v-384h-128v768zM128 1024h128v128h128v-128h128v-128h-128v128h-128v-128h-128v128z" />
    <glyph glyph-name="ĥ" unicode="&#x125;" horiz-adv-x="638" 
d="M0 768h128v-256h256v-128h128v-384h-128v384h-256v-384h-128v768zM128 1024h128v128h128v-128h128v-128h-128v128h-128v-128h-128v128z" />
    <glyph glyph-name="Ħ" unicode="&#x126;" horiz-adv-x="894" 
d="M128 0v640h-128v128h128v128h128v-128h256v128h128v-128h128v-128h-128v-640h-128v384h-256v-384h-48h-80zM512 640h-256v-128h256v80v48z" />
    <glyph glyph-name="ħ" unicode="&#x127;" 
d="M0 768h128v128h128v-128h128v-128h-128v-128h256v-128h128v-384h-128v384h-256v-384h-128v640h-128v128z" />
    <glyph glyph-name="Ĩ" unicode="&#x128;" horiz-adv-x="512" 
d="M0 768h384v-128h-128v-512h128v-128h-384v128h128v512h-128v48v80zM0 1024h128v128h128v-128h128v128h128v-128h-128v-128h-128v128h-128v-128h-128v128z" />
    <glyph glyph-name="ĩ" unicode="&#x129;" horiz-adv-x="512" 
d="M0 768h128v128h128v-128h128v128h128v-128h-128v-128h-128v128h-128v-128h-128v128zM128 320v192h48h80v-512h-128v320z" />
    <glyph glyph-name="Ī" unicode="&#x12a;" horiz-adv-x="512" 
d="M0 768v128h384v-128h-128v-640h128v-128h-384v128h128v640h-128zM0 1152h384v-128h-384v128z" />
    <glyph glyph-name="ī" unicode="&#x12b;" horiz-adv-x="385" 
d="M0 768h384v-128h-384v128zM176 512h80v-512h-128v320v192h48z" />
    <glyph glyph-name="Ĭ" unicode="&#x12c;" horiz-adv-x="512" 
d="M0 1152h128v-128h256v128h128v-128h-128v-128h-256v128h-128v128zM0 640v128h384v-128h-128v-512h128v-128h-384v128h128v512h-128z" />
    <glyph glyph-name="ĭ" unicode="&#x12d;" horiz-adv-x="512" 
d="M0 896h128v-128h256v128h128v-128h-128v-128h-256v128h-128v128zM128 512h128v-512h-128v512z" />
    <glyph glyph-name="Į" unicode="&#x12e;" horiz-adv-x="512" 
d="M0 768v128h384v-128h-128v-640h128v-128h-256v-128h128v-128h-128v128h-128v256h128v640h-128z" />
    <glyph glyph-name="į" unicode="&#x12f;" horiz-adv-x="382" 
d="M128 768h128v-128h-128v128zM128 512h128v-512h-128v-128h128v-128h-128v128h-128v128h128v512z" />
    <glyph glyph-name="İ" unicode="&#x130;" horiz-adv-x="512" 
d="M128 1152h128v-128h-128v128zM0 768v128h384v-128h-128v-640h128v-128h-384v128h128v640h-128z" />
    <glyph glyph-name="ı" unicode="&#x131;" horiz-adv-x="256" 
d="M0 640h128v-640h-128v640z" />
    <glyph glyph-name="Ĳ" unicode="&#x132;" horiz-adv-x="1150" 
d="M0 768v128h384v-128h-128v-640h128v-128h-384v128h128v640h-128zM512 768v128h512v-128h-128v-640h-384v-128h256v768h-256z" />
    <glyph glyph-name="ĳ" unicode="&#x133;" horiz-adv-x="512" 
d="M0 640v128h128v-128h-128zM256 640v128h128v-128h-128zM0 0v512h80h48v-512h-128zM256 -256v768h128v-640h-384v-128h256z" />
    <glyph glyph-name="Ĵ" unicode="&#x134;" horiz-adv-x="638" 
d="M128 1024h384v-128h-128v256h-128v-256h-128v128zM256 0v768h128v-640h-384v-128h256z" />
    <glyph glyph-name="ĵ" unicode="&#x135;" horiz-adv-x="512" 
d="M128 -256v768h128v-640h-384v-128h256zM0 640v128h384v-128h-128v256h-128v-256h-128z" />
    <glyph glyph-name="Ķ" unicode="&#x136;" 
d="M0 0v896h128v-384h256v128h160h96v256h-128v-896h128v384h-512v-384h-128zM256 -256v256h128v-256h-128z" />
    <glyph glyph-name="ķ" unicode="&#x137;" horiz-adv-x="638" 
d="M0 0v896h128v-512h128v128h256v128h-128v-640h128v256h-384v-256h-128zM128 -256v256h128v-256h-128z" />
    <glyph glyph-name="ĸ" unicode="&#x138;" horiz-adv-x="638" 
d="M0 400v240h48h80v-256h256v256h128v-128h-256v-384h256v-128h-128v256h-256v-256h-128v400z" />
    <glyph glyph-name="Ĺ" unicode="&#x139;" 
d="M0 0v768h128v-640h512v-128h-640zM0 896v128h256v128h-128v-256h-128z" />
    <glyph glyph-name="ĺ" unicode="&#x13a;" horiz-adv-x="256" 
d="M0 0v768h128v-768h-128zM0 896v128h256v128h-128v-256h-128z" />
    <glyph glyph-name="Ļ" unicode="&#x13b;" 
d="M0 0v896h128v-768h512v-128h-640zM256 -384v256h128v-256h-128z" />
    <glyph glyph-name="ļ" unicode="&#x13c;" horiz-adv-x="256" 
d="M0 0v896h128v-896h-128zM0 -384v256h128v-256h-128z" />
    <glyph glyph-name="Ľ" unicode="&#x13d;" 
d="M0 0v896h128v-768h512v-128h-640zM256 640v256h128v-256h-128z" />
    <glyph glyph-name="ľ" unicode="&#x13e;" horiz-adv-x="512" 
d="M0 0v896h128v-896h-128zM256 640v256h128v-256h-128z" />
    <glyph glyph-name="Ŀ" unicode="&#x13f;" 
d="M0 0v896h128v-768h512v-128h-640zM256 384v128h128v-128h-128z" />
    <glyph glyph-name="ŀ" unicode="&#x140;" horiz-adv-x="512" 
d="M0 0v896h128v-896h-80h-48zM256 384v128h128v-128h-128z" />
    <glyph glyph-name="Ł" unicode="&#x141;" horiz-adv-x="897" 
d="M128 512v384h128v-256h128v-128h-128v-384h512v-128h-640v384h-128v128h128z" />
    <glyph glyph-name="ł" unicode="&#x142;" horiz-adv-x="512" 
d="M128 512v384h128v-256h128v-128h-128v-512h-128v384h-128v128h128z" />
    <glyph glyph-name="Ń" unicode="&#x143;" 
d="M256 896v128h256v128h-128v-256h-128zM0 0v896h128v-128h128v-256h256v384h128v-896h-128v384h-128v256h-256v-640h-128z" />
    <glyph glyph-name="ń" unicode="&#x144;" horiz-adv-x="638" 
d="M0 0v640h384v-640h128v512h-384v-512h-128zM128 768v128h256v128h-128v-256h-128z" />
    <glyph glyph-name="Ņ" unicode="&#x145;" 
d="M0 0v896h128v-128h128v-256h256v384h128v-896h-128v384h-128v256h-256v-640h-128zM256 -256v256h128v-256h-128z" />
    <glyph glyph-name="ņ" unicode="&#x146;" horiz-adv-x="638" 
d="M0 0v640h384v-640h128v512h-384v-512h-128zM128 -256v256h128v-256h-128z" />
    <glyph glyph-name="Ň" unicode="&#x147;" 
d="M0 0v896h128v-128h128v-256h256v384h128v-896h-128v384h-128v256h-256v-640h-128zM128 1024v128h128v-256h128v256h128v-128h-384z" />
    <glyph glyph-name="ň" unicode="&#x148;" horiz-adv-x="638" 
d="M0 0v640h384v-640h80h48v512h-384v-512h-128zM128 896v128h128v-256h128v256h128v-128h-384z" />
    <glyph glyph-name="ŉ" unicode="&#x149;" horiz-adv-x="897" 
d="M0 384v256h128v-256h-128zM256 0v640h384v-640h128v512h-384v-512h-128z" />
    <glyph glyph-name="Ŋ" unicode="&#x14a;" 
d="M0 0v896h128v-128h128v-256h256v384h128v-1024h-256v-128h128v640h-128v256h-256v-640h-128z" />
    <glyph glyph-name="ŋ" unicode="&#x14b;" horiz-adv-x="638" 
d="M0 0v640h384v-896h-128v128h160h96v640h-384v-512h-128z" />
    <glyph glyph-name="Ō" unicode="&#x14c;" 
d="M128 1152h384v-128h-384v128zM0 128v640h640v-640h-128v768h-384v-896h384v128h-512z" />
    <glyph glyph-name="ō" unicode="&#x14d;" horiz-adv-x="638" 
d="M128 896h256v-128h-256v128zM0 368v144h192h320v-384h-128v512h-256v-640h256v128h-384v240z" />
    <glyph glyph-name="Ŏ" unicode="&#x14e;" 
d="M0 1024v128h128v-128h384v128h128v-128h-128v-128h-384v128h-128zM0 128v512h640v-512h-128v640h-384v-768h384v128h-512z" />
    <glyph glyph-name="ŏ" unicode="&#x14f;" horiz-adv-x="638" 
d="M128 768v128h-128v128h128v-128h256v128h128v-128h-128v-128h-256zM0 368v144h256h256v-384h-128v512h-256v-640h256v128h-384v240z" />
    <glyph glyph-name="Ő" unicode="&#x150;" 
d="M0 1024h128v128h128v-128h-128v-128h-128v128zM432 1024h80v128h128v-128h-128v-128h-48h-80v80v48h48zM0 128v512h640v-512h-128v640h-384v-768h384v128h-512z" />
    <glyph glyph-name="ő" unicode="&#x151;" horiz-adv-x="638" 
d="M0 896h128v128h128v-128h-128v-128h-128v128zM384 896h128v128h128v-128h-128v-128h-128v128zM0 128v384h512v-384h-128v512h-256v-640h256v128h-384z" />
    <glyph glyph-name="Œ" unicode="&#x152;" horiz-adv-x="1024" 
d="M128 128h-128v640h896v128h-384v-384h256v-128h-256v-384h384v80v48h-768v-128h256v896h-256v-768z" />
    <glyph glyph-name="œ" unicode="&#x153;" horiz-adv-x="1024" 
d="M128 128h-128v384h512v128h256v-128h128v-256h-384v-256h256v128h-640v-128h256v640h-256v-512zM512 512v-128h256v128h-256z" />
    <glyph glyph-name="Ŕ" unicode="&#x154;" 
d="M256 896v128h256v128h-128v-256h-128zM0 0v768h512v-384h128v256h-512v-256h384v-384h128v80v48h-256v128h-256v-256h-128z" />
    <glyph glyph-name="ŕ" unicode="&#x155;" horiz-adv-x="512" 
d="M0 0v512h384v128h-256v-640h-128zM128 768v128h256v128h-128v-256h-80h-48z" />
    <glyph glyph-name="Ŗ" unicode="&#x156;" 
d="M0 0v896h512v-384h128v256h-512v-256h384v-128h-128v-256h256v-128h-128v256h-256v128h-128v-384h-128zM256 -256v256h128v-256h-128z" />
    <glyph glyph-name="ŗ" unicode="&#x157;" horiz-adv-x="512" 
d="M0 0v512h384v128h-256v-640h-128zM0 -384v256h128v-256h-128z" />
    <glyph glyph-name="Ř" unicode="&#x158;" 
d="M128 1024v128h128v-256h128v256h128v-128h-384zM0 0v768h512v-384h128v256h-512v-256h384v-384h128v80v48h-256v128h-256v-256h-128z" />
    <glyph glyph-name="ř" unicode="&#x159;" horiz-adv-x="512" 
d="M0 0v512h384v128h-256v-640h-128zM0 896v128h128v-256h128v256h128v-128h-384z" />
    <glyph glyph-name="Ś" unicode="&#x15a;" 
d="M0 768h128v128h384v-128h128v-128h-128v128h-384v-256h384v-128h128v-256h-128v-128h-384v128h-128v128h128v-128h384v256h-384v128h-128v256zM384 1024v256h128v-128h-256v-128h128z" />
    <glyph glyph-name="ś" unicode="&#x15b;" horiz-adv-x="638" 
d="M128 256v384h384v-128h-512v-128h384v-384h-384v128h512v128h-384zM256 768v128h256v128h-128v-256h-128z" />
    <glyph glyph-name="Ŝ" unicode="&#x15c;" 
d="M0 768h128v128h384v-128h128v-128h-128v128h-384v-256h384v-128h128v-256h-128v-128h-384v128h-128v128h128v-128h384v256h-384v128h-128v256zM256 1280v-256h-128v128h384v-128h-128v256h-128z" />
    <glyph glyph-name="ŝ" unicode="&#x15d;" horiz-adv-x="638" 
d="M128 256v384h384v-128h-512v-128h384v-240v-144h-384v128h512v128h-384zM128 768v128h384v-128h-128v256h-128v-256h-128z" />
    <glyph glyph-name="Ş" unicode="&#x15e;" 
d="M128 384v512h384v-256h128v128h-640v-256h512v-512h-128v-384h-128v128h256v128h-256v128h-128v256h-128v-128h640v160v96h-512z" />
    <glyph glyph-name="ş" unicode="&#x15f;" horiz-adv-x="638" 
d="M128 496v144h144h240v-128h-512v-128h240h144v-384h-128v-384h-128v128h256v80v48h-256v128h-128v128h512v128h-384v240z" />
    <glyph glyph-name="Š" unicode="&#x160;" 
d="M0 768h128v128h384v-128h128v-128h-128v128h-384v-256h384v-128h128v-256h-128v-128h-384v128h-128v128h128v-128h384v256h-384v128h-128v256zM128 1152v128h128v-256h128v256h128v-128h-384z" />
    <glyph glyph-name="š" unicode="&#x161;" horiz-adv-x="638" 
d="M128 256v384h384v-80v-48h-512v-128h384v-384h-384v128h512v128h-384zM128 896v128h128v-256h128v256h128v-128h-384z" />
    <glyph glyph-name="Ţ" unicode="&#x162;" 
d="M0 768v128h640v-128h-256v-1152h-128v128h256v128h-256v896h-256z" />
    <glyph glyph-name="ţ" unicode="&#x163;" horiz-adv-x="638" 
d="M0 512v128h128v256h128v-256h128v-128h-128v-640h256v-128h-256v-128h128v384h128v128h-384v384h-128z" />
    <glyph glyph-name="Ť" unicode="&#x164;" 
d="M0 640v128h640v-128h-256v-640h-128v640h-256zM128 1024v128h128v-256h128v256h128v-128h-384z" />
    <glyph glyph-name="ť" unicode="&#x165;" horiz-adv-x="638" 
d="M128 640v256h128v-256h128v-128h-128v-512h256v128h-384v384h-128v128h128zM384 768v256h128v-256h-128z" />
    <glyph glyph-name="Ŧ" unicode="&#x166;" 
d="M0 768v128h640v-128h-256v-128h128v-128h-128v-512h-128v512h-128v128h128v128h-256z" />
    <glyph glyph-name="ŧ" unicode="&#x167;" horiz-adv-x="638" 
d="M128 768v128h128v-128h128v-128h-128v-128h128v-128h-128v-384h256v128h-384v256h-128v128h128v128h-128v128h128z" />
    <glyph glyph-name="Ũ" unicode="&#x168;" 
d="M128 1024h128v128h128v-128h128v128h128v-128h-128v-128h-128v128h-128v-128h-128v128zM0 768h128v-640h384v640h128v-640h-128v-128h-384v128h-128v640z" />
    <glyph glyph-name="ũ" unicode="&#x169;" horiz-adv-x="638" 
d="M0 640h128v-512h256v512h128v-512h-128v-128h-256v128h-128v512zM0 896h128v128h128v-128h128v128h128v-128h-128v-128h-128v128h-128v-128h-128v128z" />
    <glyph glyph-name="Ū" unicode="&#x16a;" 
d="M0 896h128v-768h384v768h128v-768h-128v-128h-384v128h-128v768zM128 1152h384v-128h-384v128z" />
    <glyph glyph-name="ū" unicode="&#x16b;" horiz-adv-x="638" 
d="M0 640h128v-512h256v512h128v-512h-128v-128h-256v128h-128v512zM128 896h256v-128h-256v128z" />
    <glyph glyph-name="Ŭ" unicode="&#x16c;" 
d="M0 1152h128v-128h384v128h128v-128h-128v-128h-384v128h-128v128zM0 768h128v-640h384v640h128v-640h-128v-128h-384v128h-128v640z" />
    <glyph glyph-name="ŭ" unicode="&#x16d;" horiz-adv-x="638" 
d="M0 512h128v-384h256v384h128v-384h-128v-128h-256v128h-128v384zM128 640v128h-128v128h128v-128h256v128h128v-128h-128v-128h-256z" />
    <glyph glyph-name="Ů" unicode="&#x16e;" 
d="M0 768h128v-640h384v640h128v-640h-128v-128h-384v128h-128v640zM128 896v128h384v-128h-256v-128h128v384h-128v-256h-128z" />
    <glyph glyph-name="ů" unicode="&#x16f;" horiz-adv-x="638" 
d="M0 512h128v-384h256v384h128v-384h-128v-128h-256v48v80h-128v384zM128 768v128h384v-128h-256v-128h128v384h-128v-256h-128z" />
    <glyph glyph-name="Ű" unicode="&#x170;" 
d="M0 1024h128v128h128v-128h-128v-128h-128v128zM0 768h128v-640h384v640h128v-640h-128v-128h-384v128h-128v640zM384 1024h128v128h128v-128h-128v-128h-128v128z" />
    <glyph glyph-name="ű" unicode="&#x171;" horiz-adv-x="638" 
d="M0 640h128v-512h256v512h128v-512h-128v-128h-256v128h-128v512zM0 768v128h128v128h128v-128h-128v-128h-128zM384 896h128v128h128v-128h-128v-128h-128v128z" />
    <glyph glyph-name="Ų" unicode="&#x172;" 
d="M0 896h128v-768h384v768h128v-768h-128v-256h128v-128h-128v128h-128v128h-256v128h-128v768z" />
    <glyph glyph-name="ų" unicode="&#x173;" horiz-adv-x="638" 
d="M0 640h128v-512h256v512h128v-512h-128v-256h128v-128h-128v128h-128v128h-128v128h-128v512z" />
    <glyph glyph-name="Ŵ" unicode="&#x174;" horiz-adv-x="1024" 
d="M0 896h128v-768h128v128h128v256h128v-256h128v-128h128v768h128v-768h-128v-128h-128v128h-128v128h-128v-128h-128v-128h-128v128h-128v768zM256 896v128h128v128h128v-128h128v-128h-128v128h-128v-128h-128z" />
    <glyph glyph-name="ŵ" unicode="&#x175;" 
d="M0 512h128v-384h128v256h128v-256h128v384h128v-384h-128v-128h-128v128h-128v-128h-128v128h-128v384zM128 768h128v128h128v-128h128v-128h-128v128h-128v-128h-128v128z" />
    <glyph glyph-name="Ŷ" unicode="&#x176;" 
d="M0 768h128v-256h128v-128h128v128h128v256h128v-256h-128v-128h-128v-384h-128v384h-128v128h-128v256zM128 1024h128v128h128v-128h128v-128h-128v128h-128v-128h-128v128z" />
    <glyph glyph-name="ŷ" unicode="&#x177;" horiz-adv-x="638" 
d="M0 512h128v-384h256v384h128v-640h-128v-128h-256v128h256v128h-256v128h-128v384zM128 768h128v128h128v-128h128v-128h-128v128h-128v-128h-128v128z" />
    <glyph glyph-name="Ÿ" unicode="&#x178;" 
d="M0 896h128v-384h128v-128h128v128h128v384h128v-384h-128v-128h-128v-384h-128v384h-128v128h-128v384zM128 1152h128v-128h-128v128zM432 1152h80v-128h-128v80v48h48z" />
    <glyph glyph-name="Ź" unicode="&#x179;" 
d="M0 640v128h640v-256h-128v-128h-256v-128h-128v-128h512v-128h-640v256h128v128h128v128h256v128h-512zM256 1024h128v128h128v-128h-128v-128h-128v128z" />
    <glyph glyph-name="ź" unicode="&#x17a;" horiz-adv-x="638" 
d="M0 256h128v128h256v128h-384v128h512v-256h-128v-128h-256v-128h384v-128h-512v256zM128 896h128v128h128v-128h-128v-128h-128v128z" />
    <glyph glyph-name="Ż" unicode="&#x17b;" 
d="M0 768v128h640v-256h-128v-128h-128v-128h-128v-128h-128v-128h512v-128h-640v256h128v128h128v128h128v128h128v128h-512zM256 1152h128v-128h-128v128z" />
    <glyph glyph-name="ż" unicode="&#x17c;" horiz-adv-x="638" 
d="M0 512v128h320h192v-256h-128v-128h-256v-128h384v-128h-512v256h128v128h256v128h-384zM256 896h128v-128h-128v128z" />
    <glyph glyph-name="Ž" unicode="&#x17d;" 
d="M0 640v128h640v-256h-128v-128h-256v-128h-128v-128h512v-128h-640v256h128v128h128v128h256v128h-512zM256 896v128h-128v128h128v-128h128v128h128v-128h-128v-128h-128z" />
    <glyph glyph-name="ž" unicode="&#x17e;" horiz-adv-x="638" 
d="M0 0v256h128v128h256v128h-384v128h512v-256h-128v-128h-256v-128h384v-128h-512zM128 1024h128v-128h128v128h128v-128h-128v-128h-128v128h-128v128z" />
    <glyph glyph-name="ſ" unicode="&#x17f;" horiz-adv-x="512" 
d="M0 0v768h384v128h-256v-896h-128z" />
    <glyph glyph-name="ƀ" unicode="&#x180;" 
d="M128 848v48h48h80v-128h128v-128h-128v-128h256v-384h128v256h-384v-384h256v128h-384v512h-128v128h128v80z" />
    <glyph glyph-name="Ɓ" unicode="&#x181;" horiz-adv-x="1024" 
d="M128 640v256h512v-128h-256v-256h256v256h128v-640h128v256h-512v-256h384v-128h-512v768h-256v-128h128z" />
    <glyph glyph-name="Ƃ" unicode="&#x182;" 
d="M0 0v896h512v-128h-384v-256h384v-384h128v256h-512v-256h384v-80v-48h-512z" />
    <glyph glyph-name="ƃ" unicode="&#x183;" horiz-adv-x="638" 
d="M0 128v768h384v-128h-256v-256h256v-384h128v256h-384v-384h256v128h-384z" />
    <glyph glyph-name="Ƅ" unicode="&#x184;" horiz-adv-x="897" 
d="M0 640v128h128v128h128v-384h384v-384h128v256h-512v-256h384v-128h-512v640h-128z" />
    <glyph glyph-name="ƅ" unicode="&#x185;" 
d="M0 640v128h128v128h128v-384h256v-384h128v256h-384v-384h256v128h-384v512h-128z" />
    <glyph glyph-name="Ɔ" unicode="&#x186;" 
d="M128 896v-384h-128v256h640v-640h-640v256h128v-384h384v896h-384z" />
    <glyph glyph-name="Ƈ" unicode="&#x187;" horiz-adv-x="897" 
d="M128 896v-896h384v384h128v-256h-640v640h768v128h-128v-384h-128v384h-384z" />
    <glyph glyph-name="ƈ" unicode="&#x188;" 
d="M128 0v640h256v-256h128v256h128v-128h-640v-384h512v128h-128v-256h-256z" />
    <glyph glyph-name="Ɖ" unicode="&#x189;" horiz-adv-x="894" 
d="M128 512v384h512v-768h128v640h-512v-256h128v-128h-128v-256h384v-128h-512v384h-128v128h128z" />
    <glyph glyph-name="Ɗ" unicode="&#x18a;" horiz-adv-x="1024" 
d="M128 640v256h640v-768h128v640h-512v-640h384v-128h-512v768h-256v-128h128z" />
    <glyph glyph-name="Ƌ" unicode="&#x18b;" 
d="M128 768v128h512v-896h-512v384h-128v-256h512v256h-384v128h384v256h-384z" />
    <glyph glyph-name="ƌ" unicode="&#x18c;" horiz-adv-x="638" 
d="M128 768v128h384v-480v-288h-512v256h128v-384h256v384h-256v128h256v256h-256z" />
    <glyph glyph-name="ƍ" unicode="&#x18d;" horiz-adv-x="638" 
d="M128 0v640h256v-512h128v384h-512v-384h384v-256h-256v-128h384v256h-384z" />
    <glyph glyph-name="Ǝ" unicode="&#x18e;" 
d="M0 768v128h640v-896h-640v128h512v256h-384v128h384v256h-512z" />
    <glyph glyph-name="Ə" unicode="&#x18f;" 
d="M128 896v-128h512v-640h-128v256h-384v-384h384v128h-512v384h512v384h-384z" />
    <glyph glyph-name="Ɛ" unicode="&#x190;" 
d="M128 0v896h384v-256h128v128h-640v-256h384v-128h-384v-256h640v128h-128v-256h-384z" />
    <glyph glyph-name="Ƒ" unicode="&#x191;" horiz-adv-x="765" 
d="M128 -256v1152h512v-128h-384v-256h256v-128h-256v-512h-256v-128h128z" />
    <glyph glyph-name="ƒ" unicode="&#x192;" horiz-adv-x="638" 
d="M256 896v-384h128v-128h-128v-512h-256v-128h128v240v400h-128v128h128v256h384v128h-256z" />
    <glyph glyph-name="Ɠ" unicode="&#x193;" horiz-adv-x="897" 
d="M128 896v-896h384v384h-128v128h256v-384h-640v640h768v128h-128v-256h-128v256h-384z" />
    <glyph glyph-name="Ɣ" unicode="&#x194;" 
d="M0 384v512h128v-640h384v640h128v-512h-256v-640h-128v256h-128v-128h384v128h-256v384h-256z" />
    <glyph glyph-name="ƕ" unicode="&#x195;" horiz-adv-x="1024" 
d="M0 0v896h128v-256h256v-512h512v512h-128v-640h-256v512h-384v-512h-128z" />
    <glyph glyph-name="Ɩ" unicode="&#x196;" horiz-adv-x="256" 
d="M0 0v896h128v-896h-128z" />
    <glyph glyph-name="Ɨ" unicode="&#x197;" horiz-adv-x="512" 
d="M128 512v384h128v-384h128v-128h-128v-384h-128v384h-128v128h128z" />
    <glyph glyph-name="Ƙ" unicode="&#x198;" 
d="M128 752v-240h256v128h256v256h-128v-896h128v384h-512v-384h-128v768h256v128h-80h-48v-144z" />
    <glyph glyph-name="ƙ" unicode="&#x199;" horiz-adv-x="638" 
d="M128 896v-512h128v128h256v128h-128v-640h128v256h-384v-256h-128v768h256v128h-128z" />
    <glyph glyph-name="ƚ" unicode="&#x19a;" horiz-adv-x="512" 
d="M128 512v384h128v-384h128v-128h-128v-384h-128v384h-128v128h128z" />
    <glyph glyph-name="ƛ" unicode="&#x19b;" horiz-adv-x="638" 
d="M128 768v128h128v-384h-128v128h384v-640h-128v256h-256v-256h-128v128h256v256h128v512h128v-128h-384z" />
    <glyph glyph-name="Ɯ" unicode="&#x19c;" 
d="M0 128v768h128v-896h128v896h128v-896h256v896h-128v-768h-512z" />
    <glyph glyph-name="Ɲ" unicode="&#x19d;" horiz-adv-x="894" 
d="M128 464v432h48h80v-128h128v-256h256v384h128v-896h-128v384h-128v256h-256v-768h-256v-128h128v720z" />
    <glyph glyph-name="ƞ" unicode="&#x19e;" horiz-adv-x="638" 
d="M0 0v640h384v-896h128v768h-384v-512h-128z" />
    <glyph glyph-name="Ɵ" unicode="&#x19f;" 
d="M128 768v128h384v-384h-384v256h-128v-640h128v256h384v-384h-384v128h512v640h-512z" />
    <glyph glyph-name="Ơ" unicode="&#x1a0;" horiz-adv-x="897" 
d="M128 896v-896h384v128h-512v640h640v128h128v-256h-128v-512h-128v768h-384z" />
    <glyph glyph-name="ơ" unicode="&#x1a1;" 
d="M128 640v-640h256v128h-384v384h512v128h128v-256h-128v-256h-128v192v320h-256z" />
    <glyph glyph-name="Ƣ" unicode="&#x1a2;" horiz-adv-x="897" 
d="M128 768v128h384v-128h128v128h128v-1024h-128v768h-128v-640h-384v768h-128v-640h384v640h-256z" />
    <glyph glyph-name="ƣ" unicode="&#x1a3;" 
d="M128 512v128h512v-768h-128v640h-128v-512h-256v512h-128v-384h256v384h-128z" />
    <glyph glyph-name="Ƥ" unicode="&#x1a4;" horiz-adv-x="1024" 
d="M128 640v256h640v-512h80h48v384h-512v-240v-144h384v-128h-384v-256h-128v768h-256v-128h128z" />
    <glyph glyph-name="ƥ" unicode="&#x1a5;" horiz-adv-x="638" 
d="M128 896v-256h256v-128h-256v-384h384v384h-128v-512h-256v-256h-128v1024h256v128h-128z" />
    <glyph glyph-name="Ʀ" unicode="&#x1a6;" 
d="M0 0v896h128v-128h384v-512h128v384h-512v-384h384v-128h-128v-256h256v-128h-128v256h-256v128h-128v-128h-128z" />
    <glyph glyph-name="Ƨ" unicode="&#x1a7;" 
d="M128 640v256h384v-512h-512v-256h640v128h-128v-256h-384v512h512v256h-640v-128h128z" />
    <glyph glyph-name="ƨ" unicode="&#x1a8;" horiz-adv-x="638" 
d="M0 512v128h384v-384h-384v-128h512v-128h-384v384h384v128h-512z" />
    <glyph glyph-name="Ʃ" unicode="&#x1a9;" 
d="M0 640v256h640v-128h-512v-256h256v-128h-256v-256h512v-128h-640v256h256v384h-256z" />
    <glyph glyph-name="ƪ" unicode="&#x1aa;" horiz-adv-x="638" 
d="M128 640v256h128v-256h-128v-128h128v-640h256v-128h-128v1024h-384v-128h128z" />
    <glyph glyph-name="ƫ" unicode="&#x1ab;" 
d="M128 640v256h128v-256h128v-128h-128v-512h384v-128h-256v-128h128v384h-384v384h-128v128h124h4z" />
    <glyph glyph-name="Ƭ" unicode="&#x1ac;" 
d="M128 640v256h512v-128h-256v-768h-128v480v288h-256v-128h128z" />
    <glyph glyph-name="ƭ" unicode="&#x1ad;" horiz-adv-x="638" 
d="M256 896v-256h128v-128h-128v-512h128v128h-256v384h-128v128h128v128h384v128h-256z" />
    <glyph glyph-name="Ʈ" unicode="&#x1ae;" 
d="M0 768v128h640v-128h-256v-768h128v128h-256v640h-256z" />
    <glyph glyph-name="Ư" unicode="&#x1af;" horiz-adv-x="897" 
d="M0 128v768h128v-896h256v896h128v-128h256v128h-128v-256h-128v-512h-512z" />
    <glyph glyph-name="ư" unicode="&#x1b0;" horiz-adv-x="897" 
d="M0 128v512h128v-640h256v640h128v-128h256v128h-128v-256h-128v-256h-512z" />
    <glyph glyph-name="Ʊ" unicode="&#x1b1;" 
d="M0 768v128h256v-256h-256v-512h640v512h-256v256h256v-128h-128v-768h-384v768h-128z" />
    <glyph glyph-name="Ʋ" unicode="&#x1b2;" 
d="M0 128v768h128v-896h384v896h-128v-128h256v-640h-640z" />
    <glyph glyph-name="Ƴ" unicode="&#x1b3;" horiz-adv-x="1024" 
d="M0 512v384h128v-512h384v384h384v-128h-128v256h-128v-384h-256v-512h-128v512h-256z" />
    <glyph glyph-name="ƴ" unicode="&#x1b4;" horiz-adv-x="897" 
d="M0 128v512h128v-640h256v-256h-256v128h384v768h128v-256h128v128h-384v-384h-384z" />
    <glyph glyph-name="Ƶ" unicode="&#x1b5;" 
d="M0 768v128h640v-256h-256v-128h-384v-128h128v-256h512v-128h-640v256h256v128h384v128h-128v256h-512z" />
    <glyph glyph-name="ƶ" unicode="&#x1b6;" 
d="M128 512v128h384v-256h128v-128h-384v-128h256v-128h-384v256h-128v128h384v128h-256z" />
    <glyph glyph-name="Ʒ" unicode="&#x1b7;" 
d="M0 768v128h640v-128h-128v-128h-256v-384h384v-384h-640v128h128v-256h384v640h-384v128h256v256h-384z" />
    <glyph glyph-name="Ƹ" unicode="&#x1b8;" 
d="M0 768v128h640v-128h-384v-256h256v-128h-384v-640h384v256h128v-128h-640v384h384v384h-256v128h-128z" />
    <glyph glyph-name="ƹ" unicode="&#x1b9;" horiz-adv-x="638" 
d="M0 512v256h512v-128h-384v-256h256v-128h-256v-512h256v256h128v-128h-512v256h256v384h-256z" />
    <glyph glyph-name="ƺ" unicode="&#x1ba;" horiz-adv-x="638" 
d="M0 640v128h512v-128h-128v-128h-256v-128h-128v-128h512v-128h-384v-384h256v128h-384v128h384v384h-128v256h-256z" />
    <glyph glyph-name="ƻ" unicode="&#x1bb;" horiz-adv-x="638" 
d="M128 640v256h256v-384h128v-128h-256v-128h-256v-256h512v128h-384v256h-128v128h256v128h256v128h-512v-128h128z" />
    <glyph glyph-name="Ƽ" unicode="&#x1bc;" horiz-adv-x="638" 
d="M0 768v128h512v-128h-256v-256h128v-512h-384v128h512v256h-384v384h-128z" />
    <glyph glyph-name="ƽ" unicode="&#x1bd;" horiz-adv-x="638" 
d="M0 512v128h512v-128h-256v-128h128v-384h-384v128h512v128h-384v256h-128z" />
    <glyph glyph-name="ƾ" unicode="&#x1be;" horiz-adv-x="638" 
d="M128 768v128h128v-128h128v-128h-128v-256h256v-256h-512v128h128v-256h256v512h-256v128h-128v128h128z" />
    <glyph glyph-name="ƿ" unicode="&#x1bf;" horiz-adv-x="638" 
d="M0 -256v896h384v-512h128v384h-384v-512h256v128h-128v-256h-128v-128h-80h-48z" />
    <glyph glyph-name="ǀ" unicode="&#x1c0;" horiz-adv-x="256" 
d="M0 0v896h128v-896h-128z" />
    <glyph glyph-name="ǁ" unicode="&#x1c1;" horiz-adv-x="512" 
d="M0 0v896h128v-896h-128zM256 0v896h128v-896h-128z" />
    <glyph glyph-name="ǂ" unicode="&#x1c2;" 
d="M256 640v256h128v-256h256v-128h-256v-128h256v-128h-256v-256h-128v256h-256v128h256v128h-256v128h256z" />
    <glyph glyph-name="ǃ" unicode="&#x1c3;" horiz-adv-x="256" 
d="M0 256v640h128v-640h-128zM0 0v128h128v-128h-128z" />
    <glyph glyph-name="Ǆ" unicode="&#x1c4;" horiz-adv-x="1536" 
d="M0 0v896h512v-768h128v640h-512v-640h384v-128h-512zM768 768v128h640v-256h-256v-256h-256v-256h512v-128h-640v256h256v256h256v256h-512zM896 1152v128h128v-256h128v256h128v-128h-384z" />
    <glyph glyph-name="ǅ" unicode="&#x1c5;" horiz-adv-x="1409" 
d="M0 0v896h512v-768h128v640h-512v-640h384v-128h-512zM768 512v128h512v-256h-384v-256h384v-128h-512v256h384v256h-384zM896 896v128h128v-256h128v256h128v-128h-384z" />
    <glyph glyph-name="ǆ" unicode="&#x1c6;" horiz-adv-x="1282" 
d="M640 512v128h512v-256h-384v-256h384v-128h-512v256h384v256h-384zM768 896v128h128v-256h128v256h128v-128h-384zM384 640v256h128v-768h-384v-128h256v512h-384v-384h128v512h256z" />
    <glyph glyph-name="Ǉ" unicode="&#x1c7;" horiz-adv-x="1150" 
d="M0 0v896h128v-768h384v-128h-512zM512 768v128h512v-128h-128v-640h-256v-128h128v768h-256z" />
    <glyph glyph-name="ǈ" unicode="&#x1c8;" horiz-adv-x="897" 
d="M0 0v896h128v-768h384v-128h-512zM640 -256v768h128v-640h-384v-128h256zM640 640v128h128v-128h-128z" />
    <glyph glyph-name="ǉ" unicode="&#x1c9;" horiz-adv-x="512" 
d="M256 -256v768h128v-640h-384v-128h256zM256 640v128h128v-128h-128zM0 0v896h128v-896h-128z" />
    <glyph glyph-name="Ǌ" unicode="&#x1ca;" horiz-adv-x="1409" 
d="M0 0v896h128v-128h128v-256h256v384h128v-896h-128v384h-128v256h-256v-640h-128zM768 848v48h192h320v-128h-128v-640h-384v-128h256v768h-256v80z" />
    <glyph glyph-name="ǋ" unicode="&#x1cb;" horiz-adv-x="1024" 
d="M0 0v896h128v-128h80h48v-256h256v384h128v-896h-128v384h-128v256h-256v-640h-128zM768 640v128h128v-128h-128zM768 -256v768h128v-640h-384v-128h256z" />
    <glyph glyph-name="ǌ" unicode="&#x1cc;" horiz-adv-x="897" 
d="M640 -256v768h128v-640h-384v-128h256zM640 640v128h128v-128h-128zM0 0v640h384v-640h128v512h-384v-512h-128z" />
    <glyph glyph-name="Ǎ" unicode="&#x1cd;" 
d="M128 1024v128h128v-128h128v128h128v-128h-128v-128h-128v128h-128zM128 640v128h384v-128h128v-640h-128v160v96h-384v-256h-128v640h128zM128 640v-256h384v256h-384z" />
    <glyph glyph-name="ǎ" unicode="&#x1ce;" horiz-adv-x="638" 
d="M128 512v128h256v-128h128v-512h-384v128h-128v128h128v128h256v128h-256zM128 256v-128h256v128h-256zM128 896v128h128v-128h128v128h128v-128h-128v-128h-128v128h-128z" />
    <glyph glyph-name="Ǐ" unicode="&#x1cf;" horiz-adv-x="512" 
d="M0 1104v48h48h80v-128h128v128h128v-128h-128v-128h-128v128h-128v80zM0 640v128h384v-128h-128v-512h128v-128h-384v128h128v512h-128z" />
    <glyph glyph-name="ǐ" unicode="&#x1d0;" horiz-adv-x="512" 
d="M128 0v512h128v-512h-128zM0 768v128h128v-128h128v128h128v-128h-128v-128h-128v128h-128z" />
    <glyph glyph-name="Ǒ" unicode="&#x1d1;" 
d="M128 1024v128h128v-128h128v128h128v-128h-128v-128h-128v128h-128zM0 128v512h640v-512h-128v640h-384v-768h384v128h-512z" />
    <glyph glyph-name="ǒ" unicode="&#x1d2;" horiz-adv-x="638" 
d="M256 896h-128v128h128v-128h128v128h128v-128h-128v-128h-128v128zM0 128v384h512v-384h-128v512h-256v-640h256v128h-384z" />
    <glyph glyph-name="Ǔ" unicode="&#x1d3;" 
d="M0 128v768h128v-768h384v768h128v-768h-128v-128h-384v128h-128zM128 1024v128h128v-128h128v128h128v-128h-128v-128h-128v128h-128z" />
    <glyph glyph-name="ǔ" unicode="&#x1d4;" horiz-adv-x="638" 
d="M0 448v192h48h80v-512h256v512h128v-512h-128v-128h-256v128h-128v320zM128 896v128h128v-128h128v128h128v-128h-128v-128h-128v128h-128z" />
    <glyph glyph-name="Ǖ" unicode="&#x1d5;" 
d="M0 128v640h128v-640h384v640h128v-640h-128v-128h-384v128h-128zM128 896v128h128v-128h-128zM384 896v128h128v-128h-128zM128 1152v128h384v-128h-384z" />
    <glyph glyph-name="ǖ" unicode="&#x1d6;" horiz-adv-x="638" 
d="M0 448v192h48h80v-512h256v512h128v-512h-128v-128h-256v128h-128v320zM0 768v128h128v-128h-128zM384 768v128h128v-128h-128zM128 1024v128h256v-128h-256z" />
    <glyph glyph-name="Ǘ" unicode="&#x1d7;" 
d="M0 128v640h128v-640h384v640h128v-640h-128v-128h-384v128h-128zM128 896v128h128v-128h-128zM384 896v128h128v-128h-128zM384 1152v256h128v-128h-256v-128h128z" />
    <glyph glyph-name="ǘ" unicode="&#x1d8;" horiz-adv-x="638" 
d="M0 448v192h48h80v-512h256v512h128v-512h-128v-128h-256v128h-128v320zM0 768v128h128v-128h-128zM384 768v128h128v-128h-128zM256 1024v256h128v-128h-256v-128h128z" />
    <glyph glyph-name="Ǚ" unicode="&#x1d9;" 
d="M0 128v640h128v-640h384v640h128v-640h-128v-128h-384v128h-128zM128 896v128h128v-128h-128zM384 896v128h128v-128h-128zM128 1360v48h48h80v-256h128v256h128v-128h-384v80z" />
    <glyph glyph-name="ǚ" unicode="&#x1da;" horiz-adv-x="638" 
d="M0 448v192h48h80v-512h256v512h128v-512h-128v-128h-256v128h-128v320zM0 768v128h128v-128h-128zM384 768v128h128v-128h-128zM128 1152v128h128v-256h128v256h128v-128h-384z" />
    <glyph glyph-name="Ǜ" unicode="&#x1db;" 
d="M0 128v640h128v-640h384v640h128v-640h-128v-128h-384v128h-128zM128 896v128h128v-128h-128zM384 896v128h128v-128h-128zM128 1280v128h128v-256h128v128h-256z" />
    <glyph glyph-name="ǜ" unicode="&#x1dc;" horiz-adv-x="638" 
d="M0 448v192h48h80v-512h256v512h128v-512h-128v-128h-256v128h-128v320zM0 768v128h128v-128h-128zM384 768v128h128v-128h-128zM128 1152v128h128v-256h128v128h-256z" />
    <glyph glyph-name="ǝ" unicode="&#x1dd;" horiz-adv-x="638" 
d="M128 640v-128h384v-384h-128v128h-256v-256h256v128h-384v256h384v256h-256z" />
    <glyph glyph-name="Ǟ" unicode="&#x1de;" 
d="M128 0h-128v640h128v128h384v-128h128v-640h-128v256h-384v-256zM512 640h-384v-256h384v256zM128 896v128h128v-128h-128zM384 896v128h128v-128h-128zM128 1152v128h384v-128h-384z" />
    <glyph glyph-name="ǟ" unicode="&#x1df;" horiz-adv-x="638" 
d="M128 512v128h256v-128h128v-512h-384v128h-128v128h128v128h256v128h-256zM128 256v-128h256v128h-256zM128 768v128h128v-128h-128zM384 768v128h128v-128h-128zM128 1024v128h384v-128h-384z" />
    <glyph glyph-name="Ǡ" unicode="&#x1e0;" 
d="M128 0h-128v640h128v128h384v-128h128v-640h-128v256h-384v-256zM512 640h-384v-256h384v256zM256 896v128h128v-128h-128zM128 1152v128h384v-128h-384z" />
    <glyph glyph-name="ǡ" unicode="&#x1e1;" horiz-adv-x="638" 
d="M128 512v128h256v-128h128v-512h-384v128h-128v128h128v128h256v128h-256zM128 256v-128h256v128h-256zM256 848v48h48h80v-128h-128v80zM128 1024v128h384v-128h-384z" />
    <glyph glyph-name="Ǣ" unicode="&#x1e2;" horiz-adv-x="1024" 
d="M128 0h-128v768h128v128h256v-128h128v128h384v-128h-384v-256h256v-128h-256v-256h384v-128h-512v384h-256v-384zM384 768h-256v-256h256v256zM256 1024v128h384v-128h-384z" />
    <glyph glyph-name="ǣ" unicode="&#x1e3;" horiz-adv-x="1024" 
d="M0 384h384v128h-256v128h256v-128h128v128h256v-128h128v-256h-384v-128h256v-128h-256v128h-128v-128h-256v128h-128v256zM384 256h-256v-128h256v128zM768 512h-256v-128h256v128zM256 768v128h384v-128h-384z" />
    <glyph glyph-name="Ǥ" unicode="&#x1e4;" horiz-adv-x="897" 
d="M128 896v-896h384v256h-128v128h128v128h-128v128h256v-256h128v-128h-128v-128h-640v640h640v128h-512z" />
    <glyph glyph-name="ǥ" unicode="&#x1e5;" horiz-adv-x="638" 
d="M128 640v-256h-128v128h384v-256h-128v-128h128v-128h-128v-128h-256v-128h384v-128h-256v384h-128v128h128v256h384v256h-384z" />
    <glyph glyph-name="Ǧ" unicode="&#x1e6;" 
d="M0 768h128v128h384v-128h128v-128h-128v128h-384v-640h384v256h-128v128h256v-384h-128v-128h-384v48v80h-128v640zM128 1152v128h128v-256h128v256h128v-128h-384z" />
    <glyph glyph-name="ǧ" unicode="&#x1e7;" horiz-adv-x="638" 
d="M0 512h128v128h384v-384h-128v-128h-128v-128h-128v-128h256v128h128v-128h-128v-128h-256v128h-128v128h128v256h-128v256zM384 512h-256v-256h256v256zM128 896v128h128v-256h128v256h128v-128h-384z" />
    <glyph glyph-name="Ǩ" unicode="&#x1e8;" 
d="M0 0v896h128v-384h256v128h160h96v256h-128v-896h128v384h-512v-384h-128zM128 1024v128h128v-256h128v256h128v-128h-384z" />
    <glyph glyph-name="ǩ" unicode="&#x1e9;" horiz-adv-x="638" 
d="M0 0v896h128v-512h128v128h256v128h-128v-640h128v256h-384v-256h-128zM128 1104v48h48h80v-256h128v256h128v-128h-384v80z" />
    <glyph glyph-name="Ǫ" unicode="&#x1ea;" 
d="M128 896v-128h512v-640h-640v640h128v-768h128v-384h128v128h-256v128h256v48v80h128v896h-384z" />
    <glyph glyph-name="ǫ" unicode="&#x1eb;" horiz-adv-x="638" 
d="M128 640v-128h384v-384h-512v384h128v-512h128v-384h128v48v80h-256v128h256v768h-256z" />
    <glyph glyph-name="Ǭ" unicode="&#x1ec;" 
d="M128 896v-128h512v-640h-640v640h128v-768h128v-384h128v128h-256v128h256v48v80h128v896h-384zM128 1104v48h144h240v-128h-384v80z" />
    <glyph glyph-name="ǭ" unicode="&#x1ed;" horiz-adv-x="638" 
d="M128 640v-128h384v-384h-512v384h128v-512h128v-384h128v48v80h-256v128h256v768h-256zM128 768v128h256v-128h-256z" />
    <glyph glyph-name="Ǯ" unicode="&#x1ee;" 
d="M128 768v128h512v-256h-256v-256h128v-640h-384v256h-128v-128h640v384h-384v256h256v256h-384zM128 1152v128h128v-256h128v256h128v-128h-384z" />
    <glyph glyph-name="ǯ" unicode="&#x1ef;" horiz-adv-x="638" 
d="M128 512v128h384v-256h-256v-128h256v-384h-512v128h128v-256h256v768h-256zM128 896v128h128v-256h128v256h128v-128h-384z" />
    <glyph glyph-name="ǰ" unicode="&#x1f0;" horiz-adv-x="512" 
d="M128 -256v768h128v-640h-384v-128h256zM0 768v128h128v-256h128v256h128v-128h-384z" />
    <glyph glyph-name="Ǳ" unicode="&#x1f1;" horiz-adv-x="1536" 
d="M0 0v896h512v-768h128v640h-512v-640h384v-128h-512zM768 768v128h640v-256h-256v-256h-256v-256h512v-128h-640v256h256v256h256v256h-512z" />
    <glyph glyph-name="ǲ" unicode="&#x1f2;" horiz-adv-x="1409" 
d="M0 0v896h512v-768h128v640h-512v-640h384v-128h-512zM768 512v128h512v-256h-384v-256h384v-128h-512v256h384v256h-384z" />
    <glyph glyph-name="ǳ" unicode="&#x1f3;" horiz-adv-x="1282" 
d="M640 512v128h512v-256h-384v-256h384v-128h-512v256h384v256h-384zM384 640v256h128v-896h-384v512h-128v-384h384v384h-256v128h256z" />
    <glyph glyph-name="Ǵ" unicode="&#x1f4;" 
d="M0 768h128v128h384v-128h128v-128h-128v128h-384v-640h384v256h-128v128h256v-384h-128v-128h-384v48v80h-128v640zM384 1024v256h128v-128h-256v-128h128z" />
    <glyph glyph-name="ǵ" unicode="&#x1f5;" horiz-adv-x="638" 
d="M0 512h128v128h384v-384h-128v-128h-128v-128h-128v-128h256v128h128v-128h-128v-128h-256v128h-128v128h128v256h-128v256zM384 512h-256v-256h256v256zM256 768v256h128v-128h-256v-128h128z" />
    <glyph glyph-name="Ƕ" unicode="&#x1f6;" horiz-adv-x="1150" 
d="M0 0v896h128v-384h384v384h128v-896h256v512h128v-384h-512v256h-384v-384h-128z" />
    <glyph glyph-name="Ƿ" unicode="&#x1f7;" 
d="M0 -256v1152h512v-640h128v512h-512v-768h256v256h128v-128h-256v-256h-128v-128h-128z" />
    <glyph glyph-name="Ǹ" unicode="&#x1f8;" 
d="M0 0v896h128v-128h128v-256h256v384h128v-896h-128v384h-128v256h-256v-640h-128zM128 1024v128h128v-256h128v128h-256z" />
    <glyph glyph-name="ǹ" unicode="&#x1f9;" horiz-adv-x="638" 
d="M0 0v640h384v-640h128v512h-384v-512h-128zM128 896v128h128v-256h128v128h-256z" />
    <glyph glyph-name="Ǻ" unicode="&#x1fa;" 
d="M128 640v-128h512v-512h-128v128h-384v-128h-128v512h128v-256h384v384h-384zM256 768v256h128v-384h-128v128h256v128h-384v-128h128zM384 1024v256h128v-128h-256v-128h128z" />
    <glyph glyph-name="ǻ" unicode="&#x1fb;" horiz-adv-x="638" 
d="M256 768v256h128v-384h-128v128h256v128h-384v-128h128zM384 1024v256h128v-128h-256v-128h128zM128 640v-128h384v-512h-144h-240v128h256v128h-384v-128h128v256h256v256h-256z" />
    <glyph glyph-name="Ǽ" unicode="&#x1fc;" horiz-adv-x="1024" 
d="M128 0h-128v768h128v128h256v-128h128v128h384v-128h-384v-256h256v-128h-256v-256h384v-128h-512v384h-256v-384zM384 768h-256v-256h256v256zM512 1024v256h128v-128h-256v-128h128z" />
    <glyph glyph-name="ǽ" unicode="&#x1fd;" horiz-adv-x="1024" 
d="M0 384h384v128h-256v128h256v-128h128v128h256v-128h128v-256h-384v-128h256v-128h-256v128h-128v-128h-256v128h-128v256zM384 256h-256v-128h256v128zM768 512h-256v-128h256v128zM512 768v256h128v-128h-256v-128h128z" />
    <glyph glyph-name="Ǿ" unicode="&#x1fe;" 
d="M0 768h128v128h384v-128h128v-640h-128v-128h-384v128h-128v640zM384 768h-256v-512h128v384h128v128zM384 640v-384h-128v-128h256v512h-128zM384 1024v256h128v-128h-256v-128h128z" />
    <glyph glyph-name="ǿ" unicode="&#x1ff;" 
d="M0 512h128v128h384v-128h128v-384h-128v-128h-384v128h-128v384zM384 512h-256v-256h128v128h128v128zM512 384h-128v-128h-128v-128h256v256zM384 768v256h128v-128h-256v-128h128z" />
    <glyph glyph-name="Ȁ" unicode="&#x200;" 
d="M128 0h-128v768h128v128h384v-128h128v-768h-128v256h-384v-256zM512 768h-384v-384h384v384zM0 1152v128h128v-256h128v128h-256zM384 1152v128h128v-256h128v128h-256z" />
    <glyph glyph-name="ȁ" unicode="&#x201;" horiz-adv-x="638" 
d="M128 512v128h256v-128h128v-512h-384v128h-128v128h128v128h256v128h-256zM128 256v-128h256v128h-256zM0 896v128h128v-256h128v128h-256zM384 896v128h128v-256h128v128h-256z" />
    <glyph glyph-name="Ȃ" unicode="&#x202;" 
d="M128 0h-128v768h128v128h384v-128h128v-768h-128v256h-384v-256zM512 768h-384v-384h384v384zM128 1024v256h384v-256h128v128h-640v-128h128z" />
    <glyph glyph-name="ȃ" unicode="&#x203;" horiz-adv-x="638" 
d="M128 512v128h256v-128h128v-512h-384v128h-128v128h128v128h256v128h-256zM128 256v-128h256v128h-256zM128 928v96h96h160v-256h128v128h-512v-128h128v160z" />
    <glyph glyph-name="Ȅ" unicode="&#x204;" 
d="M0 896h640v-128h-512v-256h384v-128h-384v-256h512v-128h-640v336v560zM0 1152v128h128v-256h128v128h-256zM384 1152v128h128v-256h128v128h-256z" />
    <glyph glyph-name="ȅ" unicode="&#x205;" horiz-adv-x="638" 
d="M0 512h128v128h256v-128h128v-256h-384v-128h256v-128h-256v128h-128v384zM384 512h-256v-128h256v128zM0 896v128h128v-256h128v128h-256zM384 896v128h128v-256h128v128h-256z" />
    <glyph glyph-name="Ȇ" unicode="&#x206;" 
d="M0 896h640v-128h-512v-256h384v-128h-384v-256h512v-128h-640v336v560zM128 1024v256h384v-256h128v128h-640v-128h128z" />
    <glyph glyph-name="ȇ" unicode="&#x207;" horiz-adv-x="638" 
d="M0 512h128v128h256v-128h128v-256h-384v-128h256v-128h-256v128h-128v384zM384 512h-256v-128h256v128zM128 768v256h256v-256h128v128h-512v-128h128z" />
    <glyph glyph-name="Ȉ" unicode="&#x208;" horiz-adv-x="512" 
d="M0 768v128h384v-128h-128v-640h128v-128h-384v128h128v640h-128zM-128 1152v128h128v-256h128v128h-256zM256 1152v128h128v-256h128v128h-256z" />
    <glyph glyph-name="ȉ" unicode="&#x209;" horiz-adv-x="641" 
d="M256 0v512h128v-512h-128zM0 768v128h128v-256h128v128h-256zM384 768v128h128v-256h128v128h-256z" />
    <glyph glyph-name="Ȋ" unicode="&#x20a;" horiz-adv-x="638" 
d="M128 768v128h384v-128h-128v-640h128v-128h-384v128h128v640h-128zM128 1024v256h384v-256h128v80v48h-640v-128h128z" />
    <glyph glyph-name="ȋ" unicode="&#x20b;" horiz-adv-x="512" 
d="M128 0v512h128v-512h-128zM128 640v256h256v-256h128v128h-512v-128h128z" />
    <glyph glyph-name="Ȍ" unicode="&#x20c;" 
d="M0 128v640h640v-640h-128v768h-384v-896h384v128h-512zM0 1152v128h128v-256h128v128h-256zM384 1152v128h128v-256h128v128h-256z" />
    <glyph glyph-name="ȍ" unicode="&#x20d;" horiz-adv-x="638" 
d="M0 128v384h512v-384h-128v512h-256v-640h256v128h-384zM0 896v128h128v-256h128v128h-256zM384 896v128h128v-256h128v128h-256z" />
    <glyph glyph-name="Ȏ" unicode="&#x20e;" 
d="M0 128v640h640v-640h-128v768h-384v-896h384v128h-512zM128 1024v256h384v-256h128v128h-640v-128h128z" />
    <glyph glyph-name="ȏ" unicode="&#x20f;" horiz-adv-x="638" 
d="M0 128v384h512v-384h-128v512h-256v-640h256v128h-384zM128 768v256h256v-256h128v128h-512v-128h128z" />
    <glyph glyph-name="Ȑ" unicode="&#x210;" 
d="M0 0v896h512v-384h128v256h-512v-256h384v-128h-128v-256h256v-128h-128v256h-256v128h-128v-384h-128zM0 1152v128h128v-256h128v128h-256zM384 1152v128h128v-256h128v128h-256z" />
    <glyph glyph-name="ȑ" unicode="&#x211;" horiz-adv-x="638" 
d="M256 640v-640h-128v512h384v128h-256zM0 896v128h80h48v-256h128v128h-256zM384 896v128h128v-256h80h48v128h-256z" />
    <glyph glyph-name="Ȓ" unicode="&#x212;" 
d="M0 0v896h512v-384h128v256h-512v-256h384v-128h-128v-256h256v-128h-128v256h-256v128h-128v-384h-128zM128 1024v256h384v-256h128v128h-640v-128h128z" />
    <glyph glyph-name="ȓ" unicode="&#x213;" horiz-adv-x="512" 
d="M128 640v-640h-128v512h384v128h-256zM128 768v256h256v-256h128v128h-512v-128h128z" />
    <glyph glyph-name="Ȕ" unicode="&#x214;" 
d="M0 128v768h128v-768h384v768h128v-768h-128v-128h-384v128h-128zM0 1152v128h128v-256h128v128h-256zM384 1152v128h128v-256h128v128h-256z" />
    <glyph glyph-name="ȕ" unicode="&#x215;" horiz-adv-x="638" 
d="M0 448v192h48h80v-512h256v512h128v-512h-128v-128h-256v128h-128v320zM0 896v128h128v-256h128v128h-256zM384 896v128h128v-256h128v128h-256z" />
    <glyph glyph-name="Ȗ" unicode="&#x216;" 
d="M0 128v768h128v-768h384v768h128v-768h-128v-128h-384v128h-128zM128 1024v256h384v-256h128v128h-640v-128h128z" />
    <glyph glyph-name="ȗ" unicode="&#x217;" horiz-adv-x="638" 
d="M0 448v192h48h80v-512h256v512h128v-512h-128v-128h-256v128h-128v320zM128 768v256h256v-256h128v128h-512v-128h128z" />
    <glyph glyph-name="Ș" unicode="&#x218;" 
d="M0 768h128v128h384v-128h128v-128h-128v128h-384v-256h384v-128h128v-256h-128v-128h-384v128h-128v128h128v-128h384v256h-384v128h-128v256zM256 -384v256h128v-128h-256v-128h128z" />
    <glyph glyph-name="ș" unicode="&#x219;" horiz-adv-x="638" 
d="M128 256v384h384v-128h-512v-128h384v-384h-384v128h512v128h-384zM256 -384v256h128v-128h-256v-128h128z" />
    <glyph glyph-name="Ț" unicode="&#x21a;" 
d="M0 896h640v-128h-256v-768h-128v768h-256v128zM256 -384v256h128v-128h-256v-128h128z" />
    <glyph glyph-name="ț" unicode="&#x21b;" horiz-adv-x="638" 
d="M128 640v256h128v-256h128v-128h-128v-512h256v128h-384v384h-128v128h128zM128 -384v256h128v-128h-256v-128h128z" />
    <glyph glyph-name="Ȝ" unicode="&#x21c;" horiz-adv-x="765" 
d="M256 896v-256h-128v128h512v-256h-256v-256h-128v128h384v-512h-640v128h128v-256h384v1152h-256z" />
    <glyph glyph-name="ȝ" unicode="&#x21d;" horiz-adv-x="638" 
d="M128 640v-256h-128v128h512v-128h-256v-256h-128v128h384v-384h-512v128h128v-256h256v896h-256z" />
    <glyph glyph-name="Ȟ" unicode="&#x21e;" 
d="M0 896h128v-384h384v384h128v-896h-128v384h-384v-384h-128v896zM128 1024v128h128v-256h128v256h128v-128h-384z" />
    <glyph glyph-name="ȟ" unicode="&#x21f;" horiz-adv-x="638" 
d="M0 768h128v-256h256v-128h128v-384h-128v384h-256v-384h-128v768zM128 896v128h128v-256h128v256h128v-128h-384z" />
    <glyph glyph-name="Ƞ" unicode="&#x220;" 
d="M0 0v896h128v-128h512v-1024h-128v1152h-256v-256h-128v-640h-128z" />
    <glyph glyph-name="ȡ" unicode="&#x221;" horiz-adv-x="897" 
d="M384 640v256h128v-768h128v-384h-128v128h256v128h-256v-128h-256v-128h128v256h-256v512h-128v-384h384v384h-256v128h256z" />
    <glyph glyph-name="Ȣ" unicode="&#x222;" 
d="M128 0v896h128v-128h-256v-256h640v256h-256v128h128v-512h-512v-256h640v256h-128v-384h-384z" />
    <glyph glyph-name="ȣ" unicode="&#x223;" 
d="M128 0v768h128v-128h-256v-128h640v128h-256v128h128v-384h-512v-256h640v256h-128v-384h-384z" />
    <glyph glyph-name="Ȥ" unicode="&#x224;" 
d="M0 768v128h640v-256h-256v-256h-256v-256h384v-256h128v128h-640v256h256v256h256v256h-512z" />
    <glyph glyph-name="ȥ" unicode="&#x225;" horiz-adv-x="638" 
d="M0 512v128h512v-256h-384v-256h256v-256h128v128h-512v256h384v256h-384z" />
    <glyph glyph-name="Ȧ" unicode="&#x226;" 
d="M128 0h-128v768h128v128h384v-128h128v-768h-128v256h-384v-256zM512 768h-384v-384h384v384zM256 1024v128h128v-128h-128z" />
    <glyph glyph-name="ȧ" unicode="&#x227;" horiz-adv-x="638" 
d="M128 512v128h256v-128h128v-512h-384v128h-128v128h128v128h256v128h-256zM128 256v-128h256v128h-256zM256 768v128h128v-128h-128z" />
    <glyph glyph-name="Ȩ" unicode="&#x228;" 
d="M0 0v896h640v-128h-512v-256h384v-128h-384v-256h512v-128h-256v-384h-128v128h256v128h-256v128h-256z" />
    <glyph glyph-name="ȩ" unicode="&#x229;" horiz-adv-x="638" 
d="M128 640v-128h384v-256h-384v-384h256v-128h-256v-128h128v384h128v128h-384v384h128v-128h256v256h-256z" />
    <glyph glyph-name="Ȫ" unicode="&#x22a;" 
d="M0 128v512h640v-512h-128v640h-384v-768h384v128h-512zM128 896v128h128v-128h-128zM384 896v128h128v-128h-128zM128 1152v128h384v-128h-384z" />
    <glyph glyph-name="ȫ" unicode="&#x22b;" horiz-adv-x="638" 
d="M0 128v384h512v-384h-128v512h-256v-640h256v128h-384zM0 768v128h128v-128h-128zM384 768v128h128v-128h-128zM128 1024v128h256v-128h-256z" />
    <glyph glyph-name="Ȭ" unicode="&#x22c;" 
d="M0 128v512h640v-512h-128v640h-384v-768h384v128h-512z" />
    <glyph glyph-name="ȭ" unicode="&#x22d;" horiz-adv-x="638" 
d="M0 128v384h512v-384h-128v512h-256v-640h256v128h-384z" />
    <glyph glyph-name="Ȯ" unicode="&#x22e;" 
d="M0 128v640h640v-640h-128v768h-384v-896h384v128h-512zM256 1024v128h128v-128h-128z" />
    <glyph glyph-name="ȯ" unicode="&#x22f;" horiz-adv-x="638" 
d="M0 128v384h512v-384h-128v512h-256v-640h256v128h-384zM256 768v128h128v-128h-128z" />
    <glyph glyph-name="Ȱ" unicode="&#x230;" 
d="M0 128v512h640v-512h-128v640h-384v-768h384v128h-512zM256 896v128h128v-128h-128zM128 1152v128h384v-128h-384z" />
    <glyph glyph-name="ȱ" unicode="&#x231;" horiz-adv-x="638" 
d="M0 128v384h512v-384h-128v512h-256v-640h256v128h-384zM256 768v128h128v-128h-128zM128 1024v128h384v-128h-384z" />
    <glyph glyph-name="Ȳ" unicode="&#x232;" 
d="M0 512v384h128v-512h384v512h128v-384h-256v-512h-128v512h-256zM128 1024v128h384v-128h-384z" />
    <glyph glyph-name="ȳ" unicode="&#x233;" horiz-adv-x="638" 
d="M0 640v-512h384v512h48h80v-768h-384v-128h256v256h-256v640h-128zM128 768v128h256v-128h-256z" />
    <glyph glyph-name="ȴ" unicode="&#x234;" horiz-adv-x="638" 
d="M0 256v640h128v-896h-128v128h512v128h-128v-256h-128v384h128v-128h-384z" />
    <glyph glyph-name="ȵ" unicode="&#x235;" horiz-adv-x="1024" 
d="M0 0v640h384v-512h384v128h-128v-384h128v256h128v-128h-512v-128h128v640h-384v-512h-128z" />
    <glyph glyph-name="ȶ" unicode="&#x236;" 
d="M128 768v128h128v-128h128v-128h-128v-640h-128v128h512v128h-128v-256h-128v384h128v-128h-384v384h-128v128h128z" />
    <glyph glyph-name="ȷ" unicode="&#x237;" horiz-adv-x="385" 
d="M128 -256v896h128v-768h-384v-128h256z" />
    <glyph glyph-name="ȸ" unicode="&#x238;" horiz-adv-x="1024" 
d="M384 640v256h128v-256h256v-512h128v384h-384v-512h256v128h-640v-128h256v512h-384v-384h128v512h256z" />
    <glyph glyph-name="ȹ" unicode="&#x239;" horiz-adv-x="1024" 
d="M512 640v-512h256v-128h-256v-256h-128v256h-256v128h256v512h-256v-512h-128v384h896v-384h-128v512h-256z" />
    <glyph glyph-name="Ⱥ" unicode="&#x23a;" 
d="M128 768v128h512v128h-128v-256h128v-768h-128v128h-384v-128h-128v768h128v-384h256v256h-128v-384h256v384h-128v128h-256z" />
    <glyph glyph-name="Ȼ" unicode="&#x23b;" 
d="M128 256v640h512v128h-128v-256h128v-128h-384v-384h128v512h-384v-640h128v-256h-128v128h512v256h128v-128h-384v128h-128z" />
    <glyph glyph-name="ȼ" unicode="&#x23c;" horiz-adv-x="638" 
d="M128 256v384h384v128h-128v-256h128v-128h-256v128h-256v-384h128v-256h-128v128h384v256h128v-128h-256v128h-128z" />
    <glyph glyph-name="Ƚ" unicode="&#x23d;" 
d="M128 512v384h128v-384h256v-128h-256v-256h384v-128h-512v384h-128v128h128z" />
    <glyph glyph-name="Ⱦ" unicode="&#x23e;" 
d="M0 768v128h640v-128h-256v-512h-256v-256h-128v128h384v-128h-128v384h256v256h128v-128h-384v256h-256z" />
    <glyph glyph-name="ȿ" unicode="&#x23f;" horiz-adv-x="638" 
d="M128 496v144h144h240v-128h-512v-128h384v-384h-256v-256h256v128h-384v256h512v128h-384v240z" />
    <glyph glyph-name="ɀ" unicode="&#x240;" horiz-adv-x="638" 
d="M0 512v128h512v-256h-384v-256h128v-256h256v128h-512v256h384v256h-384z" />
    <glyph glyph-name="Ɂ" unicode="&#x241;" 
d="M128 512v384h384v-640h-128v-256h-128v384h384v240v144h-640v-256h128z" />
    <glyph glyph-name="ɂ" unicode="&#x242;" horiz-adv-x="638" 
d="M128 384v256h256v-512h-128v-128h-128v256h384v256h-512v-128h128z" />
    <glyph glyph-name="Ƀ" unicode="&#x243;" horiz-adv-x="894" 
d="M128 384v512h384v-128h-256v-128h256v128h128v-640h128v384h-512v-128h128v-128h-128v-128h384v-128h-512v256h-128v128h128z" />
    <glyph glyph-name="Ʉ" unicode="&#x244;" horiz-adv-x="897" 
d="M128 512v384h128v-384h256v384h128v-384h128v-128h-128v-256h-128v256h-256v-384h256v128h-384v256h-128v128h128z" />
    <glyph glyph-name="Ʌ" unicode="&#x245;" 
d="M256 384v512h128v-512h256v-384h-128v640h-384v-640h-128v384h256z" />
    <glyph glyph-name="Ɇ" unicode="&#x246;" 
d="M0 -128v1024h512v128h128v-256h-128v-128h-128v128h-256v-256h128v128h128v-128h128v-128h-128v-128h-128v128h-128v-128h128v-128h384v-128h-768v-128h128z" />
    <glyph glyph-name="ɇ" unicode="&#x247;" horiz-adv-x="638" 
d="M128 384v256h384v128h-128v-256h-384v-384h384v-128h-384v-128h128v384h384v256h-128v-128h-256z" />
    <glyph glyph-name="Ɉ" unicode="&#x248;" horiz-adv-x="638" 
d="M0 768v128h512v-128h-128v-256h128v-128h-128v-256h-384v-128h256v384h-128v128h80h48v256h-256z" />
    <glyph glyph-name="ɉ" unicode="&#x249;" horiz-adv-x="512" 
d="M128 384v128h128v-128h128v-128h-128v-384h-384v-128h256v512h-128v128h128zM128 640v128h128v-128h-128z" />
    <glyph glyph-name="Ɋ" unicode="&#x24a;" horiz-adv-x="897" 
d="M128 768v128h512v-1152h128v128h-256v128h-384v768h-128v-640h512v640h-384z" />
    <glyph glyph-name="ɋ" unicode="&#x24b;" 
d="M128 512v128h384v-896h128v128h-256v128h-256v512h-128v-384h384v384h-256z" />
    <glyph glyph-name="Ɍ" unicode="&#x24c;" horiz-adv-x="897" 
d="M128 512v384h512v-384h128v256h-512v-256h384v-128h-128v-256h256v-128h-128v256h-256v80v48h-128v-384h-128v384h-128v128h128z" />
    <glyph glyph-name="ɍ" unicode="&#x24d;" horiz-adv-x="638" 
d="M256 640v-256h128v-128h-128v-256h-128v256h-128v128h128v128h384v128h-256z" />
    <glyph glyph-name="Ɏ" unicode="&#x24e;" horiz-adv-x="1024" 
d="M128 768v128h128v-128h384v128h128v-128h128v-128h-128v-128h-256v-512h-80h-48v384h256v256h-384v-256h128v128h-256v128h-128v128h128z" />
    <glyph glyph-name="ɏ" unicode="&#x24f;" horiz-adv-x="897" 
d="M128 512v128h128v-128h256v128h128v-128h128v-128h-128v-512h-384v-128h160h96v256h-256v128h256v256h-256v-256h-128v256h-128v128h128z" />
    <glyph glyph-name="ɶ" unicode="&#x276;" horiz-adv-x="1024" 
d="M128 512v128h768v-128h-384v-128h256v-128h-256v-128h384v-128h-768v512h-128v-384h384v384h-256z" />
    <glyph glyph-name="˂" unicode="&#x2c2;" horiz-adv-x="512" 
d="M0 512h128v128h128v128h128v-128h-128v-128h-128v-128h128v-128h128v-128h-128v128h-128v128h-128v128z" />
    <glyph glyph-name="˃" unicode="&#x2c3;" horiz-adv-x="512" 
d="M0 768h128v-128h128v-128h128v-128h-128v-128h-128v-128h-128v128h128v128h128v128h-128v128h-128v128z" />
    <glyph glyph-name="ˉ" unicode="&#x2c9;" horiz-adv-x="512" 
d="M0 768h384v-128h-144h-240v48v80z" />
    <glyph glyph-name="˟" unicode="&#x2df;" horiz-adv-x="512" 
d="M0 896h128v-128h128v128h128v-128h-128v-128h128v-128h-128v128h-128v-128h-128v128h128v128h-128v128z" />
    <glyph glyph-name="Ͱ" unicode="&#x370;" horiz-adv-x="638" 
d="M0 0v896h128v-384h384v-128h-384v-384h-128z" />
    <glyph glyph-name="ͱ" unicode="&#x371;" horiz-adv-x="512" 
d="M0 0v640h128v-256h256v-128h-256v-256h-128z" />
    <glyph glyph-name="Ͳ" unicode="&#x372;" 
d="M0 640v256h640v-256h-128v128h-128v-768h-128v768h-128v-128h-128z" />
    <glyph glyph-name="ͳ" unicode="&#x373;" 
d="M0 512v256h640v-256h-128v128h-128v-640h-128v640h-128v-128h-128z" />
    <glyph glyph-name="ʹ" unicode="&#x374;" horiz-adv-x="385" 
d="M128 768v256h128v-128h-256v-128h128z" />
    <glyph glyph-name="͵" unicode="&#x375;" horiz-adv-x="385" 
d="M128 -128v256h128v-128h-256v-128h128z" />
    <glyph glyph-name="Ͷ" unicode="&#x376;" 
d="M0 896h128v-640h128v128h128v128h128v384h128v-896h-128v384h-128v-128h-128v-128h-128v-128h-128v336v560z" />
    <glyph glyph-name="ͷ" unicode="&#x377;" 
d="M0 128v512h128v-640h256v640h128v-640h128v128h-640z" />
    <glyph glyph-name="ͺ" unicode="&#x37a;" horiz-adv-x="385" 
d="M128 -128v256h128v-256h-128z" />
    <glyph glyph-name="ͻ" unicode="&#x37b;" horiz-adv-x="638" 
d="M128 640v-256h-128v128h512v-384h-512v128h128v-256h256v640h-256z" />
    <glyph glyph-name="ͼ" unicode="&#x37c;" 
d="M128 0v640h384v-256h128v128h-640v-384h640v128h-128v-256h-384zM256 256v128h128v-128h-128z" />
    <glyph glyph-name="ͽ" unicode="&#x37d;" 
d="M128 384v256h240h144v-640h-384v256h-128v-128h640v384h-640v-128h128zM256 256v128h128v-128h-128z" />
    <glyph glyph-name=";" unicode="&#x37e;" horiz-adv-x="256" 
d="M0 512v128h128v-128h-128zM0 -128v256h128v-256h-128z" />
    <glyph glyph-name="Ϳ" unicode="&#x37f;" horiz-adv-x="638" 
d="M0 848v48h192h320v-128h-128v-640h-128v-128h-256v128h256v640h-256v80z" />
    <glyph glyph-name="΄" unicode="&#x384;" horiz-adv-x="512" 
d="M256 768v256h128v-128h-256v-128h128z" />
    <glyph glyph-name="΅" unicode="&#x385;" horiz-adv-x="638" 
d="M0 768v128h128v-128h-128zM384 1024v256h128v-128h-256v-128h128zM384 768v128h128v-128h-128z" />
    <glyph glyph-name="Ά" unicode="&#x386;" horiz-adv-x="1024" 
d="M384 0h-128v768h128v128h384v-128h128v-768h-128v256h-384v-256zM768 768h-384v-384h384v384zM128 768v256h128v-80v-48h-256v-128h128z" />
    <glyph glyph-name="·" unicode="&#x387;" horiz-adv-x="256" 
d="M0 256v128h128v-128h-128z" />
    <glyph glyph-name="Έ" unicode="&#x388;" horiz-adv-x="1153" 
d="M384 896h640v-128h-512v-256h384v-128h-384v-256h512v-128h-640v896zM128 768v256h128v-128h-256v-128h128z" />
    <glyph glyph-name="Ή" unicode="&#x389;" horiz-adv-x="1153" 
d="M384 0v896h128v-384h384v384h128v-896h-128v384h-384v-384h-128zM128 768v256h128v-128h-256v-128h128z" />
    <glyph glyph-name="Ί" unicode="&#x38a;" horiz-adv-x="897" 
d="M384 768v128h384v-128h-128v-640h128v-128h-384v128h128v640h-128zM128 768v256h128v-128h-256v-128h128z" />
    <glyph glyph-name="Ό" unicode="&#x38c;" horiz-adv-x="1024" 
d="M256 128v640h640v-640h-512v-128h384v896h-384v-768h-128zM128 768v256h128v-128h-256v-128h128z" />
    <glyph glyph-name="Ύ" unicode="&#x38e;" horiz-adv-x="1153" 
d="M384 896h128v-384h128v-128h128v128h128v384h128v-384h-128v-128h-128v-384h-128v384h-128v128h-128v384zM128 768v256h128v-128h-256v-128h128z" />
    <glyph glyph-name="Ώ" unicode="&#x38f;" horiz-adv-x="1024" 
d="M384 128v768h384v-768h128v-128h-256v256h256v512h-640v-512h256v-256h-256v128h128zM128 768v256h128v-128h-256v-128h80h48z" />
    <glyph glyph-name="ΐ" unicode="&#x390;" horiz-adv-x="382" 
d="M128 0v640h128v-640h-128zM256 1024v256h128v-128h-256v-128h128zM0 768v128h128v-128h-128zM256 768v128h128v-128h-128z" />
    <glyph glyph-name="Α" unicode="&#x391;" 
d="M128 0h-128v768h128v128h384v-128h128v-768h-128v256h-384v-256zM512 768h-384v-384h384v384z" />
    <glyph glyph-name="Β" unicode="&#x392;" 
d="M0 0v896h384v-128h128v-384h128v-256h-128v-128h-512zM128 768v-256h256v256h-256zM128 384v-256h384v256h-144h-240z" />
    <glyph glyph-name="Γ" unicode="&#x393;" horiz-adv-x="638" 
d="M0 0v896h512v-128h-384v-768h-128z" />
    <glyph glyph-name="Δ" unicode="&#x394;" 
d="M256 512v384h128v-384h256v-512h-640v512h128v-384h384v640h-384v-256h128z" />
    <glyph glyph-name="Ε" unicode="&#x395;" 
d="M0 896h640v-128h-512v-256h384v-128h-384v-256h512v-128h-640v896z" />
    <glyph glyph-name="Ζ" unicode="&#x396;" 
d="M0 768v128h640v-256h-128v-128h-128v-128h-128v-128h-128v-128h512v-128h-640v256h128v128h128v128h80h48v128h128v128h-512z" />
    <glyph glyph-name="Η" unicode="&#x397;" 
d="M0 0v896h128v-384h384v384h128v-896h-128v384h-384v-384h-128z" />
    <glyph glyph-name="Θ" unicode="&#x398;" 
d="M128 896v-384h384v256h128v-640h-512v-128h384v384h-384v-256h-128v640h512v128h-384z" />
    <glyph glyph-name="Ι" unicode="&#x399;" horiz-adv-x="512" 
d="M0 768v128h384v-128h-128v-640h128v-128h-384v128h128v640h-128z" />
    <glyph glyph-name="Κ" unicode="&#x39a;" 
d="M0 0v896h128v-384h384v384h128v-256h-256v-384h256v-256h-128v384h-384v-384h-128z" />
    <glyph glyph-name="Λ" unicode="&#x39b;" 
d="M256 512v384h128v-384h256v-512h-128v768h-384v-768h-128v512h256z" />
    <glyph glyph-name="Μ" unicode="&#x39c;" 
d="M128 0h-128v896h128v-128h128v-128h128v128h128v128h128v-896h-128v640h-128v-128h-128v128h-128v-640z" />
    <glyph glyph-name="Ν" unicode="&#x39d;" 
d="M0 0v896h128v-128h128v-256h256v384h128v-896h-128v384h-128v256h-256v-640h-128z" />
    <glyph glyph-name="Ξ" unicode="&#x39e;" 
d="M0 848v48h240h400v-128h-640v80zM0 0v128h640v-128h-640zM128 384v128h384v-128h-384z" />
    <glyph glyph-name="Ο" unicode="&#x39f;" 
d="M0 128v640h640v-640h-512v-128h384v896h-384v-768h-128z" />
    <glyph glyph-name="Π" unicode="&#x3a0;" 
d="M0 0v896h640v-896h-128v768h-384v-768h-128z" />
    <glyph glyph-name="Ρ" unicode="&#x3a1;" 
d="M0 896h512v-128h128v-384h-128v-128h-384v-256h-128v896zM512 768h-384v-384h384v384z" />
    <glyph glyph-name="Σ" unicode="&#x3a3;" 
d="M0 640v256h640v-128h-512v-256h256v-128h-256v-256h512v-128h-640v256h256v384h-256z" />
    <glyph glyph-name="Τ" unicode="&#x3a4;" 
d="M0 896h640v-128h-256v-768h-128v768h-256v128z" />
    <glyph glyph-name="Υ" unicode="&#x3a5;" 
d="M0 896h128v-384h128v-128h128v128h128v384h128v-384h-128v-128h-128v-384h-128v384h-128v128h-128v384z" />
    <glyph glyph-name="Φ" unicode="&#x3a6;" horiz-adv-x="1024" 
d="M0 768h128v128h640v-128h128v-512h-128v-128h-256v-128h-128v128h-256v128h-128v512zM384 768h-256v-512h256v512zM768 768h-256v-512h256v512z" />
    <glyph glyph-name="Χ" unicode="&#x3a7;" 
d="M0 896h128v-256h128v-128h128v128h128v256h128v-256h-128v-128h-128v-128h128v-128h128v-256h-128v256h-128v128h-128v-128h-128v-256h-128v256h128v128h128v128h-128v128h-128v256z" />
    <glyph glyph-name="Ψ" unicode="&#x3a8;" horiz-adv-x="1024" 
d="M0 896v-512h384v512h128v-512h384v512h-128v-640h-96h-160v-256h-128v256h-256v640h-128z" />
    <glyph glyph-name="Ω" unicode="&#x3a9;" 
d="M128 128v768h384v-768h128v-128h-256v256h256v512h-640v-512h256v-256h-256v128h128z" />
    <glyph glyph-name="Ϊ" unicode="&#x3aa;" horiz-adv-x="512" 
d="M0 768v128h384v-128h-128v-640h128v-128h-384v128h128v640h-128zM0 1104v48h48h80v-128h-128v80zM256 1024v128h128v-128h-128z" />
    <glyph glyph-name="Ϋ" unicode="&#x3ab;" 
d="M0 896h128v-384h128v-128h128v128h128v384h128v-384h-128v-128h-128v-384h-128v384h-128v128h-128v384zM128 1024v128h128v-128h-128zM384 1024v128h128v-128h-128z" />
    <glyph glyph-name="ά" unicode="&#x3ac;" 
d="M128 0v640h256v-128h-384v-384h640v-128h-128v640h128v-128h-256v-512h-256zM384 768v256h128v-128h-256v-128h128z" />
    <glyph glyph-name="έ" unicode="&#x3ad;" horiz-adv-x="638" 
d="M128 0v640h256v-256h128v128h-512v-128h256v-128h-256v-128h512v128h-128v-256h-256zM256 768v256h128v-128h-256v-128h128z" />
    <glyph glyph-name="ή" unicode="&#x3ae;" horiz-adv-x="638" 
d="M0 640h384v-128h128v-768h-128v768h-256v-512h-128v640zM256 768v256h128v-128h-256v-128h128z" />
    <glyph glyph-name="ί" unicode="&#x3af;" horiz-adv-x="256" 
d="M0 0v640h128v-640h-128zM128 768v256h128v-128h-256v-128h128z" />
    <glyph glyph-name="ΰ" unicode="&#x3b0;" horiz-adv-x="638" 
d="M0 128v512h128v-640h256v640h128v-512h-512zM0 768v128h128v-128h-128zM384 768v128h128v-128h-128zM256 1024v256h128v-128h-256v-128h128z" />
    <glyph glyph-name="α" unicode="&#x3b1;" 
d="M128 0v640h256v-128h-384v-384h640v-128h-128v640h128v-128h-256v-512h-256z" />
    <glyph glyph-name="β" unicode="&#x3b2;" horiz-adv-x="638" 
d="M0 -256v1024h128v-256h128v384h-128v-128h256v-640h128v256h-384v-256h256v-128h-256v-256h-128z" />
    <glyph glyph-name="γ" unicode="&#x3b3;" 
d="M0 640v-128h256v-768h128v768h256v128h-128v-512h-384v512h-128z" />
    <glyph glyph-name="δ" unicode="&#x3b4;" horiz-adv-x="638" 
d="M0 128v384h128v-512h256v640h-384v128h384v128h-256v-384h384v-384h-512z" />
    <glyph glyph-name="ε" unicode="&#x3b5;" horiz-adv-x="638" 
d="M128 0v640h256v-256h128v128h-512v-128h256v-128h-256v-128h512v128h-128v-256h-256z" />
    <glyph glyph-name="ζ" unicode="&#x3b6;" horiz-adv-x="638" 
d="M0 768v128h512v-256h-384v-640h256v-256h-128v128h256v256h-512v384h384v256h-384z" />
    <glyph glyph-name="η" unicode="&#x3b7;" horiz-adv-x="638" 
d="M0 640h384v-128h128v-768h-128v768h-256v-512h-128v640z" />
    <glyph glyph-name="θ" unicode="&#x3b8;" horiz-adv-x="638" 
d="M0 128v640h128v-256h256v384h-256v-128h384v-640h-128v256h-256v-384h256v128h-384z" />
    <glyph glyph-name="ι" unicode="&#x3b9;" horiz-adv-x="256" 
d="M0 0v640h128v-640h-128z" />
    <glyph glyph-name="κ" unicode="&#x3ba;" horiz-adv-x="638" 
d="M0 0v640h128v-256h256v256h128v-128h-256v-384h256v-128h-128v256h-256v-256h-128z" />
    <glyph glyph-name="λ" unicode="&#x3bb;" horiz-adv-x="638" 
d="M128 768v128h128v-256h256v-640h-128v384h-256v-384h-128v256h256v256h128v256h-256z" />
    <glyph glyph-name="μ" unicode="&#x3bc;" 
d="M128 -256h-128v896h128v-384h128v-128h128v128h128v384h128v-640h-128v128h-128v-128h-128v128h-128v-384z" />
    <glyph glyph-name="ν" unicode="&#x3bd;" horiz-adv-x="638" 
d="M0 128v512h128v-640h80h48v256h256v384h-128v-512h-384z" />
    <glyph glyph-name="ξ" unicode="&#x3be;" horiz-adv-x="638" 
d="M128 0v896h256v-128h-384v-256h384v-128h-384v-256h512v-256h-256v-80v-48h128v256h-160h-96z" />
    <glyph glyph-name="ο" unicode="&#x3bf;" horiz-adv-x="638" 
d="M0 128v384h512v-384h-384v-128h256v640h-256v-512h-128z" />
    <glyph glyph-name="π" unicode="&#x3c0;" horiz-adv-x="638" 
d="M0 512v128h512v-640h-128v512h-128v-128h-256v-384h128v512h-128z" />
    <glyph glyph-name="ρ" unicode="&#x3c1;" horiz-adv-x="638" 
d="M0 -256v768h128v-384h384v384h-384v128h256v-640h-256v-256h-128z" />
    <glyph glyph-name="ς" unicode="&#x3c2;" horiz-adv-x="638" 
d="M128 0v640h384v-128h-512v-384h512v-256h-256v-128h128v256h-256z" />
    <glyph glyph-name="σ" unicode="&#x3c3;" 
d="M128 128v512h512v-128h-128v-384h-384v-128h256v512h-384v-384h128z" />
    <glyph glyph-name="τ" unicode="&#x3c4;" horiz-adv-x="512" 
d="M0 512v128h384v-128h-128v-512h-128v512h-128z" />
    <glyph glyph-name="υ" unicode="&#x3c5;" horiz-adv-x="638" 
d="M0 128v512h128v-640h256v640h128v-512h-512z" />
    <glyph glyph-name="φ" unicode="&#x3c6;" 
d="M0 512v-384h256v384h128v-384h256v384h-256v128h128v-240v-400h-128v-256h-128v256h-128v512h-128z" />
    <glyph glyph-name="χ" unicode="&#x3c7;" horiz-adv-x="638" 
d="M0 384v256h128v-896h-128v384h512v-384h-128v896h128v-256h-512z" />
    <glyph glyph-name="ψ" unicode="&#x3c8;" 
d="M0 448v-320h256v512h128v-512h256v512h-128v-640h-128v-256h-128v256h-128v640h-80h-48v-192z" />
    <glyph glyph-name="ω" unicode="&#x3c9;" 
d="M128 640v-640h128v256h128v-256h128v640h-128v-128h256v-384h-640v384h256v128h-128z" />
    <glyph glyph-name="ϊ" unicode="&#x3ca;" horiz-adv-x="382" 
d="M128 0v640h128v-640h-128zM0 768v128h128v-128h-128zM256 768v128h128v-128h-128z" />
    <glyph glyph-name="ϋ" unicode="&#x3cb;" horiz-adv-x="638" 
d="M0 128v512h128v-640h256v640h128v-512h-512zM128 848v48h48h80v-128h-128v80zM384 848v48h48h80v-128h-128v80z" />
    <glyph glyph-name="ό" unicode="&#x3cc;" horiz-adv-x="638" 
d="M0 128v384h512v-384h-384v-128h256v640h-256v-512h-128zM256 768v256h128v-128h-256v-128h128z" />
    <glyph glyph-name="ύ" unicode="&#x3cd;" horiz-adv-x="638" 
d="M0 128v512h128v-640h256v640h128v-512h-512zM256 768v256h128v-128h-256v-128h128z" />
    <glyph glyph-name="ώ" unicode="&#x3ce;" 
d="M128 640v-640h128v256h128v-256h128v640h-128v-128h256v-384h-640v384h256v128h-128zM384 768v256h128v-128h-256v-128h128z" />
    <glyph glyph-name="Ϗ" unicode="&#x3cf;" 
d="M0 0v896h128v-384h384v384h128v-256h-256v-384h256v-256h-256v-256h-128v128h256v512h-384v-384h-128z" />
    <glyph glyph-name="ϐ" unicode="&#x3d0;" horiz-adv-x="638" 
d="M128 896v-896h256v384h128v-256h-512v640h512v-256h-256v-128h128v512h-256z" />
    <glyph glyph-name="ϑ" unicode="&#x3d1;" 
d="M0 128v256h128v-384h256v384h-128v512h128v-128h-256v-256h256v256h128v-256h128v-128h-128v-256h-512z" />
    <glyph glyph-name="ϒ" unicode="&#x3d2;" 
d="M0 896v-128h256v-768h128v768h256v128h-128v-512h-384v512h-128z" />
    <glyph glyph-name="ϓ" unicode="&#x3d3;" horiz-adv-x="1024" 
d="M256 896v-128h256v-768h128v768h256v128h-128v-512h-384v512h-128zM128 896v256h128v-128h-256v-128h128z" />
    <glyph glyph-name="ϔ" unicode="&#x3d4;" 
d="M0 896v-128h256v-768h128v768h256v128h-128v-512h-384v512h-128zM128 1024v128h128v-128h-128zM384 1024v128h128v-128h-128z" />
    <glyph glyph-name="ϕ" unicode="&#x3d5;" 
d="M128 128v512h128v160v96h128v-256h128v-512h128v384h-256v-384h128v-128h-128v-256h-128v256h-128v128h128v384h-256v-384h128z" />
    <glyph glyph-name="ϖ" unicode="&#x3d6;" 
d="M0 512v128h640v-128h-128v-128h-128v128h-128v-128h-256v-256h640v256h-128v-384h-128v256h-128v-256h-128v512h-128z" />
    <glyph glyph-name="ϗ" unicode="&#x3d7;" 
d="M0 0v640h128v-384h160h96v-128h256v-128h-256v-128h128v768h128v-128h-256v-128h-128v-256h-128v-128h-128z" />
    <glyph glyph-name="Ϙ" unicode="&#x3d8;" 
d="M128 256v640h384v-512h128v384h-640v-384h512v-128h-128v-256h-128v256h-128z" />
    <glyph glyph-name="ϙ" unicode="&#x3d9;" 
d="M128 0v640h384v-512h128v384h-640v-384h512v-128h-128v-256h-128v256h-128z" />
    <glyph glyph-name="Ϛ" unicode="&#x3da;" 
d="M128 128v768h384v-256h128v128h-640v-512h512v-256h-128v128h-256z" />
    <glyph glyph-name="ϛ" unicode="&#x3db;" horiz-adv-x="638" 
d="M128 0v640h384v128h-128v-256h-384v-384h384v-384h-128v128h256v128h-384z" />
    <glyph glyph-name="Ϝ" unicode="&#x3dc;" horiz-adv-x="638" 
d="M0 0v896h512v-128h-384v-256h256v-256h-128v128h-128v-384h-128z" />
    <glyph glyph-name="ϝ" unicode="&#x3dd;" horiz-adv-x="512" 
d="M0 -256v896h384v-128h-256v-128h256v-256h-128v128h-128v-512h-128z" />
    <glyph glyph-name="Ϟ" unicode="&#x3de;" 
d="M256 640v256h128v-128h-256v-256h512v-256h-256v-256h-128v128h256v256h-512v256h256z" />
    <glyph glyph-name="ϟ" unicode="&#x3df;" horiz-adv-x="638" 
d="M128 640v-256h384v-256h-256v-128h128v256h-384v256h256v128h-128z" />
    <glyph glyph-name="Ϡ" unicode="&#x3e0;" horiz-adv-x="897" 
d="M128 896v-256h-128v128h512v-512h-128v128h384v-384h-128v640h-384v-128h128v384h-256z" />
    <glyph glyph-name="ϡ" unicode="&#x3e1;" horiz-adv-x="638" 
d="M0 896v-128h256v-512h-128v128h384v-384h-128v640h-384v-128h128v384h-128z" />
    <glyph glyph-name="Ϣ" unicode="&#x3e2;" 
d="M0 128v768h128v-896h128v896h128v-896h128v-256h-384v128h512v1024h-128v-768h-512z" />
    <glyph glyph-name="ϣ" unicode="&#x3e3;" 
d="M0 128v512h128v-640h128v640h128v-640h128v-256h-384v128h512v768h-128v-512h-512z" />
    <glyph glyph-name="Ϥ" unicode="&#x3e4;" 
d="M128 256v640h256v-128h-384v-384h512v512h128v-896h-128v256h-384z" />
    <glyph glyph-name="ϥ" unicode="&#x3e5;" horiz-adv-x="638" 
d="M128 0v640h128v-128h-256v-384h384v512h128v-896h-128v256h-256z" />
    <glyph glyph-name="Ϧ" unicode="&#x3e6;" 
d="M0 0v896h128v-256h384v-560v-336h-384v80v48h512v640h-512v-512h-128z" />
    <glyph glyph-name="ϧ" unicode="&#x3e7;" 
d="M0 208v48h48h80v-256h256v256h-128v256h-128v-128h256v256h-128v-128h256v-128h128v-128h-128v-128h-512v80z" />
    <glyph glyph-name="Ϩ" unicode="&#x3e8;" 
d="M256 640v256h256v-512h-512v-256h640v128h-128v-256h-384v512h512v256h-512v-128h128z" />
    <glyph glyph-name="ϩ" unicode="&#x3e9;" horiz-adv-x="638" 
d="M128 512v128h256v-384h-384v-128h512v-128h-384v384h384v128h-384z" />
    <glyph glyph-name="Ϫ" unicode="&#x3ea;" 
d="M128 896v-128h384v128h-128v-512h256v-384h-640v384h256v256h-128v-512h384v512h-256v256h-128z" />
    <glyph glyph-name="ϫ" unicode="&#x3eb;" 
d="M128 640v-128h384v128h-128v-256h-256v-256h384v256h-128v-128h256v-256h-640v256h256v384h-128z" />
    <glyph glyph-name="Ϭ" unicode="&#x3ec;" 
d="M128 896v-256h384v-128h-384v-512h384v512h128v-384h-640v640h512v128h-384z" />
    <glyph glyph-name="ϭ" unicode="&#x3ed;" horiz-adv-x="638" 
d="M128 896v-384h256v-128h-256v-384h256v384h128v-256h-512v640h384v128h-256z" />
    <glyph glyph-name="Ϯ" unicode="&#x3ee;" 
d="M256 640v256h128v-256h256v-128h-256v-512h-128v512h-256v128h256z" />
    <glyph glyph-name="ϯ" unicode="&#x3ef;" horiz-adv-x="512" 
d="M128 640v128h128v-128h128v-128h-128v-512h-256v-128h128v640h-128v128h128z" />
    <glyph glyph-name="ϰ" unicode="&#x3f0;" 
d="M0 0v640h128v-384h256v-128h256v-128h-128v640h128v-128h-256v-128h-128v-256h-128v-128h-128z" />
    <glyph glyph-name="ϱ" unicode="&#x3f1;" horiz-adv-x="638" 
d="M128 640v-512h256v-128h-256v-256h256v128h-384v640h512v-384h-128v512h-256z" />
    <glyph glyph-name="ϲ" unicode="&#x3f2;" horiz-adv-x="638" 
d="M0 512h128v128h256v-128h128v-128h-128v128h-256v-384h256v128h128v-128h-128v-128h-256v128h-128v384z" />
    <glyph glyph-name="ϳ" unicode="&#x3f3;" horiz-adv-x="385" 
d="M128 640v128h128v-128h-128zM128 -128v640h128v-640h-128v-128h-256v80v48h256z" />
    <glyph glyph-name="ϴ" unicode="&#x3f4;" 
d="M128 896v-384h384v256h128v-640h-512v-128h384v384h-384v-256h-128v640h512v128h-384z" />
    <glyph glyph-name="ϵ" unicode="&#x3f5;" horiz-adv-x="638" 
d="M128 384v256h384v-128h-512v-384h512v-128h-384v256h256v80v48h-256z" />
    <glyph glyph-name="϶" unicode="&#x3f6;" horiz-adv-x="638" 
d="M0 512v128h384v-128h128v-384h-128v-80v-48h-384v128h384v128h-256v128h256v128h-384z" />
    <glyph glyph-name="Ϸ" unicode="&#x3f7;" 
d="M0 0v896h128v-128h384v-512h128v384h-512v-384h384v-128h-384v-128h-128z" />
    <glyph glyph-name="ϸ" unicode="&#x3f8;" horiz-adv-x="638" 
d="M0 -256v1152h128v-256h256v-512h128v384h-384v-384h256v-128h-256v-256h-128z" />
    <glyph glyph-name="Ϲ" unicode="&#x3f9;" 
d="M128 896v-896h384v256h128v-128h-640v640h640v-128h-128v256h-384z" />
    <glyph glyph-name="Ϻ" unicode="&#x3fa;" 
d="M128 0h-128v896h128v-128h128v-128h128v128h128v128h128v-896h-128v640h-128v-128h-128v128h-128v-640z" />
    <glyph glyph-name="ϻ" unicode="&#x3fb;" 
d="M128 -256h-128v896h128v-256h128v-128h128v128h128v256h128v-640h-128v256h-128v-128h-128v128h-128v-512z" />
    <glyph glyph-name="ϼ" unicode="&#x3fc;" 
d="M256 640v-384h256v-128h-256v-128h128v-128h-128v-128h-128v128h-128v128h128v512h512v-256h-128v384h-256z" />
    <glyph glyph-name="Ͻ" unicode="&#x3fd;" 
d="M128 896v-256h-128v128h640v-640h-640v128h128v-256h384v896h-384z" />
    <glyph glyph-name="Ͼ" unicode="&#x3fe;" 
d="M128 896v-896h384v256h128v-128h-640v640h640v-128h-128v256h-384zM256 384v128h128v-128h-128z" />
    <glyph glyph-name="Ͽ" unicode="&#x3ff;" 
d="M128 896v-256h-128v128h640v-640h-640v128h128v-256h384v896h-384zM256 384v128h128v-128h-128z" />
    <glyph glyph-name="Ѐ" unicode="&#x400;" 
d="M0 0v768h640v-128h-512v-128h256v-128h-256v-256h512v-128h-640zM128 1024v128h128v-256h80h48v128h-256z" />
    <glyph glyph-name="Ё" unicode="&#x401;" 
d="M0 896h640v-128h-512v-256h256v-128h-256v-256h512v-128h-640v896zM128 1152h128v-128h-128v128zM384 1152h128v-128h-128v128z" />
    <glyph glyph-name="Ђ" unicode="&#x402;" horiz-adv-x="897" 
d="M0 768v128h512v-128h-256v-256h384v-640h-128v128h256v384h-512v-384h-128v768h-128z" />
    <glyph glyph-name="Ѓ" unicode="&#x403;" horiz-adv-x="638" 
d="M0 0v768h512v-128h-384v-640h-128zM128 896v128h256v128h-128v-256h-80h-48z" />
    <glyph glyph-name="Є" unicode="&#x404;" 
d="M0 128v640h640v-128h-128v256h-384v-384h384v-128h-384v-384h384v256h128v-128h-640z" />
    <glyph glyph-name="Ѕ" unicode="&#x405;" 
d="M0 768v-256h512v-512h-384v256h-128v-128h640v256h-512v512h384v-256h128v128h-640z" />
    <glyph glyph-name="І" unicode="&#x406;" horiz-adv-x="512" 
d="M0 768v128h384v-128h-128v-640h128v-128h-384v128h128v640h-128z" />
    <glyph glyph-name="Ї" unicode="&#x407;" horiz-adv-x="512" 
d="M0 768v128h384v-128h-128v-640h128v-80v-48h-384v128h128v640h-128zM0 1024v128h128v-128h-128zM256 1024v128h128v-128h-128z" />
    <glyph glyph-name="Ј" unicode="&#x408;" horiz-adv-x="765" 
d="M128 768v128h512v-128h-128v-640h-512v128h128v-256h256v768h-256z" />
    <glyph glyph-name="Љ" unicode="&#x409;" horiz-adv-x="1150" 
d="M0 0h128v640h256v256h256v-384h256v-128h-256v-256h384v256h-128v-384h-384v768h-256v-384h-256v-384z" />
    <glyph glyph-name="Њ" unicode="&#x40a;" horiz-adv-x="1150" 
d="M0 0v896h128v-384h384v384h128v-384h256v-384h128v256h-384v-256h256v-128h-384v384h-384v-384h-128z" />
    <glyph glyph-name="Ћ" unicode="&#x40b;" horiz-adv-x="897" 
d="M0 768v128h512v-128h-256v-256h384v-512h128v384h-512v-384h-128v768h-128z" />
    <glyph glyph-name="Ќ" unicode="&#x40c;" 
d="M0 0v896h128v-384h256v128h256v256h-128v-896h128v384h-512v-384h-128zM256 896v128h256v128h-128v-256h-128z" />
    <glyph glyph-name="Ѝ" unicode="&#x40d;" 
d="M0 0v896h128v-640h256v256h128v384h128v-896h-128v384h-256v-256h-128v-128h-128zM128 1024v128h128v-256h128v128h-256z" />
    <glyph glyph-name="Ў" unicode="&#x40e;" 
d="M0 768v-384h512v384h128v-640h-512v-128h384v256h-384v512h-128zM0 1152v-128h640v128h-128v-256h-384v256h-128z" />
    <glyph glyph-name="Џ" unicode="&#x40f;" 
d="M0 128v768h128v-896h128v-256h128v256h128v896h128v-768h-640z" />
    <glyph glyph-name="А" unicode="&#x410;" 
d="M0 768h128v128h384v-128h128v-768h-128v256h-384v-256h-128v768zM512 768h-384v-384h384v384z" />
    <glyph glyph-name="Б" unicode="&#x411;" 
d="M192 896h320v-128h-384v-256h384v-128h128v-256h-128v-128h-192h-320v560v336h192zM512 384h-384v-256h384v256z" />
    <glyph glyph-name="В" unicode="&#x412;" 
d="M0 896h384v-128h128v-384h128v-256h-128v-128h-512v896zM384 768h-256v-256h256v256zM512 384h-384v-256h384v256z" />
    <glyph glyph-name="Г" unicode="&#x413;" horiz-adv-x="638" 
d="M0 0v896h512v-128h-384v-768h-128z" />
    <glyph glyph-name="Д" unicode="&#x414;" horiz-adv-x="897" 
d="M128 -128h-128v256h128v640h128v128h256v-128h128v-640h128v-256h-128v128h-512v-128zM512 768h-256v-640h256v640z" />
    <glyph glyph-name="Е" unicode="&#x415;" 
d="M0 896h640v-128h-512v-256h256v-128h-256v-256h512v-128h-640v896z" />
    <glyph glyph-name="Ж" unicode="&#x416;" horiz-adv-x="1024" 
d="M0 896h128v-128h128v-256h128v384h128v-384h128v256h128v128h128v-128h-128v-640h128v-128h-128v128h-128v256h-128v-384h-128v384h-128v-256h-48h-80v-128h-128v128h128v640h-128v128z" />
    <glyph glyph-name="З" unicode="&#x417;" 
d="M128 640h-128v128h128v128h384v-128h128v-256h-128v-128h128v-256h-128v-128h-384v128h-128v128h128v-128h384v256h-256v128h256v256h-384v-128z" />
    <glyph glyph-name="И" unicode="&#x418;" 
d="M0 896h128v-640h128v128h128v128h128v384h128v-896h-128v384h-128v-128h-128v-128h-128v-128h-128v336v560z" />
    <glyph glyph-name="Й" unicode="&#x419;" 
d="M48 896h80v-640h128v128h128v128h128v384h128v-896h-128v384h-128v-128h-128v-128h-128v-128h-128v560v336h48zM128 1152h384v-128h-384v128z" />
    <glyph glyph-name="К" unicode="&#x41a;" 
d="M0 896h128v-384h256v128h128v256h128v-256h-128v-128h-128v-128h128v-128h128v-256h-128v256h-128v128h-256v-384h-128v896z" />
    <glyph glyph-name="Л" unicode="&#x41b;" 
d="M128 0h-128v384h128v256h128v128h128v128h256v-896h-128v768h-128v-128h-128v-256h-128v-384z" />
    <glyph glyph-name="М" unicode="&#x41c;" 
d="M128 0h-128v896h128v-128h128v-128h128v128h128v128h128v-896h-128v640h-128v-128h-128v128h-128v-640z" />
    <glyph glyph-name="Н" unicode="&#x41d;" 
d="M0 0v896h128v-384h384v384h128v-896h-128v384h-384v-384h-128z" />
    <glyph glyph-name="О" unicode="&#x41e;" 
d="M0 128v640h640v-640h-512v-128h384v896h-384v-768h-128z" />
    <glyph glyph-name="П" unicode="&#x41f;" 
d="M0 0v896h640v-896h-128v768h-384v-768h-128z" />
    <glyph glyph-name="Р" unicode="&#x420;" 
d="M0 896h512v-128h128v-384h-128v-128h-384v-256h-128v896zM512 768h-384v-384h384v384z" />
    <glyph glyph-name="С" unicode="&#x421;" 
d="M0 768h128v128h384v-128h128v-128h-128v128h-384v-640h384v128h128v-128h-128v-128h-384v128h-128v640z" />
    <glyph glyph-name="Т" unicode="&#x422;" 
d="M0 896h640v-128h-256v-768h-128v768h-256v128z" />
    <glyph glyph-name="У" unicode="&#x423;" 
d="M0 896h128v-384h384v384h128v-640h-128v-128h-128v-128h-256v128h256v128h128v128h-384v128h-128v384z" />
    <glyph glyph-name="Ф" unicode="&#x424;" horiz-adv-x="1024" 
d="M0 768h128v128h640v-128h128v-512h-128v-128h-256v-128h-128v128h-256v128h-128v512zM384 768h-256v-512h256v512zM768 768h-256v-512h256v512z" />
    <glyph glyph-name="Х" unicode="&#x425;" 
d="M0 896h128v-256h128v-128h128v128h128v256h128v-256h-128v-128h-128v-128h128v-128h128v-256h-128v256h-128v128h-128v-128h-128v-256h-128v256h128v128h128v128h-128v128h-128v256z" />
    <glyph glyph-name="Ц" unicode="&#x426;" horiz-adv-x="897" 
d="M0 896h128v-768h384v768h128v-768h128v-256h-48h-80v128h-512v128h-128v768z" />
    <glyph glyph-name="Ч" unicode="&#x427;" 
d="M0 896h128v-384h384v384h128v-896h-128v384h-384v128h-128v384z" />
    <glyph glyph-name="Ш" unicode="&#x428;" 
d="M0 896h128v-768h128v640h128v-640h128v768h128v-896h-512v128h-128v768z" />
    <glyph glyph-name="Щ" unicode="&#x429;" horiz-adv-x="897" 
d="M0 896h128v-768h128v640h128v-640h128v768h128v-768h128v-256h-48h-80v128h-512v128h-128v768z" />
    <glyph glyph-name="Ъ" unicode="&#x42a;" horiz-adv-x="897" 
d="M0 896h256v-256h384v-128h128v-384h-128v-128h-512v768h-128v128zM640 512h-384v-384h384v384z" />
    <glyph glyph-name="Ы" unicode="&#x42b;" horiz-adv-x="1024" 
d="M0 896h128v-256h384v-128h128v-384h-48h-80v-128h-512v896zM512 512h-384v-384h384v384zM768 896h128v-896h-128v896z" />
    <glyph glyph-name="Ь" unicode="&#x42c;" 
d="M0 896h128v-256h384v-128h128v-384h-128v-128h-512v336v560zM512 512h-384v-384h384v384z" />
    <glyph glyph-name="Э" unicode="&#x42d;" 
d="M128 640h-128v128h128v128h384v-128h128v-640h-128v-128h-384v128h-128v128h128v-128h384v256h-256v128h256v256h-384v-128z" />
    <glyph glyph-name="Ю" unicode="&#x42e;" horiz-adv-x="897" 
d="M256 512v256h512v-640h-384v-128h256v896h-256v-768h-128v256h-128v-384h-128v896h128v-384h128z" />
    <glyph glyph-name="Я" unicode="&#x42f;" 
d="M0 768h128v128h512v-896h-128v384h-128v-128h-128v-128h-128v-48v-80h-128v128h128v128h128v128h-128v128h-128v256zM512 768h-384v-256h384v256z" />
    <glyph glyph-name="а" unicode="&#x430;" horiz-adv-x="638" 
d="M128 0v128h-128v128h128v128h256v128h-256v128h256v-128h128v-512h-384zM384 256h-256v-128h256v128z" />
    <glyph glyph-name="б" unicode="&#x431;" horiz-adv-x="638" 
d="M128 896v-768h-128v384h512v-384h-384v-128h256v640h-384v128h384v128h-256z" />
    <glyph glyph-name="в" unicode="&#x432;" horiz-adv-x="638" 
d="M0 640h384v-128h128v-128h-128v-128h128v-128h-128v-128h-384v640zM384 512h-256v-128h256v128zM384 256h-256v-128h256v128z" />
    <glyph glyph-name="г" unicode="&#x433;" horiz-adv-x="512" 
d="M128 0h-128v512h128v128h256v-128h-256v-512z" />
    <glyph glyph-name="д" unicode="&#x434;" horiz-adv-x="638" 
d="M0 512h128v128h256v128h-256v128h256v-128h128v-640h-128v-128h-256v128h-128v144v240zM384 512h-256v-384h256v384z" />
    <glyph glyph-name="е" unicode="&#x435;" horiz-adv-x="638" 
d="M0 512h128v128h256v-128h128v-256h-384v-128h256v-128h-256v128h-128v384zM384 512h-256v-128h256v128z" />
    <glyph glyph-name="ж" unicode="&#x436;" 
d="M0 640h128v-256h128v256h128v-256h128v256h128v-256h-128v-128h128v-256h-48h-80v256h-48h-80v-256h-128v256h-128v-256h-128v256h128v128h-128v256z" />
    <glyph glyph-name="з" unicode="&#x437;" horiz-adv-x="638" 
d="M128 384h-128v128h128v128h256v-128h128v-128h-128v-128h128v-128h-128v-128h-256v128h-128v128h128v-128h256v128h-128v128h128v128h-256v-128z" />
    <glyph glyph-name="и" unicode="&#x438;" horiz-adv-x="638" 
d="M0 640h128v-512h256v512h128v-640h-384v48v80h-128v512z" />
    <glyph glyph-name="й" unicode="&#x439;" horiz-adv-x="638" 
d="M128 768v128h256v-128h-256zM0 640h128v-512h256v512h128v-640h-384v128h-128v512z" />
    <glyph glyph-name="к" unicode="&#x43a;" horiz-adv-x="638" 
d="M0 0v640h128v-256h128v128h256v128h-128v-640h128v256h-384v-256h-128z" />
    <glyph glyph-name="л" unicode="&#x43b;" horiz-adv-x="638" 
d="M128 0h-128v256h128v256h128v128h256v-640h-128v512h-128v-256h-128v-256z" />
    <glyph glyph-name="м" unicode="&#x43c;" 
d="M128 0h-128v512h128v128h128v-128h128v128h128v-128h128v-512h-128v512h-128v-384h-128v384h-128v-512z" />
    <glyph glyph-name="н" unicode="&#x43d;" horiz-adv-x="638" 
d="M0 640h128v-256h256v256h128v-640h-128v256h-256v-256h-128v640z" />
    <glyph glyph-name="о" unicode="&#x43e;" horiz-adv-x="638" 
d="M0 128v384h512v-384h-384v-128h256v640h-256v-512h-128z" />
    <glyph glyph-name="п" unicode="&#x43f;" horiz-adv-x="638" 
d="M0 640h384v-128h128v-512h-128v512h-256v-512h-128v640z" />
    <glyph glyph-name="р" unicode="&#x440;" horiz-adv-x="638" 
d="M0 640h384v-128h128v-384h-128v-128h-256v-256h-128v896zM384 512h-256v-384h256v384z" />
    <glyph glyph-name="с" unicode="&#x441;" horiz-adv-x="638" 
d="M0 512h128v128h256v-128h128v-128h-128v128h-256v-384h256v128h128v-128h-128v-128h-256v128h-128v384z" />
    <glyph glyph-name="т" unicode="&#x442;" horiz-adv-x="512" 
d="M0 512v128h384v-128h-128v-512h-128v512h-128z" />
    <glyph glyph-name="у" unicode="&#x443;" horiz-adv-x="638" 
d="M0 640h128v-512h256v512h128v-768h-128v-128h-384v128h384v128h-256v128h-128v512z" />
    <glyph glyph-name="ф" unicode="&#x444;" 
d="M0 512h128v128h384v-128h128v-384h-128v-128h-128v-256h-128v256h-128v128h-128v384zM256 512h-128v-384h128v384zM512 512h-128v-384h128v384z" />
    <glyph glyph-name="х" unicode="&#x445;" horiz-adv-x="638" 
d="M0 640h128v-256h256v256h128v-256h-128v-128h128v-256h-128v256h-256v-256h-128v256h128v128h-128v256z" />
    <glyph glyph-name="ц" unicode="&#x446;" 
d="M0 640h128v-512h256v512h128v-512h128v-256h-128v128h-384v128h-128v512z" />
    <glyph glyph-name="ч" unicode="&#x447;" horiz-adv-x="638" 
d="M0 640h128v-256h256v256h128v-640h-128v256h-256v128h-128v256z" />
    <glyph glyph-name="ш" unicode="&#x448;" 
d="M0 640h128v-512h128v512h128v-512h128v512h128v-640h-512v128h-128v512z" />
    <glyph glyph-name="щ" unicode="&#x449;" horiz-adv-x="897" 
d="M0 640h128v-512h128v512h128v-512h128v512h128v-512h128v-256h-128v128h-512v128h-128v512z" />
    <glyph glyph-name="ъ" unicode="&#x44a;" 
d="M0 640h256v-256h256v-128h128v-128h-128v-128h-384v512h-128v128zM512 256h-256v-128h256v128z" />
    <glyph glyph-name="ы" unicode="&#x44b;" horiz-adv-x="897" 
d="M0 640h128v-256h256v-128h128v-128h-128v-128h-384v640zM384 256h-256v-80v-48h256v128zM640 640h128v-640h-128v640z" />
    <glyph glyph-name="ь" unicode="&#x44c;" horiz-adv-x="638" 
d="M0 640h128v-256h256v-128h128v-128h-128v-128h-144h-240v640zM384 256h-256v-128h256v128z" />
    <glyph glyph-name="э" unicode="&#x44d;" horiz-adv-x="638" 
d="M0 512v128h384v-128h128v-384h-128v-80v-48h-384v128h384v128h-256v128h256v128h-384z" />
    <glyph glyph-name="ю" unicode="&#x44e;" horiz-adv-x="897" 
d="M256 384v128h512v-384h-384v-128h256v640h-256v-512h-128v128h-128v-256h-128v640h128v-256h128z" />
    <glyph glyph-name="я" unicode="&#x44f;" horiz-adv-x="638" 
d="M0 512h128v128h384v-640h-128v256h-256v-256h-128v256h128v128h-128v128zM384 512h-256v-128h256v128z" />
    <glyph glyph-name="ѐ" unicode="&#x450;" horiz-adv-x="638" 
d="M0 128v384h384v80v48h-256v-256h256v128h128v-256h-384v-256h256v128h-384zM128 896v128h128v-256h128v80v48h-256z" />
    <glyph glyph-name="ё" unicode="&#x451;" horiz-adv-x="638" 
d="M0 512h128v128h256v-128h128v-256h-144h-240v-128h256v-128h-256v128h-128v384zM384 512h-256v-128h256v128zM128 896h128v-128h-128v128zM384 896h128v-128h-128v128z" />
    <glyph glyph-name="ђ" unicode="&#x452;" 
d="M0 640v128h128v128h128v-128h128v-128h-128v-128h256v-768h-128v128h256v512h-384v-384h-128v640h-128z" />
    <glyph glyph-name="ѓ" unicode="&#x453;" horiz-adv-x="512" 
d="M0 0v512h384v128h-256v-640h-128zM128 768v128h256v128h-128v-256h-128z" />
    <glyph glyph-name="є" unicode="&#x454;" horiz-adv-x="638" 
d="M0 512v-384h512v-128h-384v256h256v128h-256v256h384v-128h-512z" />
    <glyph glyph-name="ѕ" unicode="&#x455;" horiz-adv-x="638" 
d="M128 256v384h384v-128h-512v-128h384v-384h-384v128h512v128h-384z" />
    <glyph glyph-name="і" unicode="&#x456;" horiz-adv-x="256" 
d="M0 640v128h128v-128h-128zM0 0v512h128v-512h-128z" />
    <glyph glyph-name="ї" unicode="&#x457;" horiz-adv-x="512" 
d="M0 640v128h128v-128h-128zM256 640v128h128v-128h-128zM128 0v512h128v-512h-128z" />
    <glyph glyph-name="ј" unicode="&#x458;" horiz-adv-x="385" 
d="M128 -256v768h128v-640h-384v-128h256zM128 640v128h128v-128h-128z" />
    <glyph glyph-name="љ" unicode="&#x459;" horiz-adv-x="897" 
d="M0 0v256h256v384h256v-256h128v-256h128v128h-256v-128h128v-128h-256v512h-256v-512h-128z" />
    <glyph glyph-name="њ" unicode="&#x45a;" horiz-adv-x="897" 
d="M0 0v640h128v-256h256v256h128v-256h128v-256h128v128h-256v-128h128v-128h-256v256h-256v-256h-128z" />
    <glyph glyph-name="ћ" unicode="&#x45b;" 
d="M0 640v128h128v128h128v-128h128v-128h-128v-128h256v-512h80h48v384h-384v-384h-128v640h-128z" />
    <glyph glyph-name="ќ" unicode="&#x45c;" horiz-adv-x="638" 
d="M0 0v640h128v-256h256v256h128v-128h-256v-384h256v-128h-128v256h-256v-256h-128zM128 768v128h256v128h-128v-256h-128z" />
    <glyph glyph-name="ѝ" unicode="&#x45d;" horiz-adv-x="638" 
d="M0 640v-512h384v512h128v-640h-384v640h-128zM128 896v128h128v-256h128v128h-256z" />
    <glyph glyph-name="ў" unicode="&#x45e;" horiz-adv-x="638" 
d="M0 640v-512h384v512h128v-768h-512v-128h384v256h-256v640h-128zM0 896v128h128v-256h256v256h128v-128h-512z" />
    <glyph glyph-name="џ" unicode="&#x45f;" 
d="M0 128v512h128v-640h128v-256h128v256h128v640h128v-512h-640z" />
    <glyph glyph-name="Ѡ" unicode="&#x460;" horiz-adv-x="1024" 
d="M128 896v-896h256v256h128v-256h256v896h-128v-128h256v-640h-896v640h256v128h-128z" />
    <glyph glyph-name="ѡ" unicode="&#x461;" horiz-adv-x="1024" 
d="M128 640v-640h256v256h128v-256h256v640h-128v-128h256v-384h-896v384h256v128h-128z" />
    <glyph glyph-name="Ѣ" unicode="&#x462;" 
d="M0 640v128h128v128h128v-128h128v-128h-128v-128h256v-384h128v256h-384v-256h256v-128h-384v640h-128z" />
    <glyph glyph-name="ѣ" unicode="&#x463;" 
d="M128 640v128h128v-128h128v-128h-128v-128h256v-256h128v128h-384v-128h256v-128h-384v512h-128v128h128z" />
    <glyph glyph-name="Ѥ" unicode="&#x464;" horiz-adv-x="897" 
d="M0 560v336h48h80v-384h128v256h512v-128h-128v256h-256v-384h256v-128h-256v-384h256v256h128v-128h-512v256h-128v-384h-128v560z" />
    <glyph glyph-name="ѥ" unicode="&#x465;" horiz-adv-x="897" 
d="M0 0v640h128v-256h128v128h512v-128h-128v256h-256v-256h128v-80v-48h-128v-160v-96h256v256h128v-128h-512v128h-128v-256h-128z" />
    <glyph glyph-name="Ѧ" unicode="&#x466;" 
d="M256 0v896h128v-512h256v-384h-128v640h-384v-640h-128v384h384v-384h-128z" />
    <glyph glyph-name="ѧ" unicode="&#x467;" 
d="M256 0v768h128v-512h256v-256h-128v512h-384v-512h-128v256h384v-256h-128z" />
    <glyph glyph-name="Ѩ" unicode="&#x468;" horiz-adv-x="1024" 
d="M0 0v896h128v-384h256v128h256v256h-128v-896h128v640h128v-640h128v384h-512v-384h-128v384h-128v-384h-128z" />
    <glyph glyph-name="ѩ" unicode="&#x469;" horiz-adv-x="1024" 
d="M0 0v768h128v-384h256v128h256v256h-128v-768h128v512h128v-512h80h48v256h-512v-256h-128v256h-128v-256h-128z" />
    <glyph glyph-name="Ѫ" unicode="&#x46a;" 
d="M0 768v128h640v-128h-128v-128h-256v-128h-128v-512h-128v384h256v-384h128v384h256v-384h-128v512h-128v256h-128v-128h-128v128h-128z" />
    <glyph glyph-name="ѫ" unicode="&#x46b;" 
d="M0 640v128h640v-128h-128v-128h-128v128h-128v-128h128v-128h128v-384h128v256h-256v-256h-128v256h-256v-256h80h48v384h128v128h-128v128h-128z" />
    <glyph glyph-name="Ѭ" unicode="&#x46c;" horiz-adv-x="1024" 
d="M0 0v896h128v-384h384v128h256v128h128v128h-640v-128h128v-128h128v128h128v-256h128v-512h128v384h-256v-384h-128v384h-128v-384h-128v384h-128v-384h-128z" />
    <glyph glyph-name="ѭ" unicode="&#x46d;" horiz-adv-x="1024" 
d="M0 0v768h128v-384h384v128h256v128h128v128h-640v-128h128v-128h128v128h128v-256h128v-384h128v256h-256v-256h-80h-48v256h-128v-256h-128v256h-128v-256h-128z" />
    <glyph glyph-name="Ѯ" unicode="&#x46e;" 
d="M128 512v256h384v-768h-512v-128h384v-128h-256v384h512v256h-384v128h384v128h-640v-128h128zM128 1024v128h128v-256h128v256h128v-128h-384z" />
    <glyph glyph-name="ѯ" unicode="&#x46f;" horiz-adv-x="638" 
d="M128 384v256h256v-640h-384v-128h256v-128h-128v240v144h384v128h-256v128h256v128h-512v-128h128zM128 896v128h128v-256h128v256h128v-128h-384z" />
    <glyph glyph-name="Ѱ" unicode="&#x470;" 
d="M0 704v192h48h80v-640h128v-256h128v256h128v640h128v-512h-256v256h-128v-256h-256v320z" />
    <glyph glyph-name="ѱ" unicode="&#x471;" 
d="M0 256v384h128v-512h128v-128h128v128h128v512h128v-384h-256v256h-128v-256h-256z" />
    <glyph glyph-name="Ѳ" unicode="&#x472;" 
d="M0 128v640h128v-256h384v384h-384v-128h512v-640h-128v256h-384v-384h384v128h-512z" />
    <glyph glyph-name="ѳ" unicode="&#x473;" horiz-adv-x="638" 
d="M0 128v384h128v-128h256v256h-256v-128h384v-384h-128v128h-256v-256h256v128h-384z" />
    <glyph glyph-name="Ѵ" unicode="&#x474;" horiz-adv-x="897" 
d="M0 256v640h128v-768h384v640h256v128h-80h-48v-640h-256v-256h-128v256h-256z" />
    <glyph glyph-name="ѵ" unicode="&#x475;" 
d="M0 128v512h128v-640h128v256h256v384h128v-128h-256v-384h-384z" />
    <glyph glyph-name="Ѷ" unicode="&#x476;" horiz-adv-x="897" 
d="M0 256v640h128v-768h384v640h256v128h-80h-48v-640h-256v-256h-128v256h-256zM0 1152v128h128v-256h128v128h-256zM384 1152v128h128v-256h128v128h-256z" />
    <glyph glyph-name="ѷ" unicode="&#x477;" 
d="M0 128v512h128v-640h128v256h256v384h128v-128h-256v-384h-384zM0 896v128h128v-256h128v128h-256zM384 896v128h128v-256h128v128h-256z" />
    <glyph glyph-name="Ѹ" unicode="&#x478;" horiz-adv-x="1406" 
d="M128 896v-128h512v-640h-640v640h128v-768h384v896h-384zM768 640v-512h384v512h128v-768h-384v-128h256v256h-256v640h-128z" />
    <glyph glyph-name="ѹ" unicode="&#x479;" horiz-adv-x="1280" 
d="M128 640v-128h384v-384h-512v384h128v-512h256v640h-256zM640 640v-512h384v512h128v-768h-384v-128h256v256h-256v640h-128z" />
    <glyph glyph-name="Ѻ" unicode="&#x47a;" 
d="M128 0v896h128v128h128v-128h128v-768h128v640h-256v-128h-128v128h-256v-640h256v128h128v-128h128v-128h-128v-128h-128v128h-128z" />
    <glyph glyph-name="ѻ" unicode="&#x47b;" 
d="M128 128v512h128v128h128v-128h128v-640h-128v-80v-48h-128v128h-128v128h128v128h128v-128h256v384h-256v-128h-128v128h-256v-384h80h48z" />
    <glyph glyph-name="Ѽ" unicode="&#x47c;" horiz-adv-x="1024" 
d="M128 768v-768h256v256h128v-256h256v768h-128v-128h256v-512h-896v512h256v128h-128zM384 640v128h128v-128h-128zM256 896v128h320h192v-128h-256v256h-128v-256h-128z" />
    <glyph glyph-name="ѽ" unicode="&#x47d;" horiz-adv-x="1024" 
d="M128 640v-640h256v256h128v-256h256v640h-128v-128h256v-384h-896v384h256v128h-128zM384 512v128h128v-128h-128zM256 768v128h512v-128h-256v256h-128v-256h-128z" />
    <glyph glyph-name="Ѿ" unicode="&#x47e;" horiz-adv-x="1024" 
d="M128 896v-896h256v256h128v-256h256v896h-128v-128h256v-640h-896v640h256v128h-128zM256 1024v128h384v-128h-128v-128h-128v128h-128z" />
    <glyph glyph-name="ѿ" unicode="&#x47f;" horiz-adv-x="1024" 
d="M128 640v-640h256v256h128v-256h256v640h-128v-128h256v-384h-896v384h256v128h-128zM256 768v128h384v-128h-128v-128h-128v128h-128z" />
    <glyph glyph-name="Ҁ" unicode="&#x480;" 
d="M128 0v896h384v-256h128v128h-640v-640h512v-384h-128v256h-256z" />
    <glyph glyph-name="ҁ" unicode="&#x481;" horiz-adv-x="638" 
d="M128 0v640h256v-256h128v128h-512v-240v-144h384v-384h-128v256h-128z" />
    <glyph glyph-name="Ҋ" unicode="&#x48a;" horiz-adv-x="897" 
d="M0 0v896h128v-640h256v256h128v384h128v-768h128v-256h-128v128h-128v384h-256v-256h-128v-128h-128zM128 1024v128h384v-128h-384z" />
    <glyph glyph-name="ҋ" unicode="&#x48b;" 
d="M0 128v512h128v-640h128v256h80h48v384h128v-512h128v-256h-128v128h-128v128h-384zM128 768v128h256v-128h-256z" />
    <glyph glyph-name="Ҍ" unicode="&#x48c;" 
d="M128 768v128h128v-128h128v-128h-128v-80v-48h256v-384h128v256h-384v-256h256v-128h-384v640h-128v128h128z" />
    <glyph glyph-name="ҍ" unicode="&#x48d;" 
d="M128 768v128h128v-128h128v-128h-128v-256h256v-256h128v128h-384v-128h256v-128h-384v640h-128v128h128z" />
    <glyph glyph-name="Ҏ" unicode="&#x48e;" horiz-adv-x="897" 
d="M0 0v896h512v-128h-384v-384h256v256h-128v-128h256v256h128v-640h128v128h-640v-256h-128z" />
    <glyph glyph-name="ҏ" unicode="&#x48f;" 
d="M0 -256v896h384v-128h-256v-384h128v128h128v256h128v-640h128v128h-512v-256h-128z" />
    <glyph glyph-name="Ґ" unicode="&#x490;" horiz-adv-x="638" 
d="M0 0v896h384v128h128v-256h-384v-768h-128z" />
    <glyph glyph-name="ґ" unicode="&#x491;" horiz-adv-x="512" 
d="M0 0v640h256v128h128v-256h-256v-512h-128z" />
    <glyph glyph-name="Ғ" unicode="&#x492;" 
d="M128 752v144h192h320v-128h-384v-256h128v-128h-128v-384h-128v384h-128v128h128v240z" />
    <glyph glyph-name="ғ" unicode="&#x493;" horiz-adv-x="638" 
d="M128 384v256h384v-128h-256v-128h128v-128h-128v-256h-128v256h-128v128h128z" />
    <glyph glyph-name="Ҕ" unicode="&#x494;" 
d="M0 0v896h512v-128h-384v-256h384v-768h-256v128h384v512h-512v-384h-128z" />
    <glyph glyph-name="ҕ" unicode="&#x495;" horiz-adv-x="638" 
d="M0 0v640h512v-128h-384v-128h256v-640h-128v128h256v384h-384v-256h-128z" />
    <glyph glyph-name="Җ" unicode="&#x496;" horiz-adv-x="1024" 
d="M384 512v384h128v-384h128v256h256v128h-128v-1152h128v384h-256v256h-128v-384h-128v384h-128v-256h-256v-128h128v896h-128v-128h256v-256h128z" />
    <glyph glyph-name="җ" unicode="&#x497;" 
d="M256 640v-256h-256v256h128v-640h-128v256h256v-256h128v256h256v-512h-128v896h128v-256h-256v256h-128z" />
    <glyph glyph-name="Ҙ" unicode="&#x498;" 
d="M128 640v256h384v-896h-128v-256h-128v256h-128v256h-128v-128h640v256h-384v128h384v256h-640v-128h128z" />
    <glyph glyph-name="ҙ" unicode="&#x499;" horiz-adv-x="638" 
d="M128 384v256h256v-896h-128v256h-80h-48v256h-128v-128h512v128h-256v128h256v128h-512v-128h128z" />
    <glyph glyph-name="Қ" unicode="&#x49a;" horiz-adv-x="897" 
d="M0 0v896h128v-384h256v128h256v256h-128v-896h256v-256h-128v640h-512v-384h-128z" />
    <glyph glyph-name="қ" unicode="&#x49b;" 
d="M0 0v640h128v-256h128v128h256v128h-128v-640h256v-256h-128v512h-384v-256h-128z" />
    <glyph glyph-name="Ҝ" unicode="&#x49c;" 
d="M0 0v896h128v-384h80h48v256h128v-128h256v256h-128v-896h128v384h-256v-128h-128v128h-128v-384h-128z" />
    <glyph glyph-name="ҝ" unicode="&#x49d;" 
d="M0 0v640h128v-256h128v256h128v-128h256v128h-128v-640h128v256h-256v-128h-128v128h-128v-256h-128z" />
    <glyph glyph-name="Ҟ" unicode="&#x49e;" horiz-adv-x="897" 
d="M128 768v128h80h48v-128h128v-128h-128v-128h256v128h256v256h-128v-896h128v384h-512v-384h-128v640h-128v128h128z" />
    <glyph glyph-name="ҟ" unicode="&#x49f;" 
d="M128 768v128h128v-128h128v-128h-128v-256h128v128h256v128h-128v-640h128v160v96h-384v-256h-128v640h-128v128h128z" />
    <glyph glyph-name="Ҡ" unicode="&#x4a0;" horiz-adv-x="897" 
d="M0 768v128h256v-384h256v128h256v256h-128v-896h128v384h-512v-384h-128v768h-128z" />
    <glyph glyph-name="ҡ" unicode="&#x4a1;" 
d="M0 512v128h256v-256h128v128h256v128h-128v-640h128v256h-384v-256h-128v512h-128z" />
    <glyph glyph-name="Ң" unicode="&#x4a2;" horiz-adv-x="897" 
d="M0 0v896h128v-384h384v384h128v-1152h128v256h-256v384h-384v-384h-128z" />
    <glyph glyph-name="ң" unicode="&#x4a3;" 
d="M0 0v640h128v-256h256v256h128v-896h128v256h-256v256h-256v-256h-128z" />
    <glyph glyph-name="Ҥ" unicode="&#x4a4;" horiz-adv-x="897" 
d="M0 0v896h128v-384h256v384h384v-128h-256v-768h-128v384h-256v-384h-128z" />
    <glyph glyph-name="ҥ" unicode="&#x4a5;" horiz-adv-x="897" 
d="M0 0v640h128v-256h256v256h384v-128h-256v-512h-128v256h-256v-256h-128z" />
    <glyph glyph-name="Ҧ" unicode="&#x4a6;" horiz-adv-x="1150" 
d="M0 0v896h640v-384h256v-768h-256v128h384v512h-384v-384h-128v768h-384v-768h-128z" />
    <glyph glyph-name="ҧ" unicode="&#x4a7;" horiz-adv-x="897" 
d="M0 0v640h512v-256h128v-640h-128v128h256v384h-256v-256h-128v512h-256v-512h-128z" />
    <glyph glyph-name="Ҩ" unicode="&#x4a8;" horiz-adv-x="897" 
d="M128 0v896h256v-128h-384v-640h768v-128h-128v768h-128v-128h256v-384h-384v384h128v-640h-384z" />
    <glyph glyph-name="ҩ" unicode="&#x4a9;" 
d="M128 0v640h128v-128h-256v-384h640v-128h-128v512h-128v-128h256v-128h-384v128h128v-384h-256z" />
    <glyph glyph-name="Ҫ" unicode="&#x4aa;" 
d="M128 0v896h384v-256h128v128h-640v-640h640v128h-128v-256h-128v-256h-128v256h-128z" />
    <glyph glyph-name="ҫ" unicode="&#x4ab;" horiz-adv-x="638" 
d="M128 0v640h256v-256h128v128h-512v-384h512v128h-128v-512h-128v256h-128z" />
    <glyph glyph-name="Ҭ" unicode="&#x4ac;" 
d="M0 768v128h640v-128h-256v-1024h128v256h-256v768h-256z" />
    <glyph glyph-name="ҭ" unicode="&#x4ad;" horiz-adv-x="512" 
d="M0 512v128h384v-128h-128v-768h128v256h-256v512h-128z" />
    <glyph glyph-name="Ү" unicode="&#x4ae;" 
d="M0 512v384h128v-512h384v512h128v-384h-256v-512h-128v512h-256z" />
    <glyph glyph-name="ү" unicode="&#x4af;" 
d="M0 256v384h128v-512h384v512h128v-384h-256v-512h-128v512h-256z" />
    <glyph glyph-name="Ұ" unicode="&#x4b0;" 
d="M0 512v384h128v-512h384v512h128v-384h-256v-256h128v-128h-128v-128h-128v128h-128v128h128v256h-256z" />
    <glyph glyph-name="ұ" unicode="&#x4b1;" 
d="M0 256v384h128v-512h384v512h128v-384h-256v-256h128v-128h-128v-128h-128v128h-128v128h128v256h-256z" />
    <glyph glyph-name="Ҳ" unicode="&#x4b2;" horiz-adv-x="897" 
d="M0 640v256h128v-384h384v384h128v-256h-256v-384h256v-512h80h48v256h-256v384h-384v-384h-128v256h256v384h-256z" />
    <glyph glyph-name="ҳ" unicode="&#x4b3;" 
d="M0 384v256h128v-640h-128v256h512v-512h128v256h-256v640h128v-256h-512z" />
    <glyph glyph-name="Ҵ" unicode="&#x4b4;" horiz-adv-x="897" 
d="M0 896v-128h128v-640h384v768h128v-768h128v-384h-128v256h-384v768h128v128h-384z" />
    <glyph glyph-name="ҵ" unicode="&#x4b5;" horiz-adv-x="897" 
d="M0 640v-128h128v-384h384v512h128v-512h128v-384h-128v256h-384v512h128v128h-384z" />
    <glyph glyph-name="Ҷ" unicode="&#x4b6;" 
d="M0 896v-512h384v512h128v-1152h128v256h-256v256h-256v640h-128z" />
    <glyph glyph-name="ҷ" unicode="&#x4b7;" 
d="M0 640v-384h384v384h128v-896h128v256h-256v128h-256v512h-128z" />
    <glyph glyph-name="Ҹ" unicode="&#x4b8;" 
d="M0 896v-512h256v128h128v-128h128v512h128v-896h-128v256h-128v-128h-128v128h-128v640h-128z" />
    <glyph glyph-name="ҹ" unicode="&#x4b9;" 
d="M0 640v-256h256v128h128v-128h128v256h128v-640h-128v256h-128v-128h-128v128h-128v384h-128z" />
    <glyph glyph-name="Һ" unicode="&#x4ba;" 
d="M0 0v896h128v-256h384v-640h128v512h-512v-512h-128z" />
    <glyph glyph-name="һ" unicode="&#x4bb;" horiz-adv-x="638" 
d="M0 0v896h128v-256h256v-640h128v512h-384v-512h-128z" />
    <glyph glyph-name="Ҽ" unicode="&#x4bc;" horiz-adv-x="1024" 
d="M0 384v256h128v-128h128v256h512v128h-384v-384h384v256h128v-384h-512v-384h384v256h128v-128h-640v256h-256z" />
    <glyph glyph-name="ҽ" unicode="&#x4bd;" 
d="M0 256v128h128v128h128v-128h256v256h-256v-128h384v-256h-384v-256h384v128h-512v128h-128z" />
    <glyph glyph-name="Ҿ" unicode="&#x4be;" horiz-adv-x="1024" 
d="M0 384v256h128v-128h128v256h512v128h-384v-384h384v256h128v-384h-512v-384h80h48v-256h128v256h128v256h128v-128h-640v256h-256z" />
    <glyph glyph-name="ҿ" unicode="&#x4bf;" 
d="M0 256v128h128v128h384v128h-256v-256h256v128h128v-256h-384v-256h128v-256h128v256h128v128h-512v128h-128z" />
    <glyph glyph-name="Ӏ" unicode="&#x4c0;" horiz-adv-x="512" 
d="M0 768v128h384v-128h-128v-640h128v-128h-384v128h128v640h-128z" />
    <glyph glyph-name="Ӂ" unicode="&#x4c1;" horiz-adv-x="1024" 
d="M384 512v256h128v-256h128v256h256v128h-128v-896h128v128h-256v256h-128v-256h-128v256h-128v-256h-256v-128h128v896h-128v-128h256v-256h128zM128 1152v-128h640v128h-128v-256h-384v256h-128z" />
    <glyph glyph-name="ӂ" unicode="&#x4c2;" 
d="M256 640v-256h-256v256h128v-640h-128v256h256v-256h128v256h256v-256h-128v640h128v-256h-256v256h-128zM0 1024v-128h640v128h-128v-256h-384v256h-128z" />
    <glyph glyph-name="Ӄ" unicode="&#x4c3;" 
d="M0 0v896h128v-384h256v128h256v256h-80h-48v-1152h-256v128h384v512h-512v-384h-128z" />
    <glyph glyph-name="ӄ" unicode="&#x4c4;" horiz-adv-x="638" 
d="M0 0v640h128v-256h128v128h256v128h-128v-896h-128v128h256v384h-384v-256h-128z" />
    <glyph glyph-name="Ӆ" unicode="&#x4c5;" 
d="M256 512v384h256v-1152h128v256h-256v768h-256v-768h-128v512h256z" />
    <glyph glyph-name="ӆ" unicode="&#x4c6;" 
d="M256 256v384h256v-896h128v256h-256v512h-256v-512h-128v256h256z" />
    <glyph glyph-name="Ӈ" unicode="&#x4c7;" 
d="M0 0v896h128v-384h384v384h128v-896h-256v-128h128v512h-384v-384h-128z" />
    <glyph glyph-name="ӈ" unicode="&#x4c8;" horiz-adv-x="638" 
d="M0 0v640h128v-256h256v256h128v-768h-256v-128h128v512h-256v-256h-128z" />
    <glyph glyph-name="Ӊ" unicode="&#x4c9;" horiz-adv-x="897" 
d="M0 0v896h128v-384h384v384h128v-1152h128v256h-256v384h-384v-384h-128z" />
    <glyph glyph-name="ӊ" unicode="&#x4ca;" 
d="M0 0v640h128v-256h256v256h128v-896h128v256h-256v256h-256v-256h-128z" />
    <glyph glyph-name="Ӌ" unicode="&#x4cb;" 
d="M0 896v-512h512v512h128v-896h-256v-256h128v512h-384v640h-128z" />
    <glyph glyph-name="ӌ" unicode="&#x4cc;" horiz-adv-x="638" 
d="M0 640v-256h384v256h128v-640h-256v-256h128v512h-256v384h-128z" />
    <glyph glyph-name="Ӎ" unicode="&#x4cd;" horiz-adv-x="897" 
d="M0 0v896h128v-128h128v-384h128v384h128v128h128v-1152h128v256h-256v640h-384v-640h-128z" />
    <glyph glyph-name="ӎ" unicode="&#x4ce;" horiz-adv-x="897" 
d="M0 0v640h128v-128h128v-256h128v256h128v128h128v-896h128v256h-256v384h-384v-384h-128z" />
    <glyph glyph-name="ӏ" unicode="&#x4cf;" horiz-adv-x="256" 
d="M0 0v896h128v-896h-128z" />
    <glyph glyph-name="Ӑ" unicode="&#x4d0;" 
d="M128 640v-256h384v384h-384v-128h512v-640h-128v256h-384v-256h-128v640h128zM0 1152v-128h640v128h-128v-256h-384v256h-48h-80z" />
    <glyph glyph-name="ӑ" unicode="&#x4d1;" horiz-adv-x="638" 
d="M128 640v-128h384v-512h-384v128h256v128h-384v-128h128v256h256v256h-256zM0 896v128h128v-256h256v256h128v-128h-512z" />
    <glyph glyph-name="Ӓ" unicode="&#x4d2;" 
d="M128 896v-128h512v-768h-128v256h-384v-256h-128v768h128v-384h384v512h-384zM128 1024v128h128v-128h-128zM384 1024v128h128v-128h-128z" />
    <glyph glyph-name="ӓ" unicode="&#x4d3;" horiz-adv-x="638" 
d="M128 640v-128h384v-512h-384v256h-128v-128h384v128h-256v128h256v256h-256zM128 768v128h128v-128h-128zM384 768v128h128v-128h-128z" />
    <glyph glyph-name="Ӕ" unicode="&#x4d4;" horiz-adv-x="1024" 
d="M0 0v768h128v-256h256v384h-256v-128h768v128h-384v-384h256v-128h-256v-160v-96h384v-128h-512v384h-256v-384h-80h-48z" />
    <glyph glyph-name="ӕ" unicode="&#x4d5;" horiz-adv-x="1024" 
d="M128 592v-80h640v128h-256v-256h256v128h128v-256h-384v-256h256v128h-384v128h-256v-256h256v128h-384v256h384v256h-160h-96v-48z" />
    <glyph glyph-name="Ӗ" unicode="&#x4d6;" 
d="M0 0v768h640v-128h-512v-128h256v-128h-256v-256h512v-128h-640zM0 1152v-128h640v128h-128v-256h-384v96v160h-128z" />
    <glyph glyph-name="ӗ" unicode="&#x4d7;" horiz-adv-x="638" 
d="M128 640v-128h384v-256h-384v-256h256v128h-384v384h128v-128h256v256h-256zM0 896v128h128v-256h256v256h128v-128h-512z" />
    <glyph glyph-name="Ә" unicode="&#x4d8;" 
d="M128 800v-160h-128v128h640v-640h-128v256h-384v-384h384v128h-512v384h512v384h-240h-144v-96z" />
    <glyph glyph-name="ә" unicode="&#x4d9;" horiz-adv-x="638" 
d="M128 640v-128h384v-384h-128v128h-256v-256h256v128h-384v256h384v256h-256z" />
    <glyph glyph-name="Ӛ" unicode="&#x4da;" 
d="M128 800v-160h-128v128h640v-640h-128v256h-384v-384h384v128h-512v384h512v384h-240h-144v-96zM128 1024v128h128v-128h-128zM384 1024v128h128v-128h-128z" />
    <glyph glyph-name="ӛ" unicode="&#x4db;" horiz-adv-x="638" 
d="M128 640v-128h384v-384h-128v128h-256v-256h256v128h-384v256h384v256h-256zM128 768v128h128v-128h-128zM384 768v128h128v-128h-128z" />
    <glyph glyph-name="Ӝ" unicode="&#x4dc;" horiz-adv-x="1024" 
d="M0 896h128v-128h128v-256h128v384h128v-384h128v256h128v128h128v-128h-128v-640h128v-128h-128v128h-128v256h-128v-384h-128v384h-128v-256h-48h-80v-128h-128v128h128v640h-128v128zM256 1024v128h128v-128h-128zM512 1024v128h128v-128h-128z" />
    <glyph glyph-name="ӝ" unicode="&#x4dd;" 
d="M0 640h128v-256h128v256h128v-256h128v256h128v-256h-128v-128h128v-256h-48h-80v256h-48h-80v-256h-128v256h-128v-256h-128v256h128v128h-128v256zM128 768v128h128v-128h-128zM384 768v128h128v-128h-128z" />
    <glyph glyph-name="Ӟ" unicode="&#x4de;" 
d="M128 640h-128v128h128v128h384v-128h128v-256h-128v-128h128v-256h-128v-128h-384v128h-128v128h128v-128h384v256h-256v128h256v256h-384v-128zM128 1024v128h128v-128h-128zM384 1024v128h128v-128h-128z" />
    <glyph glyph-name="ӟ" unicode="&#x4df;" horiz-adv-x="638" 
d="M128 384h-128v128h128v128h256v-128h128v-128h-128v-128h128v-128h-128v-128h-256v128h-128v128h128v-128h256v128h-128v128h128v128h-256v-128zM128 768v128h128v-128h-128zM384 768v128h128v-128h-128z" />
    <glyph glyph-name="Ӡ" unicode="&#x4e0;" 
d="M0 768v128h640v-128h-128v-128h-256v-128h-128v-128h512v-256h-640v128h128v-256h384v512h-128v256h-384z" />
    <glyph glyph-name="ӡ" unicode="&#x4e1;" horiz-adv-x="638" 
d="M0 512v128h512v-256h-256v-128h-128v-128h384v-256h-512v128h128v-256h256v768h-384z" />
    <glyph glyph-name="Ӣ" unicode="&#x4e2;" 
d="M48 896h80v-640h128v128h128v128h128v384h128v-896h-128v384h-128v-128h-128v-128h-128v-128h-128v560v336h48zM128 1152h384v-128h-384v128z" />
    <glyph glyph-name="ӣ" unicode="&#x4e3;" horiz-adv-x="638" 
d="M128 768v128h256v-128h-256zM0 640h128v-512h256v512h128v-640h-384v128h-128v512z" />
    <glyph glyph-name="Ӥ" unicode="&#x4e4;" 
d="M0 896h128v-640h128v128h128v128h128v384h128v-896h-128v384h-128v-128h-128v-128h-128v-128h-128v336v560zM128 1024v128h128v-128h-128zM384 1024v128h128v-128h-128z" />
    <glyph glyph-name="ӥ" unicode="&#x4e5;" horiz-adv-x="638" 
d="M128 768v128h128v-128h-128zM0 640h128v-512h256v512h128v-640h-384v128h-128v512zM384 768v128h128v-128h-128z" />
    <glyph glyph-name="Ӧ" unicode="&#x4e6;" 
d="M0 128v640h640v-640h-512v-128h384v896h-384v-768h-128zM128 1024v128h128v-128h-128zM384 1024v128h128v-128h-128z" />
    <glyph glyph-name="ӧ" unicode="&#x4e7;" horiz-adv-x="638" 
d="M0 128v384h512v-384h-384v-128h256v640h-256v-512h-128zM128 768v128h128v-128h-128zM384 768v128h128v-128h-128z" />
    <glyph glyph-name="Ө" unicode="&#x4e8;" 
d="M128 896v-128h512v-640h-512v-128h384v384h-384v-256h-128v640h128v-256h384v384h-384z" />
    <glyph glyph-name="ө" unicode="&#x4e9;" horiz-adv-x="638" 
d="M128 640v-256h256v128h128v-384h-128v128h-256v-256h256v128h-384v384h384v128h-256z" />
    <glyph glyph-name="Ӫ" unicode="&#x4ea;" 
d="M128 896v-128h512v-640h-512v-128h384v384h-384v-256h-128v640h128v-256h384v384h-384zM128 1024v128h128v-128h-128zM384 1024v128h128v-128h-128z" />
    <glyph glyph-name="ӫ" unicode="&#x4eb;" horiz-adv-x="638" 
d="M128 640v-256h256v128h128v-384h-128v128h-256v-256h256v128h-384v384h384v128h-256zM128 768v128h128v-128h-128zM384 768v128h128v-128h-128z" />
    <glyph glyph-name="Ӭ" unicode="&#x4ec;" 
d="M128 640h-128v128h128v128h384v-128h128v-640h-128v-128h-384v128h-128v128h128v-128h384v256h-256v128h256v256h-384v-128zM128 1024v128h128v-128h-128zM384 1104v48h48h80v-128h-128v80z" />
    <glyph glyph-name="ӭ" unicode="&#x4ed;" horiz-adv-x="638" 
d="M0 512v128h384v-128h128v-384h-128v-80v-48h-384v128h384v128h-256v128h256v128h-384zM128 768v128h128v-128h-128zM384 768v128h128v-128h-128z" />
    <glyph glyph-name="Ӯ" unicode="&#x4ee;" 
d="M0 896h128v-384h384v384h128v-640h-128v-128h-128v-128h-256v128h256v128h128v128h-384v128h-128v384zM128 1024v128h384v-128h-384z" />
    <glyph glyph-name="ӯ" unicode="&#x4ef;" horiz-adv-x="638" 
d="M0 640h128v-512h256v512h128v-768h-128v-128h-384v128h384v128h-256v128h-128v512zM128 768v128h256v-128h-256z" />
    <glyph glyph-name="Ӱ" unicode="&#x4f0;" 
d="M0 896h128v-384h384v384h128v-640h-128v-128h-128v-128h-256v128h256v128h128v128h-384v128h-128v384zM128 1024v128h128v-128h-128zM384 1024v128h128v-128h-128z" />
    <glyph glyph-name="ӱ" unicode="&#x4f1;" horiz-adv-x="638" 
d="M0 640h128v-512h256v512h128v-768h-128v-128h-384v128h384v128h-256v128h-128v512zM128 768v128h128v-128h-128zM384 768v128h128v-128h-128z" />
    <glyph glyph-name="Ӳ" unicode="&#x4f2;" 
d="M0 896h128v-384h384v384h128v-640h-128v-128h-128v-128h-256v128h256v128h128v128h-384v128h-128v384zM128 1024v256h128v-128h-256v-128h128zM512 1024v256h128v-128h-256v-128h128z" />
    <glyph glyph-name="ӳ" unicode="&#x4f3;" horiz-adv-x="638" 
d="M0 640h128v-512h256v512h128v-768h-128v-128h-384v128h384v128h-256v128h-128v512zM128 768v256h128v-80v-48h-256v-128h128zM512 768v256h128v-128h-256v-128h80h48z" />
    <glyph glyph-name="Ӵ" unicode="&#x4f4;" 
d="M0 896h128v-384h384v384h128v-896h-128v384h-384v128h-128v384zM128 1024v128h128v-128h-128zM384 1024v128h128v-128h-128z" />
    <glyph glyph-name="ӵ" unicode="&#x4f5;" horiz-adv-x="638" 
d="M0 640h128v-256h256v256h128v-640h-128v256h-256v128h-128v256zM128 768v128h128v-128h-128zM384 768v128h128v-128h-128z" />
    <glyph glyph-name="Ӷ" unicode="&#x4f6;" horiz-adv-x="638" 
d="M0 0v896h512v-128h-384v-1024h128v256h-256z" />
    <glyph glyph-name="ӷ" unicode="&#x4f7;" horiz-adv-x="512" 
d="M0 0v640h384v-128h-256v-768h128v256h-256z" />
    <glyph glyph-name="Ӹ" unicode="&#x4f8;" horiz-adv-x="1024" 
d="M0 896h128v-256h384v-128h128v-384h-48h-80v-128h-512v896zM512 512h-384v-384h384v384zM768 896h128v-896h-128v896zM256 1024v128h128v-128h-128zM512 1024v128h128v-128h-128z" />
    <glyph glyph-name="ӹ" unicode="&#x4f9;" horiz-adv-x="897" 
d="M0 640h128v-256h256v-128h128v-128h-128v-128h-384v640zM384 256h-256v-80v-48h256v128zM640 640h128v-640h-128v640zM256 768v128h128v-128h-128zM512 768v128h128v-128h-128z" />
    <glyph glyph-name="Ӻ" unicode="&#x4fa;" 
d="M128 512v384h512v-128h-384v-256h128v-128h-128v-640h128v256h-256v384h-128v128h128z" />
    <glyph glyph-name="ӻ" unicode="&#x4fb;" horiz-adv-x="638" 
d="M128 384v256h384v-128h-256v-128h128v-128h-128v-512h128v256h-256v256h-128v128h128z" />
    <glyph glyph-name="Ӽ" unicode="&#x4fc;" horiz-adv-x="897" 
d="M0 512v384h128v-896h-128v384h640v-640h128v256h-256v896h128v-384h-640z" />
    <glyph glyph-name="ӽ" unicode="&#x4fd;" 
d="M0 384v256h128v-640h-128v256h512v-512h128v256h-256v640h128v-256h-512z" />
    <glyph glyph-name="Ӿ" unicode="&#x4fe;" 
d="M0 768v128h128v-256h384v256h128v-128h-256v-256h256v-128h-256v-256h256v-128h-128v256h-384v-256h-128v128h256v256h-256v128h256v256h-256z" />
    <glyph glyph-name="ӿ" unicode="&#x4ff;" horiz-adv-x="638" 
d="M0 640v-128h512v128h-128v-256h128v-128h-128v-256h128v128h-512v-128h128v256h-128v128h128v256h-128z" />
    <glyph glyph-name="֏" unicode="&#x58f;" 
d="M128 896v-256h-128v128h512v-256h128v-128h-128v-128h128v-128h-128v-128h-128v128h-128v128h128v128h-128v128h128v384h-256z" />
    <glyph glyph-name="߾" unicode="&#x7fe;" horiz-adv-x="1024" 
d="M128 848v-80h640v128h-256v-384h256v256h128v-384h-384v-128h128v-128h-128v-128h-128v128h-128v128h128v128h-384v384h128v-256h256v384h-160h-96v-48z" />
    <glyph glyph-name="߿" unicode="&#x7ff;" 
d="M0 640v128h128v128h128v-128h128v-128h-128v-128h256v-384h128v256h-384v-256h256v-128h-384v640h-128z" />
    <glyph glyph-name="฿" unicode="&#xe3f;" 
d="M0 0v768h256v128h128v-128h128v-256h128v128h-256v-128h128v-384h128v256h-256v-256h128v-128h-128v-128h-128v128h-256zM128 640v-128h128v128h-128zM128 288v-160h128v256h-80h-48v-96z" />
    <glyph glyph-name="ẞ" unicode="&#x1e9e;" 
d="M128 0h-128v768h128v128h256v-128h128v-384h128v-256h-128v-128h-256v128h256v256h-256v128h128v256h-256v-768z" />
    <glyph glyph-name="ἀ" unicode="&#x1f00;" 
d="M128 0v640h256v-128h-384v-384h640v-128h-128v640h128v-128h-256v-512h-256zM128 896v128h256v-256h-128v128h-128z" />
    <glyph glyph-name="ἁ" unicode="&#x1f01;" 
d="M128 0v640h256v-128h-384v-384h640v-128h-128v640h128v-128h-256v-512h-256zM128 768v256h256v-128h-128v-128h-128z" />
    <glyph glyph-name="ἂ" unicode="&#x1f02;" 
d="M128 0v640h256v-128h-384v-384h640v-128h-128v640h128v-128h-256v-512h-256zM0 896v128h256v-256h-128v128h-128zM384 896v128h128v-256h128v128h-256z" />
    <glyph glyph-name="ἃ" unicode="&#x1f03;" 
d="M128 0v640h256v-128h-384v-384h640v-128h-128v640h128v-128h-256v-512h-256zM0 768v256h256v-128h-128v-128h-128zM384 896v128h128v-256h128v128h-256z" />
    <glyph glyph-name="ἄ" unicode="&#x1f04;" 
d="M128 0v640h256v-128h-384v-384h640v-128h-128v640h128v-128h-256v-512h-256zM0 896v128h256v-256h-128v128h-128zM512 768v256h128v-128h-256v-128h128z" />
    <glyph glyph-name="ἅ" unicode="&#x1f05;" 
d="M128 0v640h256v-128h-384v-384h640v-128h-128v640h128v-128h-256v-512h-256zM0 768v256h256v-128h-128v-128h-128zM512 768v256h128v-128h-256v-128h128z" />
    <glyph glyph-name="ἆ" unicode="&#x1f06;" 
d="M128 0v512h256v-128h-384v-256h640v-128h-128v512h128v-128h-256v-384h-256zM256 768v128h256v-256h-128v128h-128zM256 1024v256h128v-256h128v256h128v-128h-512v-128h128z" />
    <glyph glyph-name="ἇ" unicode="&#x1f07;" 
d="M128 0v512h256v-128h-384v-256h640v-128h-128v512h128v-128h-256v-384h-256zM256 640v256h256v-128h-128v-128h-128zM256 1024v256h128v-256h128v256h128v-128h-512v-128h128z" />
    <glyph glyph-name="Ἀ" unicode="&#x1f08;" horiz-adv-x="1153" 
d="M384 768h128v128h384v-128h128v-768h-128v256h-384v-256h-128v768zM896 768h-384v-384h384v384zM0 896v128h256v-256h-128v128h-128z" />
    <glyph glyph-name="Ἁ" unicode="&#x1f09;" horiz-adv-x="1024" 
d="M256 768h128v128h384v-128h128v-768h-128v256h-384v-256h-128v768zM768 768h-384v-384h384v384zM0 768v256h256v-128h-128v-128h-128z" />
    <glyph glyph-name="Ἂ" unicode="&#x1f0a;" horiz-adv-x="1406" 
d="M640 768h128v128h384v-128h128v-768h-128v256h-384v-256h-128v768zM1152 768h-384v-384h384v384zM384 896v128h128v-256h128v128h-256zM0 896v128h256v-256h-128v128h-128z" />
    <glyph glyph-name="Ἃ" unicode="&#x1f0b;" horiz-adv-x="1406" 
d="M640 768h128v128h384v-128h128v-768h-128v256h-384v-256h-128v768zM1152 768h-384v-384h384v384zM384 896v128h128v-256h128v128h-256zM0 768v256h256v-128h-128v-128h-128z" />
    <glyph glyph-name="Ἄ" unicode="&#x1f0c;" horiz-adv-x="1406" 
d="M640 768h128v128h384v-128h128v-768h-128v256h-384v-256h-128v768zM1152 768h-384v-384h384v384zM512 768v256h128v-128h-256v-128h128zM0 896v128h256v-256h-128v128h-128z" />
    <glyph glyph-name="Ἅ" unicode="&#x1f0d;" horiz-adv-x="1406" 
d="M640 768h128v128h384v-128h128v-768h-128v256h-384v-256h-128v768zM1152 768h-384v-384h384v384zM512 768v256h128v-128h-256v-128h128zM0 768v256h256v-128h-128v-128h-128z" />
    <glyph glyph-name="Ἆ" unicode="&#x1f0e;" horiz-adv-x="1024" 
d="M256 768h128v128h384v-128h128v-768h-128v256h-384v-256h-128v768zM768 768h-384v-384h384v384zM0 896v128h256v-256h-128v128h-128zM128 1152v256h128v-256h128v256h128v-128h-512v-128h128z" />
    <glyph glyph-name="Ἇ" unicode="&#x1f0f;" horiz-adv-x="1024" 
d="M256 768h128v128h384v-128h128v-768h-128v256h-384v-256h-128v768zM768 768h-384v-384h384v384zM0 768v256h256v-128h-128v-128h-128zM128 1152v256h128v-256h128v256h128v-128h-512v-128h128z" />
    <glyph glyph-name="ἐ" unicode="&#x1f10;" horiz-adv-x="638" 
d="M128 0v640h256v-256h128v128h-512v-128h256v-128h-256v-128h512v128h-128v-256h-256zM128 896v128h256v-256h-128v128h-128z" />
    <glyph glyph-name="ἑ" unicode="&#x1f11;" horiz-adv-x="638" 
d="M128 0v640h256v-256h128v128h-512v-128h256v-128h-256v-128h512v128h-128v-256h-256zM128 768v256h256v-128h-128v-128h-128z" />
    <glyph glyph-name="ἒ" unicode="&#x1f12;" horiz-adv-x="638" 
d="M128 0v640h256v-256h128v128h-512v-128h256v-128h-256v-128h512v128h-128v-256h-256zM0 896v128h256v-256h-128v128h-128zM384 976v48h48h80v-256h128v128h-256v80z" />
    <glyph glyph-name="ἓ" unicode="&#x1f13;" horiz-adv-x="638" 
d="M128 0v640h256v-256h128v128h-512v-128h256v-128h-256v-128h512v128h-128v-256h-256zM0 768v256h256v-128h-128v-128h-128zM384 896v128h128v-256h128v128h-256z" />
    <glyph glyph-name="ἔ" unicode="&#x1f14;" horiz-adv-x="638" 
d="M128 0v640h256v-256h128v128h-512v-128h256v-128h-256v-128h512v128h-128v-256h-256zM0 896v128h256v-256h-128v128h-128zM512 768v256h128v-128h-256v-128h128z" />
    <glyph glyph-name="ἕ" unicode="&#x1f15;" horiz-adv-x="638" 
d="M128 0v640h256v-256h128v128h-512v-128h256v-128h-256v-128h512v128h-128v-256h-256zM0 768v256h256v-128h-128v-128h-128zM512 768v256h128v-128h-256v-128h128z" />
    <glyph glyph-name="Ἐ" unicode="&#x1f18;" horiz-adv-x="1153" 
d="M384 896h640v-128h-512v-256h384v-128h-384v-256h512v-128h-640v896zM0 896v128h256v-256h-128v128h-128z" />
    <glyph glyph-name="Ἑ" unicode="&#x1f19;" horiz-adv-x="1153" 
d="M384 896h640v-128h-512v-256h384v-128h-384v-256h512v-128h-640v896zM0 768v256h256v-128h-128v-128h-128z" />
    <glyph glyph-name="Ἒ" unicode="&#x1f1a;" horiz-adv-x="1536" 
d="M768 896h640v-128h-512v-256h384v-128h-384v-256h512v-128h-640v896zM384 896v128h128v-256h128v128h-256zM0 896v128h256v-256h-128v128h-128z" />
    <glyph glyph-name="Ἓ" unicode="&#x1f1b;" horiz-adv-x="1536" 
d="M768 896h640v-128h-512v-256h384v-128h-384v-256h512v-128h-640v896zM384 896v128h128v-256h128v128h-256zM0 768v256h256v-128h-128v-128h-128z" />
    <glyph glyph-name="Ἔ" unicode="&#x1f1c;" horiz-adv-x="1536" 
d="M768 896h640v-128h-512v-256h384v-128h-384v-256h512v-128h-640v896zM512 768v256h128v-128h-256v-128h128zM0 896v128h256v-256h-128v128h-128z" />
    <glyph glyph-name="Ἕ" unicode="&#x1f1d;" horiz-adv-x="1536" 
d="M768 896h640v-128h-512v-256h384v-128h-384v-256h512v-128h-640v896zM512 768v256h128v-128h-256v-128h128zM0 768v256h256v-128h-128v-128h-128z" />
    <glyph glyph-name="ἠ" unicode="&#x1f20;" horiz-adv-x="638" 
d="M0 640h384v-128h128v-768h-128v768h-256v-512h-128v640zM128 976v48h96h160v-256h-128v128h-128v80z" />
    <glyph glyph-name="ἡ" unicode="&#x1f21;" horiz-adv-x="638" 
d="M0 640h384v-128h128v-768h-128v768h-256v-512h-128v640zM128 768v256h256v-128h-128v-128h-128z" />
    <glyph glyph-name="ἢ" unicode="&#x1f22;" horiz-adv-x="638" 
d="M0 640h384v-128h128v-768h-128v768h-256v-512h-128v640zM0 896v128h256v-256h-128v128h-128zM384 896v128h128v-256h128v128h-256z" />
    <glyph glyph-name="ἣ" unicode="&#x1f23;" horiz-adv-x="638" 
d="M0 640h384v-128h128v-768h-128v768h-256v-512h-128v640zM0 768v256h256v-128h-128v-128h-128zM384 896v128h128v-256h128v128h-256z" />
    <glyph glyph-name="ἤ" unicode="&#x1f24;" horiz-adv-x="638" 
d="M0 640h384v-128h128v-768h-128v768h-256v-512h-128v640zM0 896v128h256v-256h-128v128h-128zM512 768v256h128v-128h-256v-128h128z" />
    <glyph glyph-name="ἥ" unicode="&#x1f25;" horiz-adv-x="638" 
d="M0 640h384v-128h128v-768h-128v768h-256v-512h-128v640zM0 768v256h256v-128h-128v-128h-128zM512 768v256h128v-128h-256v-128h128z" />
    <glyph glyph-name="ἦ" unicode="&#x1f26;" horiz-adv-x="638" 
d="M0 384h384v-128h128v-512h-128v512h-256v-256h-128v384zM128 640v128h256v-256h-128v128h-128zM128 896v256h128v-256h128v256h128v-128h-512v-128h128z" />
    <glyph glyph-name="ἧ" unicode="&#x1f27;" horiz-adv-x="638" 
d="M0 384h384v-128h128v-512h-128v512h-256v-256h-128v384zM128 512v256h256v-128h-128v-128h-128zM128 896v256h128v-256h128v256h128v-128h-512v-128h128z" />
    <glyph glyph-name="Ἠ" unicode="&#x1f28;" horiz-adv-x="1153" 
d="M384 0v896h128v-384h384v384h128v-896h-128v384h-384v-384h-128zM0 896v128h256v-256h-128v128h-128z" />
    <glyph glyph-name="Ἡ" unicode="&#x1f29;" horiz-adv-x="1153" 
d="M384 0v896h128v-384h384v384h128v-896h-128v384h-384v-384h-128zM0 768v256h256v-128h-128v-128h-128z" />
    <glyph glyph-name="Ἢ" unicode="&#x1f2a;" horiz-adv-x="1536" 
d="M768 0v896h128v-384h384v384h128v-896h-128v384h-384v-384h-128zM384 896v128h128v-256h128v128h-256zM0 896v128h256v-256h-128v128h-128z" />
    <glyph glyph-name="Ἣ" unicode="&#x1f2b;" horiz-adv-x="1536" 
d="M768 0v896h128v-384h384v384h128v-896h-128v384h-384v-384h-128zM384 896v128h128v-256h128v128h-256zM0 768v256h256v-128h-128v-128h-128z" />
    <glyph glyph-name="Ἤ" unicode="&#x1f2c;" horiz-adv-x="1536" 
d="M768 0v896h128v-384h384v384h128v-896h-128v384h-384v-384h-128zM512 768v256h128v-128h-256v-128h128zM0 896v128h256v-256h-128v128h-128z" />
    <glyph glyph-name="Ἥ" unicode="&#x1f2d;" horiz-adv-x="1536" 
d="M768 0v896h128v-384h384v384h128v-896h-128v384h-384v-384h-128zM512 768v256h128v-128h-256v-128h128zM0 768v256h256v-128h-128v-128h-128z" />
    <glyph glyph-name="Ἦ" unicode="&#x1f2e;" horiz-adv-x="1153" 
d="M384 0v896h128v-384h384v384h128v-896h-128v384h-384v-384h-128zM0 768v128h256v-256h-128v128h-128zM128 1024v256h128v-256h128v256h128v-128h-512v-128h128z" />
    <glyph glyph-name="Ἧ" unicode="&#x1f2f;" horiz-adv-x="1153" 
d="M384 0v896h128v-384h384v384h128v-896h-128v384h-384v-384h-128zM0 640v256h256v-128h-128v-128h-128zM128 1024v256h128v-256h128v256h128v-128h-512v-128h128z" />
    <glyph glyph-name="ἰ" unicode="&#x1f30;" horiz-adv-x="382" 
d="M128 0v640h128v-640h-128zM0 896v128h256v-256h-128v128h-128z" />
    <glyph glyph-name="ἱ" unicode="&#x1f31;" horiz-adv-x="385" 
d="M0 0v640h128v-640h-128zM0 768v256h256v-128h-128v-128h-128z" />
    <glyph glyph-name="ἲ" unicode="&#x1f32;" horiz-adv-x="641" 
d="M256 0v640h128v-640h-128zM0 896v128h256v-256h-128v128h-128zM384 896v128h128v-256h128v128h-256z" />
    <glyph glyph-name="ἳ" unicode="&#x1f33;" horiz-adv-x="641" 
d="M256 0v640h128v-640h-128zM0 768v256h256v-128h-128v-128h-128zM512 768v256h128v-128h-256v-128h128z" />
    <glyph glyph-name="ἴ" unicode="&#x1f34;" horiz-adv-x="641" 
d="M256 0v640h128v-640h-128zM0 896v128h256v-256h-128v128h-128zM512 768v256h128v-128h-256v-128h128z" />
    <glyph glyph-name="ἵ" unicode="&#x1f35;" horiz-adv-x="641" 
d="M256 0v640h128v-640h-128zM0 768v256h256v-128h-128v-128h-128zM512 768v256h128v-128h-256v-128h128z" />
    <glyph glyph-name="ἶ" unicode="&#x1f36;" horiz-adv-x="512" 
d="M128 0v512h128v-512h-128zM0 768v128h256v-256h-128v128h-128zM128 1024v256h128v-256h128v256h128v-128h-512v-128h128z" />
    <glyph glyph-name="ἷ" unicode="&#x1f37;" horiz-adv-x="512" 
d="M128 0v512h128v-512h-128zM128 640v256h256v-128h-128v-128h-128zM128 1024v256h128v-256h128v256h128v-128h-512v-128h128z" />
    <glyph glyph-name="Ἰ" unicode="&#x1f38;" horiz-adv-x="897" 
d="M384 768v128h384v-128h-128v-640h128v-128h-384v128h128v640h-128zM0 896v128h256v-256h-128v128h-128z" />
    <glyph glyph-name="Ἱ" unicode="&#x1f39;" horiz-adv-x="897" 
d="M384 768v128h384v-128h-128v-640h128v-128h-384v128h128v640h-128zM0 768v256h256v-128h-128v-128h-128z" />
    <glyph glyph-name="Ἲ" unicode="&#x1f3a;" horiz-adv-x="1280" 
d="M768 768v128h384v-128h-128v-640h128v-128h-384v128h128v640h-128zM384 896v128h128v-256h128v128h-256zM0 896v128h256v-256h-128v128h-128z" />
    <glyph glyph-name="Ἳ" unicode="&#x1f3b;" horiz-adv-x="1280" 
d="M768 768v128h384v-128h-128v-640h128v-128h-384v128h128v640h-128zM384 896v128h128v-256h128v128h-256zM0 768v256h256v-128h-128v-128h-128z" />
    <glyph glyph-name="Ἴ" unicode="&#x1f3c;" horiz-adv-x="1280" 
d="M768 768v128h384v-128h-128v-640h128v-128h-384v128h128v640h-128zM512 768v256h128v-128h-256v-128h128zM0 896v128h256v-256h-128v128h-128z" />
    <glyph glyph-name="Ἵ" unicode="&#x1f3d;" horiz-adv-x="1280" 
d="M768 768v128h384v-128h-128v-640h128v-128h-384v128h128v640h-128zM512 768v256h128v-128h-256v-128h128zM0 768v256h256v-128h-128v-128h-128z" />
    <glyph glyph-name="Ἶ" unicode="&#x1f3e;" horiz-adv-x="897" 
d="M384 768v128h384v-128h-128v-640h128v-128h-384v128h128v640h-128zM0 768v128h256v-256h-128v128h-128zM128 1024v256h128v-256h128v256h128v-128h-512v-128h128z" />
    <glyph glyph-name="Ἷ" unicode="&#x1f3f;" horiz-adv-x="897" 
d="M384 768v128h384v-128h-128v-640h128v-128h-384v128h128v640h-128zM0 640v256h256v-128h-128v-128h-128zM128 1024v256h128v-256h128v256h128v-128h-512v-128h128z" />
    <glyph glyph-name="ὀ" unicode="&#x1f40;" horiz-adv-x="638" 
d="M0 128v384h512v-384h-384v-128h256v640h-256v-512h-128zM128 896v128h256v-256h-128v128h-128z" />
    <glyph glyph-name="ὁ" unicode="&#x1f41;" horiz-adv-x="638" 
d="M0 128v384h512v-384h-384v-128h256v640h-256v-512h-128zM128 768v256h256v-128h-128v-128h-128z" />
    <glyph glyph-name="ὂ" unicode="&#x1f42;" horiz-adv-x="638" 
d="M0 128v384h512v-384h-384v-128h256v640h-256v-512h-128zM0 976v48h96h160v-256h-128v128h-128v80zM384 896v128h128v-256h128v128h-256z" />
    <glyph glyph-name="ὃ" unicode="&#x1f43;" horiz-adv-x="638" 
d="M0 128v384h512v-384h-384v-128h256v640h-256v-512h-128zM0 768v256h256v-128h-128v-128h-128zM384 896v128h128v-256h128v128h-256z" />
    <glyph glyph-name="ὄ" unicode="&#x1f44;" horiz-adv-x="638" 
d="M0 128v384h512v-384h-384v-128h256v640h-256v-512h-128zM0 896v128h256v-256h-128v128h-128zM512 768v256h128v-128h-256v-128h128z" />
    <glyph glyph-name="ὅ" unicode="&#x1f45;" horiz-adv-x="638" 
d="M0 128v384h512v-384h-384v-128h256v640h-256v-512h-128zM0 768v256h256v-128h-128v-128h-128zM512 768v256h128v-128h-256v-128h128z" />
    <glyph glyph-name="Ὀ" unicode="&#x1f48;" horiz-adv-x="1153" 
d="M384 128v640h640v-640h-512v-128h384v896h-384v-768h-128zM0 896v128h256v-256h-128v128h-128z" />
    <glyph glyph-name="Ὁ" unicode="&#x1f49;" horiz-adv-x="1024" 
d="M256 128v640h640v-640h-512v-128h384v896h-384v-768h-128zM0 768v256h256v-128h-128v-128h-128z" />
    <glyph glyph-name="Ὂ" unicode="&#x1f4a;" horiz-adv-x="1406" 
d="M640 128v640h640v-640h-512v-128h384v896h-384v-768h-128zM384 896v128h128v-256h128v128h-256zM0 896v128h256v-256h-128v128h-128z" />
    <glyph glyph-name="Ὃ" unicode="&#x1f4b;" horiz-adv-x="1406" 
d="M640 128v640h640v-640h-512v-128h384v896h-384v-768h-128zM384 896v128h128v-256h128v128h-256zM0 768v256h256v-128h-128v-128h-128z" />
    <glyph glyph-name="Ὄ" unicode="&#x1f4c;" horiz-adv-x="1406" 
d="M640 128v640h640v-640h-512v-128h384v896h-384v-768h-128zM512 768v256h128v-128h-256v-128h128zM0 896v128h256v-256h-128v128h-128z" />
    <glyph glyph-name="Ὅ" unicode="&#x1f4d;" horiz-adv-x="1406" 
d="M640 128v640h640v-640h-512v-128h384v896h-384v-768h-128zM512 768v256h128v-128h-256v-128h128zM0 768v256h256v-128h-128v-128h-128z" />
    <glyph glyph-name="ὐ" unicode="&#x1f50;" horiz-adv-x="638" 
d="M0 128v512h128v-640h256v640h128v-512h-512zM128 896v128h256v-256h-128v128h-128z" />
    <glyph glyph-name="ὑ" unicode="&#x1f51;" horiz-adv-x="638" 
d="M0 128v512h128v-640h256v640h128v-512h-512zM128 928v96h96h160v-128h-128v-128h-128v160z" />
    <glyph glyph-name="ὒ" unicode="&#x1f52;" horiz-adv-x="638" 
d="M0 128v512h128v-640h256v640h128v-512h-512zM0 896v128h256v-256h-128v128h-128zM384 896v128h128v-256h128v128h-256z" />
    <glyph glyph-name="ὓ" unicode="&#x1f53;" horiz-adv-x="638" 
d="M0 128v512h128v-640h256v640h128v-512h-512zM0 768v256h256v-128h-128v-128h-128zM384 896v128h128v-256h128v128h-256z" />
    <glyph glyph-name="ὔ" unicode="&#x1f54;" horiz-adv-x="638" 
d="M0 128v512h128v-640h256v640h128v-512h-512zM0 896v128h256v-256h-128v128h-128zM512 768v256h128v-128h-256v-128h128z" />
    <glyph glyph-name="ὕ" unicode="&#x1f55;" horiz-adv-x="638" 
d="M0 128v512h128v-640h256v640h128v-512h-512zM0 768v256h256v-128h-128v-128h-128zM512 768v256h128v-128h-256v-128h128z" />
    <glyph glyph-name="ὖ" unicode="&#x1f56;" horiz-adv-x="638" 
d="M0 128v384h128v-512h256v512h128v-384h-512zM128 768v128h256v-256h-128v128h-128zM128 1024v256h80h48v-256h128v256h128v-128h-512v-128h128z" />
    <glyph glyph-name="ὗ" unicode="&#x1f57;" horiz-adv-x="638" 
d="M0 128v384h128v-512h256v512h128v-384h-512zM128 640v256h256v-128h-128v-128h-128zM128 1024v256h80h48v-256h128v256h128v-128h-512v-128h128z" />
    <glyph glyph-name="Ὑ" unicode="&#x1f59;" horiz-adv-x="1153" 
d="M384 896h128v-384h128v-128h128v128h128v384h128v-384h-128v-128h-128v-384h-128v384h-128v128h-128v384zM0 768v256h256v-128h-128v-128h-128z" />
    <glyph glyph-name="Ὓ" unicode="&#x1f5b;" horiz-adv-x="1536" 
d="M768 896h128v-384h128v-128h128v128h128v384h128v-384h-128v-128h-128v-384h-128v384h-128v128h-128v384zM384 896v128h128v-256h128v128h-256zM0 768v256h256v-128h-128v-128h-128z" />
    <glyph glyph-name="Ὕ" unicode="&#x1f5d;" horiz-adv-x="1536" 
d="M768 896h128v-384h128v-128h128v128h128v384h128v-384h-128v-128h-128v-384h-128v384h-128v128h-128v384zM512 768v256h128v-128h-256v-128h128zM0 768v256h256v-128h-128v-128h-128z" />
    <glyph glyph-name="Ὗ" unicode="&#x1f5f;" horiz-adv-x="1153" 
d="M384 896h128v-384h128v-128h128v128h128v384h128v-384h-128v-128h-128v-384h-128v384h-128v128h-128v384zM0 768v256h256v-128h-128v-128h-128zM128 1152v256h128v-256h128v256h128v-128h-512v-128h128z" />
    <glyph glyph-name="ὠ" unicode="&#x1f60;" 
d="M128 640v-640h128v256h128v-256h128v640h-128v-128h256v-384h-640v384h256v128h-128zM128 896v128h256v-256h-128v128h-128z" />
    <glyph glyph-name="ὡ" unicode="&#x1f61;" 
d="M128 640v-640h128v256h128v-256h128v640h-128v-128h256v-384h-640v384h256v128h-128zM512 1024v-128h-128v-128h-128v256h256z" />
    <glyph glyph-name="ὢ" unicode="&#x1f62;" 
d="M128 640v-640h128v256h128v-256h128v640h-128v-128h256v-384h-640v384h256v128h-128zM0 896v128h256v-256h-128v128h-128zM384 896v128h128v-256h128v128h-256z" />
    <glyph glyph-name="ὣ" unicode="&#x1f63;" 
d="M128 640v-640h128v256h128v-256h128v640h-128v-128h256v-384h-640v384h256v128h-128zM0 768v256h160h96v-128h-128v-128h-128zM384 896v128h128v-256h128v128h-256z" />
    <glyph glyph-name="ὤ" unicode="&#x1f64;" 
d="M128 640v-640h128v256h128v-256h128v640h-128v-128h256v-384h-640v384h256v128h-128zM0 896v128h256v-256h-128v128h-128zM512 768v256h128v-128h-256v-128h128z" />
    <glyph glyph-name="ὥ" unicode="&#x1f65;" 
d="M128 640v-640h128v256h128v-256h128v640h-128v-128h256v-384h-640v384h256v128h-128zM0 768v256h256v-128h-128v-128h-128zM512 768v256h128v-128h-256v-128h128z" />
    <glyph glyph-name="ὦ" unicode="&#x1f66;" 
d="M128 640v-640h128v256h128v-256h128v640h-128v-128h256v-384h-640v384h256v128h-128zM128 768v128h256v-256h-128v128h-128zM256 1024v256h128v-256h128v256h128v-128h-512v-128h128z" />
    <glyph glyph-name="ὧ" unicode="&#x1f67;" 
d="M128 640v-640h128v256h128v-256h128v640h-128v-128h256v-384h-640v384h256v128h-128zM512 896v-128h-128v-128h-128v256h256zM256 1024v256h128v-256h128v256h128v-128h-512v-128h128z" />
    <glyph glyph-name="Ὠ" unicode="&#x1f68;" horiz-adv-x="1153" 
d="M512 128v768h384v-768h128v-128h-256v256h256v512h-640v-512h256v-256h-256v128h128zM0 896v128h256v-256h-128v128h-128z" />
    <glyph glyph-name="Ὡ" unicode="&#x1f69;" horiz-adv-x="1024" 
d="M384 128v768h384v-768h128v-128h-256v256h256v512h-640v-512h256v-256h-256v128h128zM0 768v256h256v-128h-128v-128h-128z" />
    <glyph glyph-name="Ὢ" unicode="&#x1f6a;" horiz-adv-x="1406" 
d="M768 128v768h384v-768h128v-128h-256v256h256v512h-640v-512h256v-256h-256v128h128zM384 896v128h128v-256h128v128h-256zM0 896v128h256v-256h-128v128h-128z" />
    <glyph glyph-name="Ὣ" unicode="&#x1f6b;" horiz-adv-x="1406" 
d="M768 128v768h384v-768h128v-128h-256v256h256v512h-640v-512h256v-256h-256v128h128zM384 896v128h80h48v-256h128v128h-256zM0 768v256h256v-128h-128v-128h-128z" />
    <glyph glyph-name="Ὤ" unicode="&#x1f6c;" horiz-adv-x="1406" 
d="M768 128v768h384v-768h128v-128h-256v256h256v512h-640v-512h256v-256h-256v128h128zM512 768v256h128v-128h-256v-128h128zM0 896v128h256v-256h-128v128h-128z" />
    <glyph glyph-name="Ὥ" unicode="&#x1f6d;" horiz-adv-x="1406" 
d="M768 128v768h384v-768h128v-128h-256v256h256v512h-640v-512h256v-256h-256v128h128zM512 768v256h128v-128h-256v-128h128zM0 768v256h256v-128h-128v-128h-128z" />
    <glyph glyph-name="Ὦ" unicode="&#x1f6e;" horiz-adv-x="1153" 
d="M512 128v768h384v-768h128v-128h-256v256h256v512h-640v-512h256v-256h-256v128h128zM0 768v128h256v-256h-128v128h-128zM128 1024v256h128v-256h128v256h128v-128h-512v-128h128z" />
    <glyph glyph-name="Ὧ" unicode="&#x1f6f;" horiz-adv-x="1153" 
d="M512 128v768h384v-768h128v-128h-256v256h256v512h-640v-512h256v-256h-256v128h128zM0 640v256h256v-128h-128v-128h-128zM128 1024v256h128v-256h128v256h128v-128h-512v-128h128z" />
    <glyph glyph-name="ὰ" unicode="&#x1f70;" 
d="M128 0v640h256v-128h-384v-384h640v-128h-128v640h128v-128h-256v-512h-256zM128 896v128h128v-256h128v128h-256z" />
    <glyph glyph-name="ά" unicode="&#x1f71;" 
d="M128 0v640h256v-128h-384v-384h640v-128h-128v640h128v-128h-256v-512h-256zM256 768v256h128v-128h-256v-128h128z" />
    <glyph glyph-name="ὲ" unicode="&#x1f72;" horiz-adv-x="638" 
d="M128 0v640h256v-256h128v128h-512v-128h256v-128h-256v-128h512v128h-128v-256h-256zM128 896v128h128v-256h128v128h-256z" />
    <glyph glyph-name="έ" unicode="&#x1f73;" horiz-adv-x="638" 
d="M128 0v640h256v-256h128v128h-512v-128h256v-128h-256v-128h512v128h-128v-256h-256zM256 768v256h128v-128h-256v-128h128z" />
    <glyph glyph-name="ὴ" unicode="&#x1f74;" horiz-adv-x="638" 
d="M0 640h384v-128h128v-768h-128v768h-256v-512h-128v640zM128 896v128h128v-256h128v128h-256z" />
    <glyph glyph-name="ή" unicode="&#x1f75;" horiz-adv-x="638" 
d="M0 640h384v-128h128v-768h-128v768h-256v-512h-128v640zM256 768v256h128v-128h-256v-128h128z" />
    <glyph glyph-name="ὶ" unicode="&#x1f76;" horiz-adv-x="382" 
d="M128 0v640h128v-640h-128zM0 896v128h128v-256h128v128h-256z" />
    <glyph glyph-name="ί" unicode="&#x1f77;" horiz-adv-x="256" 
d="M0 0v640h128v-640h-128zM128 768v256h128v-128h-256v-128h128z" />
    <glyph glyph-name="ὸ" unicode="&#x1f78;" horiz-adv-x="638" 
d="M0 128v384h512v-384h-384v-128h256v640h-256v-512h-128zM128 896v128h128v-256h128v128h-256z" />
    <glyph glyph-name="ό" unicode="&#x1f79;" horiz-adv-x="638" 
d="M0 128v384h512v-384h-384v-128h256v640h-256v-512h-128zM256 768v256h80h48v-128h-256v-128h128z" />
    <glyph glyph-name="ὺ" unicode="&#x1f7a;" horiz-adv-x="638" 
d="M0 128v512h128v-640h256v640h128v-512h-512zM128 896v128h128v-256h128v128h-256z" />
    <glyph glyph-name="ύ" unicode="&#x1f7b;" horiz-adv-x="638" 
d="M0 128v512h128v-640h256v640h128v-512h-512zM256 768v256h128v-128h-256v-128h128z" />
    <glyph glyph-name="ὼ" unicode="&#x1f7c;" 
d="M128 640v-640h128v256h128v-256h128v640h-128v-128h256v-384h-640v384h256v128h-128zM128 896v128h128v-256h128v128h-256z" />
    <glyph glyph-name="ώ" unicode="&#x1f7d;" 
d="M128 640v-640h128v256h128v-256h128v640h-128v-128h256v-384h-640v384h256v128h-128zM384 768v256h128v-128h-256v-128h128z" />
    <glyph glyph-name="ᾀ" unicode="&#x1f80;" 
d="M128 0v640h256v-128h-384v-384h640v-128h-128v640h128v-128h-256v-512h-256zM256 -256v128h128v-128h-128zM128 896v128h256v-256h-128v128h-128z" />
    <glyph glyph-name="ᾁ" unicode="&#x1f81;" 
d="M128 0v640h256v-128h-384v-384h640v-128h-128v640h128v-128h-256v-512h-256zM256 -256v128h128v-128h-128zM128 768v256h256v-128h-128v-128h-128z" />
    <glyph glyph-name="ᾂ" unicode="&#x1f82;" 
d="M128 0v640h256v-128h-384v-384h640v-128h-128v640h128v-128h-256v-512h-256zM256 -256v128h128v-128h-128zM0 896v128h256v-256h-128v128h-128zM384 896v128h128v-256h128v128h-256z" />
    <glyph glyph-name="ᾃ" unicode="&#x1f83;" 
d="M128 0v640h256v-128h-384v-384h640v-128h-128v640h128v-128h-256v-512h-256zM256 -256v128h128v-128h-128zM0 768v256h256v-128h-128v-128h-128zM384 896v128h128v-256h128v128h-256z" />
    <glyph glyph-name="ᾄ" unicode="&#x1f84;" 
d="M128 0v640h256v-128h-384v-384h640v-128h-128v640h128v-128h-256v-512h-256zM256 -256v128h128v-128h-128zM0 896v128h256v-256h-128v128h-128zM512 768v256h128v-128h-256v-128h128z" />
    <glyph glyph-name="ᾅ" unicode="&#x1f85;" 
d="M128 0v640h256v-128h-384v-384h640v-128h-128v640h128v-128h-256v-512h-256zM256 -256v128h128v-128h-128zM0 768v256h256v-128h-128v-128h-128zM512 768v256h128v-128h-256v-128h128z" />
    <glyph glyph-name="ᾆ" unicode="&#x1f86;" 
d="M128 0v512h256v-128h-384v-256h640v-128h-128v512h128v-128h-256v-384h-256zM256 -256v128h128v-128h-128zM256 768v128h256v-256h-128v128h-128zM256 1024v256h128v-256h128v256h128v-128h-512v-128h128z" />
    <glyph glyph-name="ᾇ" unicode="&#x1f87;" 
d="M128 0v512h256v-128h-384v-256h640v-128h-128v512h128v-128h-256v-384h-256zM256 -256v128h128v-128h-128zM256 640v256h256v-128h-128v-128h-128zM256 1024v256h128v-256h128v256h128v-128h-512v-128h128z" />
    <glyph glyph-name="ᾈ" unicode="&#x1f88;" horiz-adv-x="1153" 
d="M384 768h128v128h384v-128h128v-768h-128v256h-384v-256h-128v768zM896 768h-384v-384h384v384zM0 896v128h256v-256h-128v128h-128zM640 -256v128h128v-128h-128z" />
    <glyph glyph-name="ᾉ" unicode="&#x1f89;" horiz-adv-x="1024" 
d="M256 768h128v128h384v-128h128v-768h-128v256h-384v-256h-128v768zM768 768h-384v-384h384v384zM0 768v256h256v-128h-128v-128h-128zM512 -256v128h128v-128h-128z" />
    <glyph glyph-name="ᾊ" unicode="&#x1f8a;" horiz-adv-x="1406" 
d="M640 768h128v128h384v-128h128v-768h-128v256h-384v-256h-128v768zM1152 768h-384v-384h384v384zM384 896v128h128v-256h128v128h-256zM0 896v128h256v-256h-128v128h-128zM896 -256v128h128v-128h-128z" />
    <glyph glyph-name="ᾋ" unicode="&#x1f8b;" horiz-adv-x="1406" 
d="M640 768h128v128h384v-128h128v-768h-128v256h-384v-256h-128v768zM1152 768h-384v-384h384v384zM384 896v128h128v-256h128v128h-256zM0 768v256h256v-128h-128v-128h-128zM896 -256v128h128v-128h-128z" />
    <glyph glyph-name="ᾌ" unicode="&#x1f8c;" horiz-adv-x="1406" 
d="M640 768h128v128h384v-128h128v-768h-128v256h-384v-256h-128v768zM1152 768h-384v-384h384v384zM512 768v256h128v-128h-256v-128h128zM0 896v128h256v-256h-128v128h-128zM896 -256v128h128v-128h-128z" />
    <glyph glyph-name="ᾍ" unicode="&#x1f8d;" horiz-adv-x="1406" 
d="M640 768h128v128h384v-128h128v-768h-128v256h-384v-256h-128v768zM1152 768h-384v-384h384v384zM512 768v256h128v-128h-256v-128h128zM0 768v256h256v-128h-128v-128h-128zM896 -256v128h128v-128h-128z" />
    <glyph glyph-name="ᾎ" unicode="&#x1f8e;" horiz-adv-x="1024" 
d="M256 768h128v128h384v-128h128v-768h-128v256h-384v-256h-128v768zM768 768h-384v-384h384v384zM0 896v128h256v-256h-128v128h-128zM128 1152v256h128v-256h128v256h128v-128h-512v-128h128zM512 -256v128h128v-128h-128z" />
    <glyph glyph-name="ᾏ" unicode="&#x1f8f;" horiz-adv-x="1024" 
d="M256 768h128v128h384v-128h128v-768h-128v256h-384v-256h-128v768zM768 768h-384v-384h384v384zM0 768v256h256v-128h-128v-128h-128zM128 1152v256h128v-256h128v256h128v-128h-512v-128h128zM512 -256v128h128v-128h-128z" />
    <glyph glyph-name="ᾐ" unicode="&#x1f90;" horiz-adv-x="638" 
d="M0 640h384v-128h128v-768h-128v768h-256v-512h-128v640zM0 -256v128h128v-128h-128zM128 976v48h96h160v-256h-128v128h-128v80z" />
    <glyph glyph-name="ᾑ" unicode="&#x1f91;" horiz-adv-x="638" 
d="M0 640h384v-128h128v-768h-128v768h-256v-512h-128v640zM0 -256v128h128v-128h-128zM128 768v256h256v-128h-128v-128h-128z" />
    <glyph glyph-name="ᾒ" unicode="&#x1f92;" horiz-adv-x="638" 
d="M0 640h384v-128h128v-768h-128v768h-256v-512h-128v640zM0 -256v128h128v-128h-128zM0 896v128h256v-256h-128v128h-128zM384 896v128h128v-256h128v128h-256z" />
    <glyph glyph-name="ᾓ" unicode="&#x1f93;" horiz-adv-x="638" 
d="M0 640h384v-128h128v-768h-128v768h-256v-512h-128v640zM0 -256v128h128v-128h-128zM0 768v256h256v-128h-128v-128h-128zM384 896v128h128v-256h128v128h-256z" />
    <glyph glyph-name="ᾔ" unicode="&#x1f94;" horiz-adv-x="638" 
d="M0 640h384v-128h128v-768h-128v768h-256v-512h-128v640zM0 -256v128h128v-128h-128zM0 896v128h256v-256h-128v128h-128zM512 768v256h128v-128h-256v-128h128z" />
    <glyph glyph-name="ᾕ" unicode="&#x1f95;" horiz-adv-x="638" 
d="M0 640h384v-128h128v-768h-128v768h-256v-512h-128v640zM0 -256v128h128v-128h-128zM0 768v256h256v-128h-128v-128h-128zM512 768v256h128v-128h-256v-128h128z" />
    <glyph glyph-name="ᾖ" unicode="&#x1f96;" horiz-adv-x="638" 
d="M0 512h384v-128h128v-640h-128v640h-256v-384h-128v512zM0 -256v128h128v-128h-128zM128 768v128h256v-256h-128v128h-128zM128 1024v256h128v-256h128v256h128v-128h-512v-128h128z" />
    <glyph glyph-name="ᾗ" unicode="&#x1f97;" horiz-adv-x="638" 
d="M0 512h384v-128h128v-640h-128v640h-256v-384h-128v512zM0 -256v128h128v-128h-128zM128 640v256h256v-128h-128v-128h-128zM128 1024v256h128v-256h128v256h128v-128h-512v-128h128z" />
    <glyph glyph-name="ᾘ" unicode="&#x1f98;" horiz-adv-x="1153" 
d="M384 0v896h128v-384h384v384h128v-896h-128v384h-384v-384h-128zM640 -256v128h128v-128h-128zM0 896v128h256v-256h-128v128h-128z" />
    <glyph glyph-name="ᾙ" unicode="&#x1f99;" horiz-adv-x="1153" 
d="M384 0v896h128v-384h384v384h128v-896h-128v384h-384v-384h-128zM640 -256v128h128v-128h-128zM0 768v256h256v-128h-128v-128h-128z" />
    <glyph glyph-name="ᾚ" unicode="&#x1f9a;" horiz-adv-x="1536" 
d="M768 0v896h128v-384h384v384h128v-896h-128v384h-384v-384h-128zM1024 -256v128h128v-128h-128zM384 896v128h128v-256h128v128h-256zM0 896v128h256v-256h-128v128h-128z" />
    <glyph glyph-name="ᾛ" unicode="&#x1f9b;" horiz-adv-x="1536" 
d="M768 0v896h128v-384h384v384h128v-896h-128v384h-384v-384h-128zM1024 -256v128h128v-128h-128zM384 896v128h128v-256h128v128h-256zM0 768v256h256v-128h-128v-128h-128z" />
    <glyph glyph-name="ᾜ" unicode="&#x1f9c;" horiz-adv-x="1536" 
d="M768 0v896h128v-384h384v384h128v-896h-128v384h-384v-384h-128zM1024 -256v128h128v-128h-128zM512 768v256h128v-128h-256v-128h128zM0 896v128h256v-256h-128v128h-128z" />
    <glyph glyph-name="ᾝ" unicode="&#x1f9d;" horiz-adv-x="1536" 
d="M768 0v896h128v-384h384v384h128v-896h-128v384h-384v-384h-128zM1024 -256v128h128v-128h-128zM512 768v256h128v-128h-256v-128h128zM0 768v256h256v-128h-128v-128h-128z" />
    <glyph glyph-name="ᾞ" unicode="&#x1f9e;" horiz-adv-x="1153" 
d="M384 0v896h128v-384h384v384h128v-896h-128v384h-384v-384h-128zM640 -256v128h128v-128h-128zM0 768v128h256v-256h-128v128h-128zM128 1024v256h128v-256h128v256h128v-128h-512v-128h128z" />
    <glyph glyph-name="ᾟ" unicode="&#x1f9f;" horiz-adv-x="1153" 
d="M384 0v896h128v-384h384v384h128v-896h-128v384h-384v-384h-128zM640 -256v128h128v-128h-128zM0 640v256h256v-128h-128v-128h-128zM128 1024v256h128v-256h128v256h128v-128h-512v-128h128z" />
    <glyph glyph-name="ᾠ" unicode="&#x1fa0;" 
d="M128 640v-640h128v256h128v-256h128v640h-128v-128h256v-384h-640v384h256v128h-128zM256 -256v128h128v-128h-128zM128 896v128h256v-256h-128v128h-128z" />
    <glyph glyph-name="ᾡ" unicode="&#x1fa1;" 
d="M128 640v-640h128v256h128v-256h128v640h-128v-128h256v-384h-640v384h256v128h-128zM256 -256v128h128v-128h-128zM512 1024v-128h-128v-128h-128v256h256z" />
    <glyph glyph-name="ᾢ" unicode="&#x1fa2;" 
d="M128 640v-640h128v256h128v-256h128v640h-128v-128h256v-384h-640v384h256v128h-128zM256 -256v128h128v-128h-128zM0 896v128h256v-256h-128v128h-128zM384 896v128h128v-256h128v128h-256z" />
    <glyph glyph-name="ᾣ" unicode="&#x1fa3;" 
d="M128 640v-640h128v256h128v-256h128v640h-128v-128h256v-384h-640v384h256v128h-128zM256 -256v128h128v-128h-128zM0 768v256h160h96v-128h-128v-128h-128zM384 896v128h128v-256h128v128h-256z" />
    <glyph glyph-name="ᾤ" unicode="&#x1fa4;" 
d="M128 640v-640h128v256h128v-256h128v640h-128v-128h256v-384h-640v384h256v128h-128zM256 -256v128h128v-128h-128zM0 896v128h256v-256h-128v128h-128zM512 768v256h128v-128h-256v-128h128z" />
    <glyph glyph-name="ᾥ" unicode="&#x1fa5;" 
d="M128 640v-640h128v256h128v-256h128v640h-128v-128h256v-384h-640v384h256v128h-128zM256 -256v128h128v-128h-128zM0 768v256h256v-128h-128v-128h-128zM512 768v256h128v-128h-256v-128h128z" />
    <glyph glyph-name="ᾦ" unicode="&#x1fa6;" 
d="M128 640v-640h128v256h128v-256h128v640h-128v-128h256v-384h-640v384h256v128h-128zM256 -256v128h128v-128h-128zM128 768v128h256v-256h-128v128h-128zM256 1024v256h128v-256h128v256h128v-128h-512v-128h128z" />
    <glyph glyph-name="ᾧ" unicode="&#x1fa7;" 
d="M128 640v-640h128v256h128v-256h128v640h-128v-128h256v-384h-640v384h256v128h-128zM256 -256v128h128v-128h-128zM512 896v-128h-128v-128h-128v256h256zM256 1024v256h128v-256h128v256h128v-128h-512v-128h128z" />
    <glyph glyph-name="ᾨ" unicode="&#x1fa8;" horiz-adv-x="1153" 
d="M512 128v768h384v-768h128v-128h-256v256h256v512h-640v-512h256v-256h-256v128h128zM640 -256v128h128v-128h-128zM0 896v128h256v-256h-128v128h-128z" />
    <glyph glyph-name="ᾩ" unicode="&#x1fa9;" horiz-adv-x="1024" 
d="M384 128v768h384v-768h128v-128h-256v256h256v512h-640v-512h256v-256h-256v128h128zM512 -256v128h128v-128h-128zM0 768v256h256v-128h-128v-128h-128z" />
    <glyph glyph-name="ᾪ" unicode="&#x1faa;" horiz-adv-x="1406" 
d="M768 128v768h384v-768h128v-128h-256v256h256v512h-640v-512h256v-256h-256v128h128zM896 -256v128h128v-128h-128zM384 896v128h128v-256h128v128h-256zM0 896v128h256v-256h-128v128h-128z" />
    <glyph glyph-name="ᾫ" unicode="&#x1fab;" horiz-adv-x="1406" 
d="M768 128v768h384v-768h128v-128h-256v256h256v512h-640v-512h256v-256h-256v128h128zM896 -256v128h128v-128h-128zM384 896v128h80h48v-256h128v128h-256zM0 768v256h256v-128h-128v-128h-128z" />
    <glyph glyph-name="ᾬ" unicode="&#x1fac;" horiz-adv-x="1406" 
d="M768 128v768h384v-768h128v-128h-256v256h256v512h-640v-512h256v-256h-256v128h128zM896 -256v128h128v-128h-128zM512 768v256h128v-128h-256v-128h128zM0 896v128h256v-256h-128v128h-128z" />
    <glyph glyph-name="ᾭ" unicode="&#x1fad;" horiz-adv-x="1406" 
d="M768 128v768h384v-768h128v-128h-256v256h256v512h-640v-512h256v-256h-256v128h128zM896 -256v128h128v-128h-128zM512 768v256h128v-128h-256v-128h128zM0 768v256h256v-128h-128v-128h-128z" />
    <glyph glyph-name="ᾮ" unicode="&#x1fae;" horiz-adv-x="1153" 
d="M512 128v768h384v-768h128v-128h-256v256h256v512h-640v-512h256v-256h-256v128h128zM640 -256v128h128v-128h-128zM0 768v128h256v-256h-128v128h-128zM128 1024v256h128v-256h128v256h128v-128h-512v-128h128z" />
    <glyph glyph-name="ᾯ" unicode="&#x1faf;" horiz-adv-x="1153" 
d="M512 128v768h384v-768h128v-128h-256v256h256v512h-640v-512h256v-256h-256v128h128zM640 -256v128h128v-128h-128zM0 640v256h256v-128h-128v-128h-128zM128 1024v256h128v-256h128v256h128v-128h-512v-128h128z" />
    <glyph glyph-name="ᾰ" unicode="&#x1fb0;" 
d="M128 0v640h256v-128h-384v-384h640v-128h-128v640h128v-128h-256v-512h-256zM128 896v128h128v-256h256v256h128v-128h-512z" />
    <glyph glyph-name="ᾱ" unicode="&#x1fb1;" 
d="M128 0v640h256v-128h-384v-384h640v-128h-128v640h128v-128h-256v-512h-256zM128 768v128h384v-128h-384z" />
    <glyph glyph-name="ᾲ" unicode="&#x1fb2;" 
d="M128 0v640h256v-128h-384v-384h640v-128h-128v640h128v-128h-256v-512h-256zM256 -256v128h128v-128h-128zM128 896v128h128v-256h128v128h-256z" />
    <glyph glyph-name="ᾳ" unicode="&#x1fb3;" 
d="M128 0v640h256v-128h-384v-384h640v-128h-128v640h128v-128h-256v-512h-256zM256 -256v128h128v-128h-128z" />
    <glyph glyph-name="ᾴ" unicode="&#x1fb4;" 
d="M128 0v640h256v-128h-384v-384h640v-128h-128v640h128v-128h-256v-512h-256zM256 -256v128h128v-128h-128zM384 768v256h128v-128h-256v-128h128z" />
    <glyph glyph-name="ᾶ" unicode="&#x1fb6;" 
d="M128 0v640h256v-128h-384v-384h640v-128h-128v640h128v-128h-256v-512h-256zM256 768v256h128v-256h128v256h128v-128h-512v-128h128z" />
    <glyph glyph-name="ᾷ" unicode="&#x1fb7;" 
d="M128 0v640h256v-128h-384v-384h640v-128h-128v640h128v-128h-256v-512h-256zM256 -256v128h128v-128h-128zM256 768v256h128v-256h128v256h128v-128h-512v-128h128z" />
    <glyph glyph-name="Ᾰ" unicode="&#x1fb8;" 
d="M0 768h128v128h384v-128h128v-768h-128v256h-384v-256h-128v768zM512 768h-384v-384h384v384zM0 1280v-128h640v128h-128v-256h-384v256h-48h-80z" />
    <glyph glyph-name="Ᾱ" unicode="&#x1fb9;" 
d="M0 768h128v128h384v-128h128v-768h-128v256h-384v-256h-128v768zM512 768h-384v-384h384v384zM128 1024v128h384v-80v-48h-384z" />
    <glyph glyph-name="Ὰ" unicode="&#x1fba;" horiz-adv-x="1153" 
d="M384 768h128v128h384v-128h128v-768h-128v256h-384v-256h-128v768zM896 768h-384v-384h384v384zM0 896v128h128v-256h128v128h-256z" />
    <glyph glyph-name="Ά" unicode="&#x1fbb;" horiz-adv-x="1024" 
d="M256 768h128v128h384v-128h128v-768h-128v256h-384v-256h-128v768zM768 768h-384v-384h384v384zM128 768v256h128v-128h-256v-128h80h48z" />
    <glyph glyph-name="ᾼ" unicode="&#x1fbc;" 
d="M0 768h128v128h384v-128h128v-768h-128v256h-384v-256h-128v768zM512 768h-384v-384h384v384zM256 -256v128h128v-128h-128z" />
    <glyph glyph-name="᾽" unicode="&#x1fbd;" horiz-adv-x="512" 
d="M128 896v128h256v-256h-128v128h-128z" />
    <glyph glyph-name="ι" unicode="&#x1fbe;" horiz-adv-x="385" 
d="M128 -256v128h128v-128h-128z" />
    <glyph glyph-name="᾿" unicode="&#x1fbf;" horiz-adv-x="512" 
d="M128 896v128h256v-256h-128v128h-128z" />
    <glyph glyph-name="῀" unicode="&#x1fc0;" horiz-adv-x="512" 
d="M128 768v256h128v-256h128v256h128v-128h-512v-128h128z" />
    <glyph glyph-name="῁" unicode="&#x1fc1;" horiz-adv-x="512" 
d="M128 896v256h128v-256h128v256h128v-128h-512v-128h128zM0 640v128h128v-128h-128zM256 640v128h128v-128h-128z" />
    <glyph glyph-name="ῂ" unicode="&#x1fc2;" horiz-adv-x="638" 
d="M0 640h384v-128h128v-768h-128v768h-256v-512h-128v640zM0 -256v128h128v-128h-128zM128 896v128h128v-256h128v128h-256z" />
    <glyph glyph-name="ῃ" unicode="&#x1fc3;" horiz-adv-x="638" 
d="M0 640h384v-128h128v-768h-128v768h-256v-512h-128v640zM0 -256v128h128v-128h-128z" />
    <glyph glyph-name="ῄ" unicode="&#x1fc4;" horiz-adv-x="638" 
d="M0 640h384v-128h128v-768h-128v768h-256v-512h-128v640zM0 -256v128h128v-128h-128zM256 768v256h128v-128h-256v-128h128z" />
    <glyph glyph-name="ῆ" unicode="&#x1fc6;" horiz-adv-x="638" 
d="M0 640h384v-128h128v-768h-128v768h-256v-512h-128v640zM128 768v256h128v-256h128v256h128v-128h-512v-128h128z" />
    <glyph glyph-name="ῇ" unicode="&#x1fc7;" horiz-adv-x="638" 
d="M0 640h384v-128h128v-768h-128v768h-256v-512h-128v640zM0 -256v128h128v-128h-128zM128 768v256h128v-256h128v256h128v-128h-512v-128h128z" />
    <glyph glyph-name="Ὲ" unicode="&#x1fc8;" horiz-adv-x="1153" 
d="M384 896h640v-128h-512v-256h384v-128h-384v-256h512v-128h-640v896zM0 896v128h128v-256h128v128h-256z" />
    <glyph glyph-name="Έ" unicode="&#x1fc9;" horiz-adv-x="1153" 
d="M384 896h640v-128h-512v-256h384v-128h-384v-256h512v-128h-640v896zM128 768v256h128v-128h-256v-80v-48h128z" />
    <glyph glyph-name="Ὴ" unicode="&#x1fca;" horiz-adv-x="1153" 
d="M384 0v896h128v-384h384v384h128v-896h-128v384h-384v-384h-128zM0 896v128h128v-256h128v128h-256z" />
    <glyph glyph-name="Ή" unicode="&#x1fcb;" horiz-adv-x="1153" 
d="M384 0v896h128v-384h384v384h128v-896h-128v384h-384v-384h-128zM128 768v256h128v-128h-256v-128h128z" />
    <glyph glyph-name="ῌ" unicode="&#x1fcc;" 
d="M0 0v896h128v-384h384v384h128v-896h-128v384h-384v-384h-128zM256 -256v128h128v-128h-128z" />
    <glyph glyph-name="῍" unicode="&#x1fcd;" horiz-adv-x="641" 
d="M0 896v128h256v-256h-128v128h-128zM384 896v128h128v-256h128v128h-256z" />
    <glyph glyph-name="῎" unicode="&#x1fce;" horiz-adv-x="641" 
d="M0 896v128h256v-256h-128v128h-128zM512 768v256h128v-80v-48h-256v-128h80h48z" />
    <glyph glyph-name="῏" unicode="&#x1fcf;" horiz-adv-x="638" 
d="M128 1024v256h128v-256h128v256h128v-128h-512v-128h128zM128 768v128h256v-256h-128v128h-128z" />
    <glyph glyph-name="ῐ" unicode="&#x1fd0;" horiz-adv-x="382" 
d="M128 0v640h128v-640h-128zM0 896v128h128v-256h128v256h128v-128h-384z" />
    <glyph glyph-name="ῑ" unicode="&#x1fd1;" horiz-adv-x="382" 
d="M128 0v640h128v-640h-128zM0 768v128h384v-128h-384z" />
    <glyph glyph-name="ῒ" unicode="&#x1fd2;" horiz-adv-x="512" 
d="M128 0v512h128v-512h-128zM0 640v128h128v-128h-128zM256 640v128h128v-128h-128zM0 1024v128h128v-256h128v128h-256z" />
    <glyph glyph-name="ΐ" unicode="&#x1fd3;" horiz-adv-x="512" 
d="M128 0v512h128v-512h-128zM0 640v128h128v-128h-128zM256 640v128h128v-128h-128zM256 896v256h128v-128h-256v-128h128z" />
    <glyph glyph-name="ῖ" unicode="&#x1fd6;" horiz-adv-x="512" 
d="M128 0v640h128v-640h-128zM128 768v256h128v-256h128v256h128v-128h-512v-128h128z" />
    <glyph glyph-name="ῗ" unicode="&#x1fd7;" horiz-adv-x="512" 
d="M128 0v512h128v-512h-128zM128 896v256h128v-256h128v256h128v-128h-512v-128h128zM0 640v128h128v-128h-128zM256 640v128h128v-128h-128z" />
    <glyph glyph-name="Ῐ" unicode="&#x1fd8;" horiz-adv-x="512" 
d="M0 768v128h384v-128h-128v-640h128v-128h-384v128h128v640h-128zM0 1152v128h128v-256h256v256h128v-128h-512z" />
    <glyph glyph-name="Ῑ" unicode="&#x1fd9;" horiz-adv-x="512" 
d="M0 768v128h384v-128h-128v-640h128v-128h-384v128h128v640h-128zM0 1024v128h384v-128h-384z" />
    <glyph glyph-name="Ὶ" unicode="&#x1fda;" horiz-adv-x="897" 
d="M384 768v128h384v-128h-128v-640h128v-128h-384v128h128v640h-128zM0 896v128h128v-256h128v128h-256z" />
    <glyph glyph-name="Ί" unicode="&#x1fdb;" horiz-adv-x="897" 
d="M384 768v128h384v-128h-128v-640h128v-128h-384v128h128v640h-128zM128 768v256h128v-128h-256v-128h128z" />
    <glyph glyph-name="῝" unicode="&#x1fdd;" horiz-adv-x="641" 
d="M0 768v256h256v-128h-128v-128h-128zM384 896v128h128v-256h128v128h-256z" />
    <glyph glyph-name="῞" unicode="&#x1fde;" horiz-adv-x="641" 
d="M0 768v256h256v-128h-128v-128h-128zM512 768v256h128v-80v-48h-256v-128h80h48z" />
    <glyph glyph-name="῟" unicode="&#x1fdf;" horiz-adv-x="638" 
d="M128 1024v256h128v-256h128v256h128v-128h-512v-128h128zM128 640v256h256v-128h-128v-128h-128z" />
    <glyph glyph-name="ῠ" unicode="&#x1fe0;" horiz-adv-x="638" 
d="M0 128v512h128v-640h256v640h128v-512h-512zM0 896v128h128v-256h256v256h128v-128h-512z" />
    <glyph glyph-name="ῡ" unicode="&#x1fe1;" horiz-adv-x="638" 
d="M0 128v512h128v-640h256v640h128v-512h-512zM128 768v128h256v-128h-256z" />
    <glyph glyph-name="ῢ" unicode="&#x1fe2;" horiz-adv-x="638" 
d="M0 128v384h128v-512h256v512h128v-384h-512zM0 640v128h128v-128h-128zM384 640v128h128v-128h-128zM128 1024v128h128v-256h128v128h-256z" />
    <glyph glyph-name="ΰ" unicode="&#x1fe3;" horiz-adv-x="638" 
d="M0 128v384h128v-512h256v512h128v-384h-512zM0 640v128h128v-128h-128zM384 640v128h128v-128h-128zM256 896v256h128v-128h-256v-128h128z" />
    <glyph glyph-name="ῤ" unicode="&#x1fe4;" horiz-adv-x="638" 
d="M0 -256v768h128v-384h384v384h-384v128h256v-640h-256v-256h-128zM128 896v128h256v-256h-128v128h-128z" />
    <glyph glyph-name="ῥ" unicode="&#x1fe5;" horiz-adv-x="638" 
d="M0 -256v768h128v-384h384v384h-384v128h256v-640h-256v-256h-128zM128 768v256h256v-128h-128v-128h-128z" />
    <glyph glyph-name="ῦ" unicode="&#x1fe6;" horiz-adv-x="638" 
d="M0 128v512h128v-640h256v640h128v-512h-512zM128 768v256h128v-256h128v256h128v-128h-512v-128h128z" />
    <glyph glyph-name="ῧ" unicode="&#x1fe7;" horiz-adv-x="638" 
d="M0 128v512h128v-640h256v640h128v-512h-512zM0 768v128h128v-128h-128zM384 768v128h128v-128h-128zM128 1024v256h128v-256h128v256h128v-128h-512v-128h128z" />
    <glyph glyph-name="Ῠ" unicode="&#x1fe8;" 
d="M0 896h128v-384h128v-128h128v128h128v384h128v-384h-128v-128h-128v-384h-128v384h-128v128h-128v384zM0 1280v-128h640v128h-128v-256h-384v256h-128z" />
    <glyph glyph-name="Ῡ" unicode="&#x1fe9;" 
d="M0 896h128v-384h128v-128h128v128h128v384h128v-384h-128v-128h-128v-384h-128v384h-128v128h-128v384zM128 1024v128h384v-128h-384z" />
    <glyph glyph-name="Ὺ" unicode="&#x1fea;" horiz-adv-x="1153" 
d="M384 896h128v-384h128v-128h128v128h128v384h128v-384h-128v-128h-128v-384h-128v384h-128v128h-128v384zM0 896v128h128v-256h128v128h-256z" />
    <glyph glyph-name="Ύ" unicode="&#x1feb;" horiz-adv-x="1153" 
d="M384 896h128v-384h128v-128h128v128h128v384h128v-384h-128v-128h-128v-384h-128v384h-128v128h-128v384zM128 768v256h128v-128h-256v-128h128z" />
    <glyph glyph-name="Ῥ" unicode="&#x1fec;" horiz-adv-x="1024" 
d="M256 896h512v-128h128v-384h-128v-128h-384v-256h-128v896zM768 768h-384v-384h384v384zM0 768v256h256v-128h-128v-128h-128z" />
    <glyph glyph-name="῭" unicode="&#x1fed;" horiz-adv-x="638" 
d="M0 768v128h128v-128h-128zM384 768v128h128v-128h-128zM128 1152v128h128v-256h128v128h-256z" />
    <glyph glyph-name="΅" unicode="&#x1fee;" horiz-adv-x="638" 
d="M0 768v128h128v-128h-128zM384 1024v256h128v-128h-256v-128h128zM384 768v128h128v-128h-128z" />
    <glyph glyph-name="`" unicode="&#x1fef;" horiz-adv-x="385" 
d="M0 768v128h128v-256h128v128h-256z" />
    <glyph glyph-name="ῲ" unicode="&#x1ff2;" 
d="M128 640v-640h128v256h128v-256h128v640h-128v-128h256v-384h-640v384h256v128h-128zM256 -256v128h128v-128h-128zM128 896v128h128v-256h128v128h-256z" />
    <glyph glyph-name="ῳ" unicode="&#x1ff3;" 
d="M128 640v-640h128v256h128v-256h128v640h-128v-128h256v-384h-640v384h256v128h-128zM256 -256v128h128v-128h-128z" />
    <glyph glyph-name="ῴ" unicode="&#x1ff4;" 
d="M128 640v-640h128v256h128v-256h128v640h-128v-128h256v-384h-640v384h256v128h-128zM256 -256v128h128v-128h-128zM384 768v256h128v-128h-256v-128h128z" />
    <glyph glyph-name="ῶ" unicode="&#x1ff6;" 
d="M128 640v-640h128v256h128v-256h128v640h-128v-128h256v-384h-640v384h256v128h-128zM256 768v256h128v-256h128v256h128v-128h-512v-128h128z" />
    <glyph glyph-name="ῷ" unicode="&#x1ff7;" 
d="M128 640v-640h128v256h128v-256h128v640h-128v-128h256v-384h-640v384h256v128h-128zM256 -256v128h128v-128h-128zM256 768v256h128v-256h128v256h128v-128h-512v-128h128z" />
    <glyph glyph-name="Ὸ" unicode="&#x1ff8;" horiz-adv-x="1153" 
d="M384 128v640h640v-640h-512v-128h384v896h-384v-768h-128zM0 896v128h128v-256h128v128h-256z" />
    <glyph glyph-name="Ό" unicode="&#x1ff9;" horiz-adv-x="1024" 
d="M256 128v640h640v-640h-512v-128h384v896h-384v-768h-128zM128 768v256h128v-128h-256v-128h128z" />
    <glyph glyph-name="Ὼ" unicode="&#x1ffa;" horiz-adv-x="1153" 
d="M512 128v768h384v-768h128v-128h-256v256h256v512h-640v-512h256v-256h-256v128h128zM0 896v128h128v-256h128v128h-256z" />
    <glyph glyph-name="Ώ" unicode="&#x1ffb;" horiz-adv-x="1024" 
d="M384 128v768h384v-768h128v-128h-256v256h256v512h-640v-512h256v-256h-256v128h128zM128 768v256h128v-128h-256v-128h128z" />
    <glyph glyph-name="ῼ" unicode="&#x1ffc;" 
d="M128 128v768h384v-768h128v-128h-256v256h256v512h-640v-512h256v-256h-256v128h128zM256 -256v128h128v-128h-128z" />
    <glyph glyph-name="´" unicode="&#x1ffd;" horiz-adv-x="385" 
d="M128 640v256h128v-128h-256v-128h128z" />
    <glyph glyph-name="῾" unicode="&#x1ffe;" horiz-adv-x="385" 
d="M0 640v256h256v-128h-128v-128h-128z" />
    <glyph glyph-name="‐" unicode="&#x2010;" horiz-adv-x="385" 
d="M0 384v128h256v-128h-256z" />
    <glyph glyph-name="‑" unicode="&#x2011;" horiz-adv-x="512" 
d="M0 384v128h384v-128h-384z" />
    <glyph glyph-name="‒" unicode="&#x2012;" horiz-adv-x="638" 
d="M0 384v128h512v-128h-512z" />
    <glyph glyph-name="–" unicode="&#x2013;" 
d="M0 384v128h640v-128h-640z" />
    <glyph glyph-name="—" unicode="&#x2014;" horiz-adv-x="897" 
d="M0 384v128h768v-128h-768z" />
    <glyph glyph-name="―" unicode="&#x2015;" horiz-adv-x="1024" 
d="M0 384v128h896v-128h-896z" />
    <glyph glyph-name="‖" unicode="&#x2016;" horiz-adv-x="512" 
d="M0 0v896h128v-896h-128zM256 0v896h128v-896h-128z" />
    <glyph glyph-name="‗" unicode="&#x2017;" horiz-adv-x="638" 
d="M0 -128v128h512v-128h-512zM0 128v128h512v-128h-512z" />
    <glyph glyph-name="‘" unicode="&#x2018;" horiz-adv-x="256" 
d="M128 640h-128v256h128v-256z" />
    <glyph glyph-name="’" unicode="&#x2019;" horiz-adv-x="256" 
d="M0 640v256h128v-256h-128z" />
    <glyph glyph-name="‚" unicode="&#x201a;" horiz-adv-x="256" 
d="M0 -128v256h128v-256h-128z" />
    <glyph glyph-name="‛" unicode="&#x201b;" horiz-adv-x="256" 
d="M0 896h128v-256h-128v256z" />
    <glyph glyph-name="“" unicode="&#x201c;" horiz-adv-x="512" 
d="M0 640v256h128v-256h-128zM256 640v256h128v-256h-128z" />
    <glyph glyph-name="”" unicode="&#x201d;" horiz-adv-x="512" 
d="M0 640v256q16 0 63.5 0.5t63.5 0.5q0 -32 0.5 -128.5t0.5 -128.5h-128zM256 640v256h128v-256h-128z" />
    <glyph glyph-name="„" unicode="&#x201e;" horiz-adv-x="512" 
d="M0 -128v256h128v-256h-128zM256 -128v256h128v-256h-128z" />
    <glyph glyph-name="‟" unicode="&#x201f;" horiz-adv-x="512" 
d="M0 640v256h128v-256h-128zM256 640v256h128v-256h-128z" />
    <glyph glyph-name="†" unicode="&#x2020;" 
d="M0 512v128h256v256h128v-256h256v-128h-256v-512h-128v512h-256z" />
    <glyph glyph-name="‡" unicode="&#x2021;" 
d="M0 512v128h256v256h128v-256h256v-128h-256v-128h256v-128h-256v-256h-128v256h-256v128h256v128h-256z" />
    <glyph glyph-name="•" unicode="&#x2022;" horiz-adv-x="385" 
d="M0 256v256h256v-256h-256z" />
    <glyph glyph-name="‣" unicode="&#x2023;" horiz-adv-x="385" 
d="M0 128v384h128v-128h128v-128h-128v-128h-128z" />
    <glyph glyph-name="․" unicode="&#x2024;" horiz-adv-x="256" 
d="M0 0v128h128v-128h-128z" />
    <glyph glyph-name="‥" unicode="&#x2025;" horiz-adv-x="512" 
d="M0 0v128h128v-128h-128zM256 0v128h128v-128h-128z" />
    <glyph glyph-name="…" unicode="&#x2026;" 
d="M0 0v128h128v-128h-128zM256 0v128h128v-128h-128zM512 0v128h128v-128h-128z" />
    <glyph glyph-name="‧" unicode="&#x2027;" horiz-adv-x="256" 
d="M0 384v128h128v-128h-128z" />
    <glyph glyph-name="‰" unicode="&#x2030;" horiz-adv-x="1409" 
d="M0 384v384h384v-384h128v384h128v-384h640v-384h-640v384h-128v-384h-128v384h-384zM128 640v-128h128v128h-128zM768 256v-128h128v128h-128zM1024 256v-128h128v128h-128z" />
    <glyph glyph-name="‱" unicode="&#x2031;" horiz-adv-x="1662" 
d="M0 384v384h384v-384h128v384h128v-384h896v-384h-896v384h-128v-384h-128v384h-384zM128 640v-128h128v128h-128zM768 256v-128h128v128h-128zM1024 256v-128h128v128h-128zM1280 256v-128h128v128h-128z" />
    <glyph glyph-name="′" unicode="&#x2032;" horiz-adv-x="256" 
d="M0 640v256h128v-256h-128z" />
    <glyph glyph-name="″" unicode="&#x2033;" horiz-adv-x="512" 
d="M0 640v256h128v-256h-128zM256 640v256h128v-256h-128z" />
    <glyph glyph-name="‴" unicode="&#x2034;" 
d="M0 640v256h128v-256h-128zM256 640v256h128v-256h-128zM512 640v256h128v-256h-128z" />
    <glyph glyph-name="‵" unicode="&#x2035;" horiz-adv-x="385" 
d="M0 768v128h128v-256h128v128h-256z" />
    <glyph glyph-name="‶" unicode="&#x2036;" horiz-adv-x="638" 
d="M0 768v128h128v-256h128v256h128v-256h128v128h-512z" />
    <glyph glyph-name="‷" unicode="&#x2037;" horiz-adv-x="897" 
d="M0 768v128h128v-256h128v256h128v-256h128v256h128v-256h128v128h-768z" />
    <glyph glyph-name="‸" unicode="&#x2038;" horiz-adv-x="512" 
d="M128 -256h-128v256h384v-256h-128v384h-128v-384z" />
    <glyph glyph-name="‹" unicode="&#x2039;" horiz-adv-x="512" 
d="M0 256v128h256v256h128v-128h-256v-384h256v-128h-128v256h-256z" />
    <glyph glyph-name="›" unicode="&#x203a;" horiz-adv-x="512" 
d="M0 512v128h128v-256h256v-128h-256v-256h-128v80v48h256v384h-256z" />
    <glyph glyph-name="※" unicode="&#x203b;" horiz-adv-x="1024" 
d="M0 768v128h128v-128h128v-128h128v-128h128v128h128v128h128v128h128v-128h-128v-128h-128v-128h-128v-128h128v-128h128v-128h128v-128h-128v128h-128v128h-128v128h-128v-128h-128v-128h-128v-128h-128v128h128v128h128v128h128v128h-128v128h-128v128h-128zM384 768
v128h128v-128h-128zM768 384v128h128v-128h-128zM384 0v128h128v-128h-128zM0 384v128h128v-128h-128z" />
    <glyph glyph-name="‼" unicode="&#x203c;" horiz-adv-x="256" 
d="M0 256v640h128v-640h-128zM0 0v128h128v-128h-128z" />
    <glyph glyph-name="‽" unicode="&#x203d;" 
d="M128 640h-128v128h128v128h384v-128h128v-256h-128v-128h-128v-128h-128v512h-128v-128zM512 768h-128v-256h128v256zM256 128h128v-128h-128v128z" />
    <glyph glyph-name="‾" unicode="&#x203e;" horiz-adv-x="638" 
d="M0 896v128h512v-128h-512z" />
    <glyph glyph-name="‿" unicode="&#x203f;" horiz-adv-x="897" 
d="M0 0v-128h768v128h-128v-256h-512v96v160h-128z" />
    <glyph glyph-name="⁀" unicode="&#x2040;" horiz-adv-x="897" 
d="M0 896v-128h128v256h512v-256h128v128h-768z" />
    </font>
</defs>
</svg>
